<svg xmlns="http://www.w3.org/2000/svg" viewBox="0 0 500 500"><g id="freepik--background-complete--inject-168"><path d="M341.86,126.12a24.33,24.33,0,1,0,31.8,13.13A24.33,24.33,0,0,0,341.86,126.12Zm17.19,43.21a21.8,21.8,0,1,1,12.1-28.64A22,22,0,0,1,359.05,169.33Z" style="fill:#e0e0e0"></path><path d="M341.18,124.5A24.33,24.33,0,1,0,373,137.63,24.33,24.33,0,0,0,341.18,124.5Zm17.19,43.2a21.8,21.8,0,1,1,12.11-28.64A22,22,0,0,1,358.37,167.7Z" style="fill:#f5f5f5"></path><path d="M357.4,246.7c-22.54-4.71-73.12,12-52.37,66s78.79,34.19,93.05,6.26C409.32,296.94,399.38,255.49,357.4,246.7Z" style="fill:#e0e0e0"></path><path d="M359,241.72c-22.55-4.72-73.12,12-52.37,66s78.78,34.18,93.05,6.26C410.93,292,401,250.51,359,241.72Z" style="fill:#ebebeb"></path><path d="M321.93,265.78c-1.32-4,8.5-16.7,28.74-16.77s31.25,12.81,28.93,15.17-9.33,15.65-28.19,13.84C333.8,276.33,323.49,270.56,321.93,265.78Z" style="fill:#e0e0e0"></path><path d="M387.71,280c3.12-.62,13.77,21.16.44,34.75s-27.07,20-33.45,14.47-3.12-24,6.49-34.54S384,280.76,387.71,280Z" style="fill:#e0e0e0"></path><path d="M313,275.34c2.66-2.56,23.77,3.31,31.28,13.9s3.4,36-.89,39.69S319.73,318.34,314,307.16,309.06,279.12,313,275.34Z" style="fill:#e0e0e0"></path><path d="M332.07,257.24c-4,1.8,1.85,14.74,4.05,12.73S335.26,255.8,332.07,257.24Z" style="fill:#f5f5f5"></path><path d="M344,253.47c-1.94.05-3.68,20.28,1.12,19.85S347.41,253.4,344,253.47Z" style="fill:#f5f5f5"></path><path d="M356.8,254.1c-2,.13-3.66,12.54,0,13.27S358.79,254,356.8,254.1Z" style="fill:#f5f5f5"></path><path d="M370,256.81c-4.21-1.37-8.83,15.17-5.38,16.69S375.83,258.69,370,256.81Z" style="fill:#f5f5f5"></path><path d="M333.73,287.43c0-2.24-17.28-5.49-17.24-.81S333.66,292.25,333.73,287.43Z" style="fill:#f5f5f5"></path><path d="M341.94,306.31c1.89,1-3.88,17.33-7.89,13.75S340.06,305.3,341.94,306.31Z" style="fill:#f5f5f5"></path><path d="M338.82,297.07c1.47,2.14-14.51,15.26-19,9.93S337.34,294.92,338.82,297.07Z" style="fill:#f5f5f5"></path><path d="M371.25,295.69c1.83-3.67,18.62,6.16,16.17,9.49S368.83,300.56,371.25,295.69Z" style="fill:#f5f5f5"></path><path d="M376.43,290.17c.3,2.71,12.68,3.86,12.39.18S376.14,287.45,376.43,290.17Z" style="fill:#f5f5f5"></path><path d="M364.92,300.63c-1.22,1,8.22,15.61,10.16,12.86S368,298.14,364.92,300.63Z" style="fill:#f5f5f5"></path><path d="M358.81,303.7c-3.4.83-4,16.1-.43,16.2S363.67,302.51,358.81,303.7Z" style="fill:#f5f5f5"></path><path d="M198.61,390c-17.35-3.63-56.27,9.26-40.3,50.77s60.63,26.31,71.6,4.82C238.56,428.7,230.91,396.8,198.61,390Z" style="fill:#e0e0e0"></path><path d="M199.85,386.21c-17.35-3.63-56.28,9.26-40.3,50.77s60.62,26.31,71.6,4.82C239.8,424.87,232.15,393,199.85,386.21Z" style="fill:#f5f5f5"></path><path d="M171.31,404.72c-1-3.08,6.54-12.85,22.12-12.9s24,9.85,22.26,11.67-7.18,12.05-21.69,10.65C180.45,412.84,172.51,408.4,171.31,404.72Z" style="fill:#e0e0e0"></path><path d="M221.93,415.68c2.4-.47,10.6,16.29.34,26.74s-20.83,15.42-25.74,11.14-2.4-18.5,5-26.58S219.05,416.25,221.93,415.68Z" style="fill:#e0e0e0"></path><path d="M164.44,412.08c2.06-2,18.3,2.55,24.08,10.7s2.61,27.73-.69,30.54-18.21-8.15-22.61-16.75S161.41,415,164.44,412.08Z" style="fill:#e0e0e0"></path><path d="M179.11,398.15c-3.05,1.39,1.43,11.35,3.12,9.8S181.57,397,179.11,398.15Z" style="fill:#f5f5f5"></path><path d="M188.32,395.25c-1.5,0-2.83,15.6.86,15.27S190.92,395.19,188.32,395.25Z" style="fill:#f5f5f5"></path><path d="M198.15,395.73c-1.53.11-2.82,9.66,0,10.22S199.68,395.63,198.15,395.73Z" style="fill:#f5f5f5"></path><path d="M208.31,397.82c-3.24-1.05-6.79,11.67-4.14,12.84S212.79,399.27,208.31,397.82Z" style="fill:#f5f5f5"></path><path d="M180.39,421.38c0-1.72-13.3-4.22-13.26-.62S180.34,425.09,180.39,421.38Z" style="fill:#f5f5f5"></path><path d="M186.71,435.91c1.45.79-3,13.34-6.07,10.59S185.26,435.13,186.71,435.91Z" style="fill:#f5f5f5"></path><path d="M184.31,428.8c1.13,1.65-11.17,11.74-14.6,7.64S183.17,427.15,184.31,428.8Z" style="fill:#f5f5f5"></path><path d="M209.27,427.74c1.41-2.82,14.32,4.74,12.44,7.3S207.4,431.48,209.27,427.74Z" style="fill:#f5f5f5"></path><path d="M213.25,423.49c.23,2.09,9.76,3,9.53.14S213,421.4,213.25,423.49Z" style="fill:#f5f5f5"></path><path d="M204.39,431.54c-.93.76,6.33,12,7.83,9.9S206.73,429.62,204.39,431.54Z" style="fill:#f5f5f5"></path><path d="M199.69,433.9c-2.62.64-3.07,12.39-.33,12.47S203.43,433,199.69,433.9Z" style="fill:#f5f5f5"></path><rect x="136.96" y="309.67" width="30.71" height="10.08" transform="translate(-81.07 54.38) rotate(-16.05)" style="fill:#e0e0e0"></rect><polygon points="162.78 331.31 160.02 337.23 154.54 333.68 149.32 315.56 157.57 313.19 162.78 331.31" style="fill:#e0e0e0"></polygon><rect x="61.59" y="86.3" width="47.73" height="14.7" transform="translate(-22.56 27.28) rotate(-16.05)" style="fill:#e0e0e0"></rect><path d="M78.77,263.93,35.89,144.5s-12.16-26.57,20.63-38,66.1-21,81.32-16.88,22.46,20.6,26.26,39,22.77,129.6,23.15,143.15c.5,17.4-7.08,31.1-19,35S135,318.84,128,318.48C113.28,317.71,104.27,321.23,78.77,263.93Z" style="fill:#ebebeb"></path><rect x="76.92" y="64.14" width="8.74" height="30.1" transform="matrix(0.96, -0.28, 0.28, 0.96, -18.73, 25.56)" style="fill:#e0e0e0"></rect><path d="M148.83,98.86a2.09,2.09,0,0,1-.25.2l-.77.56-3,2.09c-2.58,1.82-6.35,4.4-11.05,7.52-9.39,6.26-22.55,14.64-37.44,23.3s-28.7,15.94-38.79,21c-5.05,2.53-9.15,4.53-12,5.87L42.26,161l-.86.38a1.38,1.38,0,0,1-.3.12s.09-.06.28-.16l.84-.44,3.24-1.63c2.83-1.4,6.91-3.45,11.93-6,10-5.14,23.8-12.48,38.69-21.12s28.07-17,37.51-23.15c4.72-3.09,8.52-5.62,11.14-7.38l3-2,.8-.51A1.35,1.35,0,0,1,148.83,98.86Z" style="fill:#e0e0e0"></path><path d="M170.29,162.09a1.19,1.19,0,0,1-.32,0l-.94.09-3.6.3-13.26,1.1c-11.2,1-26.65,2.47-43.66,4.58s-32.36,4.42-43.45,6.21L51.93,176.6l-3.57.59-.93.14-.32,0a1.31,1.31,0,0,1,.31-.09l.92-.19,3.55-.68c3.09-.59,7.57-1.4,13.11-2.34,11.07-1.89,26.42-4.26,43.45-6.37s32.48-3.56,43.69-4.43c5.6-.44,10.14-.75,13.27-.93l3.62-.2.94,0Z" style="fill:#e0e0e0"></path><path d="M175.63,192.57a1.23,1.23,0,0,1-.27.12l-.82.29L171.39,194c-2.75.91-6.73,2.19-11.66,3.74-9.86,3.1-23.54,7.21-38.75,11.41s-29.07,7.68-39.13,10.07c-5,1.2-9.1,2.14-11.92,2.76l-3.26.71-.85.17a.92.92,0,0,1-.29,0,2.05,2.05,0,0,1,.28-.09l.84-.22,3.23-.8,11.89-2.92c10-2.49,23.86-6,39.07-10.22s28.89-8.25,38.78-11.26l11.7-3.59,3.19-1,.83-.24Z" style="fill:#e0e0e0"></path><path d="M183.68,241.3c0,.14-25,.95-55.8,1.79s-55.81,1.42-55.81,1.28,25-1,55.8-1.8S183.68,241.16,183.68,241.3Z" style="fill:#e0e0e0"></path><path d="M183.84,253.39c.06.13-19.46,10-43.6,22S96.47,297.13,96.4,297s19.46-10,43.61-22S183.77,253.26,183.84,253.39Z" style="fill:#e0e0e0"></path><path d="M261,71.51A21.79,21.79,0,1,0,282.79,93.3,21.79,21.79,0,0,0,261,71.51Zm-.64,41.64a19.52,19.52,0,1,1,19.85-19.52A19.69,19.69,0,0,1,260.37,113.15Z" style="fill:#e0e0e0"></path><path d="M261,69.94a21.79,21.79,0,1,0,21.78,21.78A21.78,21.78,0,0,0,261,69.94Zm-.64,41.63a19.52,19.52,0,1,1,19.85-19.52A19.69,19.69,0,0,1,260.37,111.57Z" style="fill:#f5f5f5"></path><path d="M179.33,52.3a16.94,16.94,0,0,0-3.88-5.75A7,7,0,0,0,169,44.81c-2.05.63-3.59,2.45-5.67,2.95s-4.14-.39-5.94-1.44-3.54-2.33-5.58-2.78a7.34,7.34,0,0,0-8.87,7.83c.12,1.3.57,2.54.76,3.83a4.4,4.4,0,0,1-.82,3.67c-1.91,2.07-5.71.51-8,2.21a4.42,4.42,0,0,0-1.31,4.53A13,13,0,0,0,135.93,70c4.59,6.51,9.31,13.15,15.79,17.79,9,8.93,20,13.39,32.89,13.91C192.13,87.4,183.77,61.8,179.33,52.3Z" style="fill:#ebebeb"></path><path d="M139.22,71.88A7.93,7.93,0,0,1,136,68a7.93,7.93,0,0,1-.74-5,21,21,0,0,0,1.22,4.76A20.72,20.72,0,0,0,139.22,71.88Z" style="fill:#fff"></path><path d="M144.77,49.81a35.25,35.25,0,0,0,.24,3.58,34,34,0,0,0,1.1,3.42,5.73,5.73,0,0,1-1.61-3.32A5.73,5.73,0,0,1,144.77,49.81Z" style="fill:#fff"></path><path d="M165.54,58.79c-.13.07-.59-.59-1-1.46s-.68-1.63-.55-1.69.58.59,1,1.46S165.67,58.73,165.54,58.79Z" style="fill:#fff"></path><path d="M181.39,95.15s-.15-.13-.38-.41l-1-1.21c-.85-1-2.05-2.6-3.51-4.54-2.93-3.86-6.89-9.26-11.08-15.36s-7.82-11.73-10.37-15.85c-1.28-2.05-2.3-3.73-3-4.9l-.78-1.36a2.58,2.58,0,0,1-.24-.49s.13.14.33.44l.86,1.3,3.12,4.82c2.63,4.06,6.3,9.66,10.49,15.75S174,84.86,176.81,88.78l3.38,4.63.91,1.27A2.18,2.18,0,0,1,181.39,95.15Z" style="fill:#e0e0e0"></path><path d="M171.16,51.46a3.84,3.84,0,0,1,0,1.07q-.1,1.19-.24,2.88c-.21,2.43-.48,5.79-.7,9.51s-.34,7.08-.42,9.52c0,1.13-.08,2.09-.11,2.89a4,4,0,0,1-.1,1.06,4.59,4.59,0,0,1-.1-1.06c0-.68-.05-1.67-.06-2.89,0-2.45.05-5.83.27-9.55s.55-7.09.85-9.52c.15-1.21.29-2.19.4-2.87A4.43,4.43,0,0,1,171.16,51.46Z" style="fill:#e0e0e0"></path><path d="M165.3,75.21a4.61,4.61,0,0,1-1-.41l-2.69-1.23c-2.28-1-5.45-2.39-9-3.68s-6.88-2.29-9.29-3l-2.86-.77a4.94,4.94,0,0,1-1-.34,3.8,3.8,0,0,1,1.08.14c.69.12,1.68.33,2.9.61a89.1,89.1,0,0,1,9.38,2.82,87.1,87.1,0,0,1,9,3.84c1.12.56,2,1,2.62,1.38A4.34,4.34,0,0,1,165.3,75.21Z" style="fill:#e0e0e0"></path><path d="M152.62,69.91a14.75,14.75,0,0,1-3.34,2,14.67,14.67,0,0,1-3.57,1.54,14.85,14.85,0,0,1,3.33-2A14.3,14.3,0,0,1,152.62,69.91Z" style="fill:#e0e0e0"></path><path d="M148,53.91a25.83,25.83,0,0,1,5.09,3.41,25.37,25.37,0,0,1,4.48,4.17c-.1.11-2.17-1.68-4.81-3.76S147.89,54,148,53.91Z" style="fill:#e0e0e0"></path><path d="M165.5,52.7c.14,0,1,2.9,2.19,6.49s2.24,6.46,2.1,6.51a31.79,31.79,0,0,1-2.59-6.35A31.53,31.53,0,0,1,165.5,52.7Z" style="fill:#e0e0e0"></path><path d="M177.78,73.82c.15,0-.45,2.94-1,6.55s-.89,6.56-1,6.55a28.91,28.91,0,0,1,.52-6.63A29.42,29.42,0,0,1,177.78,73.82Z" style="fill:#e0e0e0"></path><path d="M176.33,88.41a37.34,37.34,0,0,1-6.91-.3A36.85,36.85,0,0,1,162.59,87a62.08,62.08,0,0,1,6.88.56A59.36,59.36,0,0,1,176.33,88.41Z" style="fill:#e0e0e0"></path><path d="M422.82,113.23s2.13,2.51,10-1.23c4.54-2.16,5.78-9.43,4.59-16h0c-.86-4.79-3-9.19-6.11-10.94-5.24-3-15.05,3.27-15.05,3.27S416,86.88,415,80.79c0-.25-.08-.51-.13-.78-1.15-6.74-15.07-4.92-23.56,1.8a10.51,10.51,0,0,0-2.41,2.64c-4.17,6.61,2.24,15.09,2.24,15.09-3.72-1.57-15,4.2-12.45,14.47a11.09,11.09,0,0,0,.36,1.21c5.86,16.91,18.9,7.21,19.05,9.69.49,8.22,13,13.75,23.26,8.29S422.82,113.23,422.82,113.23ZM411.39,80.44a4.15,4.15,0,0,1,.46.56c1,1.56,1.19,4,1.26,6,0,1,0,1.93.13,2.64.35,2.9,3.47,1,3.47,1a11.93,11.93,0,0,1,13.89-1.16c2.49,1.57,3.71,6.44,3.88,10.63,0,.56,0,1.11,0,1.64a14.34,14.34,0,0,1-.43,3.41,8.31,8.31,0,0,1-3,4.13,10.84,10.84,0,0,1-1.77,1.11,5.62,5.62,0,0,1-4.22.66,38.82,38.82,0,0,0-4.48-1.67,4,4,0,0,0-2.46,0,1.59,1.59,0,0,0-.69.57,1.5,1.5,0,0,0-.3.87c-.05,1.56,2.22,3.15,3.38,4.11.82.69,2,4.7,2,8.6h0a6.89,6.89,0,0,1-.1,1.74,7.48,7.48,0,0,1-2.21,5c-4.19,3.56-11.95,1.76-15.47-.45-5-3.17-3-7-2.85-8.59a1.17,1.17,0,0,0,0-.27.69.69,0,0,1-.09-.2.66.66,0,0,0-.18-.19c-.82-.59-3.18.17-4,.63-1,.56-4.71,1.23-9.21,1.24-3.53,0-5.65-4.53-6.42-7.69a10.33,10.33,0,0,1-.32-2.2c0-8,6.94-10.5,8.92-10.34a13.58,13.58,0,0,1,2.72.79c1.31.44,2.6.68,3.48-.47.54-.7.62-1.11.37-1.46-.46-.62-2-1-3.9-2.48-3-2.27-4.11-8.5-1.34-12.57A10.07,10.07,0,0,1,395,83.31c4.23-2.65,11-4.38,14.35-3.9a3.91,3.91,0,0,1,1.35.46A3.68,3.68,0,0,1,411.39,80.44Z" style="fill:#ebebeb"></path><path d="M295,60.65a5.54,5.54,0,1,1-5.54-5.53A5.54,5.54,0,0,1,295,60.65Z" style="fill:#f5f5f5"></path><circle cx="303.42" cy="464.62" r="8.7" transform="translate(-203.7 689.91) rotate(-80.81)" style="fill:#ebebeb"></circle><circle cx="370.1" cy="176.05" r="8.7" style="fill:#ebebeb"></circle><circle cx="258.82" cy="34.51" r="8.7" style="fill:#ebebeb"></circle><circle cx="173.88" cy="365.19" r="8.7" transform="translate(-125.92 93.68) rotate(-22.37)" style="fill:#ebebeb"></circle><path d="M286.46,470.1a5.9,5.9,0,1,1-5.9-5.9A5.9,5.9,0,0,1,286.46,470.1Z" style="fill:#ebebeb"></path><path d="M389.63,57.52a5.9,5.9,0,1,1-5.9-5.9A5.9,5.9,0,0,1,389.63,57.52Z" style="fill:#ebebeb"></path><path d="M76,320.11a5.9,5.9,0,1,1-5.9-5.9A5.9,5.9,0,0,1,76,320.11Z" style="fill:#ebebeb"></path><path d="M444.6,235.87a28.21,28.21,0,1,0,28.2,28.2A28.21,28.21,0,0,0,444.6,235.87Zm-.82,53.9a25.27,25.27,0,1,1,25.69-25.27A25.49,25.49,0,0,1,443.78,289.77Z" style="fill:#e0e0e0"></path><path d="M444.6,233.83A28.21,28.21,0,1,0,472.8,262,28.21,28.21,0,0,0,444.6,233.83Zm-.82,53.89a25.27,25.27,0,1,1,25.69-25.26A25.48,25.48,0,0,1,443.78,287.72Z" style="fill:#f5f5f5"></path></g><g id="freepik--Lettuce--inject-168"><path d="M122.71,239.55a15.83,15.83,0,0,0-5.48-3.62,6.62,6.62,0,0,0-6.27.82c-1.57,1.29-2.26,3.44-3.9,4.63s-3.75,1.16-5.71.9-3.94-.76-5.88-.41a7,7,0,0,0-4.92,10.07c.57,1.09,1.42,2,2.06,3.06a4.21,4.21,0,0,1,.61,3.52c-.92,2.5-4.8,2.51-6.15,4.81a4.18,4.18,0,0,0,.5,4.43,12.18,12.18,0,0,0,3.61,3c6.38,4,12.91,8.11,20.26,9.82,11.08,4.55,22.35,4.44,33.8.23C146.63,265.59,130,246.24,122.71,239.55Z" style="fill:#455a64"></path><path d="M94.75,271.21a8.79,8.79,0,0,1-6.67-6.31,21,21,0,0,0,2.8,3.72A20.94,20.94,0,0,0,94.75,271.21Z" style="fill:#fff"></path><path d="M91.59,249.91c.16,0,.49,1.48,1.53,3s2.27,2.47,2.18,2.6a6.66,6.66,0,0,1-3.71-5.63Z" style="fill:#fff"></path><path d="M113,250.22c-.1.11-.74-.29-1.44-.89s-1.18-1.18-1.09-1.29.74.29,1.43.89S113.1,250.11,113,250.22Z" style="fill:#fff"></path><path d="M140.05,276.26a2.23,2.23,0,0,1-.47-.22l-1.3-.7c-1.13-.61-2.74-1.53-4.73-2.68-4-2.31-9.38-5.61-15.25-9.41s-11.09-7.42-14.82-10.1c-1.86-1.34-3.36-2.44-4.38-3.22l-1.17-.9a2.13,2.13,0,0,1-.38-.34s.16.07.44.26l1.23.82,4.47,3.08c3.78,2.6,9,6.15,14.89,10s11.25,7.14,15.16,9.53l4.64,2.83,1.25.78C139.91,276.14,140.06,276.24,140.05,276.26Z" style="fill:#263238"></path><path d="M115.26,241.77a29.48,29.48,0,0,1,1.22,3.55c.7,2.2,1.68,5.23,2.84,8.56s2.27,6.32,3.08,8.48a30,30,0,0,1,1.24,3.54,4.16,4.16,0,0,1-.47-.89c-.28-.59-.66-1.44-1.11-2.51-.91-2.13-2.07-5.11-3.24-8.45s-2.08-6.4-2.7-8.63c-.3-1.11-.54-2-.68-2.65A4,4,0,0,1,115.26,241.77Z" style="fill:#263238"></path><path d="M118.75,264.66a38.22,38.22,0,0,1-3.83-.08c-2.36-.07-5.62-.1-9.22.06s-6.85.5-9.2.79a36.31,36.31,0,0,1-3.8.43,3.68,3.68,0,0,1,1-.28c.65-.14,1.59-.32,2.76-.52a83.72,83.72,0,0,1,9.22-.94,80.6,80.6,0,0,1,9.27.09c1.18.09,2.14.18,2.8.27A3.45,3.45,0,0,1,118.75,264.66Z" style="fill:#263238"></path><path d="M105.74,264.63a13.14,13.14,0,0,1-2.17,3,13,13,0,0,1-2.58,2.63,13.08,13.08,0,0,1,2.18-3A13.33,13.33,0,0,1,105.74,264.63Z" style="fill:#263238"></path><path d="M95.88,252.33a22.75,22.75,0,0,1,5.68,1.12,23,23,0,0,1,5.43,2,55.38,55.38,0,0,1-5.57-1.53A52.4,52.4,0,0,1,95.88,252.33Z" style="fill:#263238"></path><path d="M110.76,244.91a64.1,64.1,0,0,1,4.28,4.87c2.33,2.7,4.3,4.84,4.19,4.94a29,29,0,0,1-4.58-4.6A29.92,29.92,0,0,1,110.76,244.91Z" style="fill:#263238"></path><path d="M129.16,258.92c.15,0,.69,2.73,1.51,6.09s1.59,6.06,1.45,6.11a26.85,26.85,0,0,1-2-6A27.3,27.3,0,0,1,129.16,258.92Z" style="fill:#263238"></path><path d="M133.18,272.2a33.09,33.09,0,0,1-6.14,2.26,32.71,32.71,0,0,1-6.37,1.52,54.16,54.16,0,0,1,6.22-2A56.12,56.12,0,0,1,133.18,272.2Z" style="fill:#263238"></path><path d="M415.93,344.73a17.15,17.15,0,0,0,6.72-1.93,7.08,7.08,0,0,0,3.67-5.65c0-2.16-1.23-4.2-1.06-6.35s1.65-3.84,3.22-5.24,3.34-2.67,4.4-4.48a7.38,7.38,0,0,0-4.75-10.93c-1.27-.3-2.6-.24-3.89-.46a4.47,4.47,0,0,1-3.27-1.93c-1.39-2.47,1.28-5.63.35-8.31a4.44,4.44,0,0,0-3.92-2.65,13.25,13.25,0,0,0-4.92.85c-7.66,2.38-15.48,4.84-21.94,9.61-11.35,5.81-19.05,15-23.55,27.17C378.33,346.08,405.46,346,415.93,344.73Z" style="fill:#455a64"></path><path d="M409.64,300.22a9.43,9.43,0,0,1,9.71-1,14.62,14.62,0,0,0-9.71,1Z" style="fill:#fff"></path><path d="M429.06,312.39a35.55,35.55,0,0,0-3.51-.88c-2-.26-3.58.15-3.61,0a5.7,5.7,0,0,1,3.68-.51A5.8,5.8,0,0,1,429.06,312.39Z" style="fill:#fff"></path><path d="M414,329.5c0-.15.75-.38,1.72-.53s1.77-.15,1.79,0-.74.38-1.71.53S414,329.64,414,329.5Z" style="fill:#fff"></path><path d="M374.25,333.38a1.85,1.85,0,0,1,.5-.23l1.47-.57c1.27-.48,3.13-1.15,5.44-1.95,4.61-1.61,11-3.72,18.15-5.84s13.67-3.84,18.41-5c2.37-.58,4.29-1,5.63-1.33l1.53-.32a2,2,0,0,1,.55-.08,2.21,2.21,0,0,1-.52.18l-1.52.42-5.58,1.49c-4.71,1.25-11.21,3-18.35,5.15s-13.55,4.17-18.19,5.69l-5.49,1.79-1.5.48A2,2,0,0,1,374.25,333.38Z" style="fill:#263238"></path><path d="M419.28,337.16a4.14,4.14,0,0,1-1-.35l-2.68-1.13c-2.27-.95-5.4-2.26-8.89-3.62s-6.69-2.53-9-3.37l-2.74-1a3.82,3.82,0,0,1-1-.43,4.65,4.65,0,0,1,1,.23c.66.18,1.62.47,2.79.84,2.35.75,5.56,1.86,9.07,3.23s6.61,2.73,8.85,3.78c1.11.52,2,.95,2.62,1.27A5,5,0,0,1,419.28,337.16Z" style="fill:#263238"></path><path d="M398.35,324.17a4.23,4.23,0,0,1,.7-.85l2-2.19c1.69-1.86,4-4.47,6.33-7.5s4.33-5.89,5.71-8l1.63-2.49a4.53,4.53,0,0,1,.65-.89,4.58,4.58,0,0,1-.47,1c-.33.63-.84,1.51-1.49,2.59a89.31,89.31,0,0,1-12.09,15.54c-.89.9-1.62,1.61-2.14,2.09A5.77,5.77,0,0,1,398.35,324.17Z" style="fill:#263238"></path><path d="M407.37,313.66a14.37,14.37,0,0,1-.89-3.82,14.81,14.81,0,0,1-.37-3.9,14.61,14.61,0,0,1,.88,3.82A15.1,15.1,0,0,1,407.37,313.66Z" style="fill:#263238"></path><path d="M424.14,314.18A38.79,38.79,0,0,1,413.9,321c-.07-.14,2.29-1.56,5.1-3.44S424,314.07,424.14,314.18Z" style="fill:#263238"></path><path d="M419.85,331.35c0,.15-3.09.06-6.9.08s-6.88.14-6.89,0a7.44,7.44,0,0,1,2-.3c1.24-.11,3-.2,4.88-.21s3.64.07,4.89.16A7.63,7.63,0,0,1,419.85,331.35Z" style="fill:#263238"></path><path d="M395.8,336.56c-.08.12-2.68-1.35-6-3s-6-2.89-5.95-3a43.79,43.79,0,0,1,11.91,6Z" style="fill:#263238"></path><path d="M382.28,330.63a36.3,36.3,0,0,1,2.43-6.53,38.09,38.09,0,0,1,3.15-6.2,62,62,0,0,1-2.67,6.41A64.41,64.41,0,0,1,382.28,330.63Z" style="fill:#263238"></path><path d="M248.72,62.43a12.26,12.26,0,0,0-.19-5,5.08,5.08,0,0,0-3.33-3.56c-1.51-.4-3.17.13-4.65-.36a6,6,0,0,1-3.12-3.17A14.85,14.85,0,0,0,235,46.42a5.35,5.35,0,0,0-8.51,1.44c-.43.85-.62,1.79-1,2.66a3.21,3.21,0,0,1-1.92,2c-2,.55-3.73-1.88-5.78-1.69a3.24,3.24,0,0,0-2.55,2.3,9.67,9.67,0,0,0-.25,3.6c.35,5.8.72,11.73,2.95,17.1,2.12,9,7.25,16,15,21.26C243.15,89.1,247.82,70,248.72,62.43Z" style="fill:#455a64"></path><path d="M216.35,59.14a5.19,5.19,0,0,1-.57-3.65,5.25,5.25,0,0,1,1.52-3.36,25.35,25.35,0,0,0-1,3.43A22.14,22.14,0,0,0,216.35,59.14Z" style="fill:#fff"></path><path d="M228.27,47.6c.11.11-.66,1-1.16,2.34s-.55,2.51-.7,2.51a3.65,3.65,0,0,1,.21-2.7C227.17,48.3,228.19,47.49,228.27,47.6Z" style="fill:#fff"></path><path d="M237.68,61.15c-.14,0-.21-.6-.14-1.31s.23-1.27.37-1.25.21.59.15,1.3S237.82,61.16,237.68,61.15Z" style="fill:#fff"></path><path d="M233.52,89.76a8.2,8.2,0,0,1-.25-1.51c-.13-1-.28-2.41-.45-4.16-.35-3.52-.73-8.39-1-13.78s-.32-10.28-.31-13.81c0-1.77,0-3.2.07-4.19a9.47,9.47,0,0,1,.1-1.53,8.2,8.2,0,0,1,.1,1.53c0,1.09.06,2.49.1,4.19.08,3.53.21,8.4.46,13.78s.57,10.25.82,13.77c.12,1.69.22,3.1.29,4.18A8.85,8.85,0,0,1,233.52,89.76Z" style="fill:#263238"></path><path d="M244,58.77a16.44,16.44,0,0,1-1.64,2.38c-1.05,1.43-2.5,3.41-4.07,5.63s-2.94,4.25-3.94,5.72a16.87,16.87,0,0,1-1.69,2.34A15.13,15.13,0,0,1,234,72.3c.92-1.52,2.26-3.6,3.83-5.82s3.07-4.18,4.2-5.56A15.15,15.15,0,0,1,244,58.77Z" style="fill:#263238"></path><path d="M231.22,71.23a20.57,20.57,0,0,1-1.7-2.41c-1-1.51-2.48-3.56-4.19-5.74S222,59,220.72,57.67a18.84,18.84,0,0,1-1.94-2.22,14.21,14.21,0,0,1,2.21,2,58.12,58.12,0,0,1,4.75,5.34,59.23,59.23,0,0,1,4.09,5.86A13.72,13.72,0,0,1,231.22,71.23Z" style="fill:#263238"></path><path d="M225.4,63.07a15.56,15.56,0,0,1-5.65-.46,8,8,0,0,1,2.85,0A7.81,7.81,0,0,1,225.4,63.07Z" style="fill:#263238"></path><path d="M228.67,51.37a14.31,14.31,0,0,1,1.91,4,15.07,15.07,0,0,1,1.11,4.33,29.11,29.11,0,0,1-1.6-4.15A30.11,30.11,0,0,1,228.67,51.37Z" style="fill:#263238"></path><path d="M240,57.36a35.2,35.2,0,0,1-1.07,4.88,36.29,36.29,0,0,1-1.27,4.83,18.39,18.39,0,0,1,.77-5A18.68,18.68,0,0,1,240,57.36Z" style="fill:#263238"></path><path d="M239.49,75.17a35.83,35.83,0,0,1-3.1,3.71,33.78,33.78,0,0,1-3.21,3.61A16.71,16.71,0,0,1,236,78.54,17,17,0,0,1,239.49,75.17Z" style="fill:#263238"></path><path d="M233,83.65a25.45,25.45,0,0,1-4.14-2.86A24.83,24.83,0,0,1,225,77.51a24.34,24.34,0,0,1,4.15,2.86A23.8,23.8,0,0,1,233,83.65Z" style="fill:#263238"></path></g><g id="freepik--Peppers--inject-168"><path d="M149.49,143.58s4.23-.38,6.12-11.45c1.1-6.4-5.65-13.11-13.45-16.72h0c-5.69-2.64-11.93-3.64-16.08-1.67-7,3.34-7.73,18.32-7.73,18.32s-1.71-.86-8.92-4.28l-.92-.43c-8-3.8-16.39,12.24-15.6,26.2a13.54,13.54,0,0,0,1,4.51c3.88,9.31,17.59,8.84,17.59,8.84-4.43,2.76-6.73,19,6,23.9.5.19,1,.36,1.55.52,22.2,6.37,21.65-14.61,24.38-12.92,9,5.59,24.17-3.52,26-18.4S149.49,143.58,149.49,143.58Zm-43.1-12.29a4.79,4.79,0,0,1,.93-.06c2.42.07,5.07,1.69,7.29,3.14,1.09.71,2.08,1.39,2.88,1.82,3.32,1.78,3.69-2.88,3.69-2.88-.52-5.7,2.37-12.71,9.09-15.53,3.52-1.46,9.56.88,14.1,3.8.62.4,1.2.8,1.75,1.21a18.27,18.27,0,0,1,3.28,3,10.78,10.78,0,0,1,2.1,6.28,14,14,0,0,1-.14,2.69c-.34,2.23-1.21,4.13-2.45,4.95a49.37,49.37,0,0,0-5.08,3.48,5.17,5.17,0,0,0-1.86,2.58,2.07,2.07,0,0,0,.08,1.15,2,2,0,0,0,.71,1c1.6,1.21,5,0,6.85-.51,1.34-.36,6.48,1.33,10.57,4.24h0A8.48,8.48,0,0,1,162,153c2,1.74,3.4,3.79,3.61,6,.64,7.08-7,13.93-12,16-7.08,3-9.54-2.06-11.18-3.37a1,1,0,0,0-.3-.19,1.15,1.15,0,0,1-.28-.06,1,1,0,0,0-.33,0c-1.23.43-2.19,3.49-2.32,4.71-.17,1.51-2.2,5.88-5.53,10.65-2.61,3.73-9,2.6-12.9,1.06a12.88,12.88,0,0,1-2.55-1.3c-8.49-5.93-5.94-15.12-4.29-17.09a17.36,17.36,0,0,1,2.86-2.29c1.43-1.06,2.64-2.24,2.09-4-.34-1.09-.72-1.48-1.27-1.47-1,0-2.57,1.34-5.52,2.26-4.61,1.46-12-2-14.27-7.91a13.11,13.11,0,0,1-.59-5.28c.35-6.44,3.51-14.81,6.55-18a4.75,4.75,0,0,1,1.48-1.08A4.66,4.66,0,0,1,106.39,131.29Z" style="fill:#D4AF37"></path><g style="opacity:0.30000000000000004"><path d="M149.49,143.58s4.23-.38,6.12-11.45c1.1-6.4-5.65-13.11-13.45-16.72h0c-5.69-2.64-11.93-3.64-16.08-1.67-7,3.34-7.73,18.32-7.73,18.32s-1.71-.86-8.92-4.28l-.92-.43c-8-3.8-16.39,12.24-15.6,26.2a13.54,13.54,0,0,0,1,4.51c3.88,9.31,17.59,8.84,17.59,8.84-4.43,2.76-6.73,19,6,23.9.5.19,1,.36,1.55.52,22.2,6.37,21.65-14.61,24.38-12.92,9,5.59,24.17-3.52,26-18.4S149.49,143.58,149.49,143.58Zm-43.1-12.29a4.79,4.79,0,0,1,.93-.06c2.42.07,5.07,1.69,7.29,3.14,1.09.71,2.08,1.39,2.88,1.82,3.32,1.78,3.69-2.88,3.69-2.88-.52-5.7,2.37-12.71,9.09-15.53,3.52-1.46,9.56.88,14.1,3.8.62.4,1.2.8,1.75,1.21a18.27,18.27,0,0,1,3.28,3,10.78,10.78,0,0,1,2.1,6.28,14,14,0,0,1-.14,2.69c-.34,2.23-1.21,4.13-2.45,4.95a49.37,49.37,0,0,0-5.08,3.48,5.17,5.17,0,0,0-1.86,2.58,2.07,2.07,0,0,0,.08,1.15,2,2,0,0,0,.71,1c1.6,1.21,5,0,6.85-.51,1.34-.36,6.48,1.33,10.57,4.24h0A8.48,8.48,0,0,1,162,153c2,1.74,3.4,3.79,3.61,6,.64,7.08-7,13.93-12,16-7.08,3-9.54-2.06-11.18-3.37a1,1,0,0,0-.3-.19,1.15,1.15,0,0,1-.28-.06,1,1,0,0,0-.33,0c-1.23.43-2.19,3.49-2.32,4.71-.17,1.51-2.2,5.88-5.53,10.65-2.61,3.73-9,2.6-12.9,1.06a12.88,12.88,0,0,1-2.55-1.3c-8.49-5.93-5.94-15.12-4.29-17.09a17.36,17.36,0,0,1,2.86-2.29c1.43-1.06,2.64-2.24,2.09-4-.34-1.09-.72-1.48-1.27-1.47-1,0-2.57,1.34-5.52,2.26-4.61,1.46-12-2-14.27-7.91a13.11,13.11,0,0,1-.59-5.28c.35-6.44,3.51-14.81,6.55-18a4.75,4.75,0,0,1,1.48-1.08A4.66,4.66,0,0,1,106.39,131.29Z"></path></g><path d="M149.49,141.8s4.23-.38,6.12-11.45c1.1-6.4-5.65-13.1-13.45-16.71a0,0,0,0,0,0,0C136.46,111,130.22,110,126.07,112c-7,3.34-7.73,18.32-7.73,18.32s-1.71-.87-8.92-4.29l-.92-.43c-8-3.8-16.39,12.25-15.6,26.2a13.54,13.54,0,0,0,1,4.51c3.88,9.31,17.59,8.84,17.59,8.84-4.43,2.77-6.73,19,6,23.9.5.19,1,.36,1.55.52,22.2,6.37,21.65-14.61,24.38-12.92,9,5.59,24.17-3.51,26-18.4S149.49,141.8,149.49,141.8Zm-43.1-12.28a5.74,5.74,0,0,1,.93-.07c2.42.07,5.07,1.69,7.29,3.14,1.09.72,2.08,1.39,2.88,1.82,3.32,1.78,3.69-2.88,3.69-2.88-.52-5.7,2.37-12.71,9.09-15.53,3.52-1.46,9.56.88,14.1,3.81.62.39,1.2.79,1.75,1.2a18.27,18.27,0,0,1,3.28,3,10.81,10.81,0,0,1,2.1,6.28,14.17,14.17,0,0,1-.14,2.7c-.34,2.22-1.21,4.12-2.45,4.94a48,48,0,0,0-5.08,3.49A5.11,5.11,0,0,0,142,144a2.06,2.06,0,0,0,.08,1.15,2,2,0,0,0,.71,1c1.6,1.22,5,0,6.85-.51,1.34-.36,6.48,1.33,10.57,4.24h0a8.48,8.48,0,0,1,1.77,1.4c2,1.74,3.4,3.79,3.61,6,.64,7.07-7,13.92-12,16-7.08,3-9.54-2.06-11.18-3.37a1.19,1.19,0,0,0-.3-.18.82.82,0,0,1-.28-.07,1,1,0,0,0-.33,0c-1.23.43-2.19,3.49-2.32,4.71-.17,1.51-2.2,5.89-5.53,10.65-2.61,3.73-9,2.6-12.9,1.07a12.83,12.83,0,0,1-2.55-1.31c-8.49-5.92-5.94-15.12-4.29-17.08a16.38,16.38,0,0,1,2.86-2.29c1.43-1.07,2.64-2.25,2.09-4-.34-1.1-.72-1.49-1.27-1.48-1,0-2.57,1.34-5.52,2.27-4.61,1.45-12-2-14.27-7.92a13.07,13.07,0,0,1-.59-5.28c.35-6.44,3.51-14.81,6.55-18a4.75,4.75,0,0,1,1.48-1.08A4.25,4.25,0,0,1,106.39,129.52Z" style="fill:#D4AF37"></path><path d="M375,398.88s3.7-2.09.88-12.95c-1.63-6.29-10.54-9.63-19.13-9.72h0c-6.27-.07-12.37,1.57-15.34,5.08-5,5.92.46,19.88.46,19.88s-1.91-.09-9.89-.25l-1,0c-8.84-.18-9.92,17.9-3.47,30.3a13.52,13.52,0,0,0,2.75,3.7c7.37,6.9,19.67.84,19.67.84-2.9,4.34,1.66,20.08,15.31,19.32a15.31,15.31,0,0,0,1.62-.16c22.86-3.3,13.75-22.2,16.93-21.79,10.54,1.39,20.6-13.12,16.18-27.46S375,398.88,375,398.88Zm-44.35,6.49a5.06,5.06,0,0,1,.83-.44c2.23-.93,5.31-.54,7.93-.13,1.29.2,2.47.41,3.38.48,3.76.25,2.18-4.14,2.18-4.14-2.82-5-3.06-12.57,1.92-17.89,2.6-2.78,9.07-3.13,14.41-2.33.73.11,1.42.24,2.09.39a18.66,18.66,0,0,1,4.22,1.37,10.75,10.75,0,0,1,4.49,4.87,14.42,14.42,0,0,1,1,2.52c.6,2.16.59,4.25-.2,5.51a50.05,50.05,0,0,0-3.21,5.26A5.18,5.18,0,0,0,369,404a2,2,0,0,0,.55,1,1.93,1.93,0,0,0,1,.58c2,.46,4.53-2,6-3.27,1.07-.88,6.46-1.45,11.38-.48h0a8.64,8.64,0,0,1,2.19.56c2.49.78,4.65,2.05,5.76,4,3.49,6.18-.68,15.57-4.35,19.5-5.24,5.6-9.54,2-11.57,1.51a1.14,1.14,0,0,0-.35,0,1,1,0,0,1-.28.05.9.9,0,0,0-.28.18c-.95.9-.57,4.08-.19,5.25.47,1.44.41,6.27-.67,12-.85,4.46-7.13,6.05-11.32,6.26a13.24,13.24,0,0,1-2.86-.14c-10.18-1.93-11.63-11.36-10.93-13.82a16.82,16.82,0,0,1,1.67-3.26c.87-1.56,1.49-3.14.25-4.53-.76-.86-1.26-1.06-1.76-.82-.9.42-1.79,2.27-4.1,4.33-3.61,3.22-11.78,3.14-16.26-1.37a12.94,12.94,0,0,1-2.71-4.56c-2.33-6-2.88-14.95-1.44-19.14a4.78,4.78,0,0,1,.91-1.6A4.48,4.48,0,0,1,330.63,405.37Z" style="fill:#D4AF37"></path><g style="opacity:0.30000000000000004"><path d="M375,398.88s3.7-2.09.88-12.95c-1.63-6.29-10.54-9.63-19.13-9.72h0c-6.27-.07-12.37,1.57-15.34,5.08-5,5.92.46,19.88.46,19.88s-1.91-.09-9.89-.25l-1,0c-8.84-.18-9.92,17.9-3.47,30.3a13.52,13.52,0,0,0,2.75,3.7c7.37,6.9,19.67.84,19.67.84-2.9,4.34,1.66,20.08,15.31,19.32a15.31,15.31,0,0,0,1.62-.16c22.86-3.3,13.75-22.2,16.93-21.79,10.54,1.39,20.6-13.12,16.18-27.46S375,398.88,375,398.88Zm-44.35,6.49a5.06,5.06,0,0,1,.83-.44c2.23-.93,5.31-.54,7.93-.13,1.29.2,2.47.41,3.38.48,3.76.25,2.18-4.14,2.18-4.14-2.82-5-3.06-12.57,1.92-17.89,2.6-2.78,9.07-3.13,14.41-2.33.73.11,1.42.24,2.09.39a18.66,18.66,0,0,1,4.22,1.37,10.75,10.75,0,0,1,4.49,4.87,14.42,14.42,0,0,1,1,2.52c.6,2.16.59,4.25-.2,5.51a50.05,50.05,0,0,0-3.21,5.26A5.18,5.18,0,0,0,369,404a2,2,0,0,0,.55,1,1.93,1.93,0,0,0,1,.58c2,.46,4.53-2,6-3.27,1.07-.88,6.46-1.45,11.38-.48h0a8.64,8.64,0,0,1,2.19.56c2.49.78,4.65,2.05,5.76,4,3.49,6.18-.68,15.57-4.35,19.5-5.24,5.6-9.54,2-11.57,1.51a1.14,1.14,0,0,0-.35,0,1,1,0,0,1-.28.05.9.9,0,0,0-.28.18c-.95.9-.57,4.08-.19,5.25.47,1.44.41,6.27-.67,12-.85,4.46-7.13,6.05-11.32,6.26a13.24,13.24,0,0,1-2.86-.14c-10.18-1.93-11.63-11.36-10.93-13.82a16.82,16.82,0,0,1,1.67-3.26c.87-1.56,1.49-3.14.25-4.53-.76-.86-1.26-1.06-1.76-.82-.9.42-1.79,2.27-4.1,4.33-3.61,3.22-11.78,3.14-16.26-1.37a12.94,12.94,0,0,1-2.71-4.56c-2.33-6-2.88-14.95-1.44-19.14a4.78,4.78,0,0,1,.91-1.6A4.48,4.48,0,0,1,330.63,405.37Z"></path></g><path d="M374.25,397.26s3.7-2.09.88-12.95c-1.63-6.29-10.53-9.63-19.13-9.72h0c-6.27-.08-12.37,1.57-15.34,5.07-5,5.93.46,19.89.46,19.89s-1.91-.09-9.89-.25l-1,0c-8.84-.18-9.92,17.9-3.47,30.3a13.52,13.52,0,0,0,2.75,3.7c7.37,6.9,19.67.84,19.67.84-2.9,4.34,1.66,20.08,15.31,19.32a15.31,15.31,0,0,0,1.62-.16C389,450,379.84,431.07,383,431.48c10.54,1.39,20.6-13.12,16.18-27.46S374.25,397.26,374.25,397.26Zm-44.35,6.49a5.06,5.06,0,0,1,.83-.44c2.23-.93,5.31-.55,7.93-.13,1.29.2,2.47.41,3.38.48,3.76.25,2.18-4.14,2.18-4.14-2.82-5-3.06-12.57,1.92-17.9,2.6-2.77,9.07-3.12,14.41-2.32.73.11,1.42.24,2.09.39a18.66,18.66,0,0,1,4.22,1.37,10.75,10.75,0,0,1,4.49,4.87,13.86,13.86,0,0,1,1,2.51c.6,2.17.6,4.26-.2,5.51a50.21,50.21,0,0,0-3.21,5.27,5.17,5.17,0,0,0-.63,3.12,2,2,0,0,0,.55,1,1.88,1.88,0,0,0,1,.59c2,.46,4.53-2,6-3.27,1.07-.88,6.46-1.45,11.38-.48h0a9.1,9.1,0,0,1,2.19.55c2.49.79,4.65,2.06,5.76,4,3.49,6.18-.68,15.57-4.35,19.5-5.24,5.6-9.54,2-11.57,1.51a.9.9,0,0,0-.35,0,1,1,0,0,1-.28,0,.75.75,0,0,0-.28.18c-1,.9-.57,4.08-.19,5.25.47,1.44.41,6.27-.67,12-.85,4.47-7.13,6.06-11.32,6.27a13.24,13.24,0,0,1-2.86-.14c-10.18-1.93-11.63-11.36-10.93-13.82a17.17,17.17,0,0,1,1.67-3.27c.87-1.55,1.49-3.13.25-4.52-.76-.86-1.26-1.06-1.76-.82-.9.42-1.79,2.27-4.1,4.33-3.61,3.22-11.78,3.13-16.26-1.37a12.94,12.94,0,0,1-2.71-4.56c-2.33-6-2.88-14.95-1.44-19.14a4.69,4.69,0,0,1,.91-1.6A4.48,4.48,0,0,1,329.9,403.75Z" style="fill:#D4AF37"></path></g><g id="freepik--Meat--inject-168"><path d="M388.89,242.87c-5.89-1.23-10.47-5.86-14-10.74-3.08-4.27-5.75-9.32-5.17-14.57.61-5.44,4.55-9.83,8.29-13.82l15.26-16.27c5.76-6.14,12.86-12.81,21.23-11.84s14,9.76,14,18.11-4.56,16-9.89,22.48l-15.93,19.92C397.36,243.85,394.78,244.09,388.89,242.87Z" style="fill:#ae7461"></path><g style="opacity:0.1"><path d="M378,203.81l.06-.07,7-7.41A66.55,66.55,0,0,0,405.16,233l-2.51,3.14c-.62.91-1.2,1.7-1.76,2.41A56.57,56.57,0,0,1,378,203.81Z" style="fill:#fff"></path></g><g style="opacity:0.1"><path d="M392.56,188.53l0-.31.7-.75c.69-.74,1.41-1.49,2.14-2.23a17.15,17.15,0,0,1,1.72,2.27q10,15.19,20.09,30.39l-2,2.53C405.9,211.28,402.51,197.05,392.56,188.53Z" style="fill:#fff"></path></g><path d="M425.58,205.53c-2.15-2.35-5.82-6.27-9.74-9.95-6.12-5.77-9.73-18.45-9.74-18.47a17.41,17.41,0,0,1,4-1.31c1.28,4.17,4.39,13.75,7.06,17.86,2.22,3.43,6.55,7.25,9.36,9.54C426.27,204,425.94,204.77,425.58,205.53Z" style="fill:#fff;opacity:0.1"></path><path d="M389.73,242.15c0-.05.78-.44,2.11-1.34a34.27,34.27,0,0,0,5.2-4.35c4.1-4,8.49-10.69,13.53-17.88a189.32,189.32,0,0,0,11.87-19.06c1.36-2.53,2.33-4.65,3-6.1l.76-1.69a2.64,2.64,0,0,1,.3-.57,2.78,2.78,0,0,1-.2.61l-.68,1.73c-.63,1.48-1.55,3.63-2.87,6.19A168.35,168.35,0,0,1,411,218.88c-5,7.18-9.49,13.84-13.7,17.85A30.93,30.93,0,0,1,392,241a15.29,15.29,0,0,1-1.63.9A2.89,2.89,0,0,1,389.73,242.15Z" style="fill:#6f4439"></path><path d="M386.32,204.84c.14,0,.41,6.78.6,15.14s.23,15.15.09,15.15-.42-6.77-.61-15.14S386.17,204.85,386.32,204.84Z" style="fill:#6f4439"></path><path d="M398.29,197c.14,0,.39,6,.54,13.4s.17,13.41,0,13.42-.39-6-.55-13.41S398.14,197,398.29,197Z" style="fill:#6f4439"></path><path d="M408.29,185.12a4.46,4.46,0,0,1,.1,1.13c0,.73.05,1.79.05,3.09,0,2.62-.07,6.22-.29,10.2s-.55,7.58-.85,10.17c-.15,1.3-.28,2.35-.39,3.07a5.6,5.6,0,0,1-.22,1.12,4.36,4.36,0,0,1,0-1.14c.06-.84.14-1.87.23-3.08.2-2.6.46-6.19.69-10.17s.35-7.57.44-10.17q.07-1.83.12-3.09A5.14,5.14,0,0,1,408.29,185.12Z" style="fill:#6f4439"></path><path d="M399.42,183.44a6.13,6.13,0,0,1,1.49-1.47,21.13,21.13,0,0,1,4.28-2.69,21.39,21.39,0,0,1,4.79-1.6,6.58,6.58,0,0,1,2.08-.22,49.24,49.24,0,0,0-6.65,2.3A47.74,47.74,0,0,0,399.42,183.44Z" style="fill:#fff"></path></g><g id="freepik--Tomatoes--inject-168"><path d="M130.37,344.36,73.08,390.53a4.31,4.31,0,0,0-.83,5.82c3.71,5.28,9.36,10.34,17.5,14.84,41.38,22.9,67.36-20,61.61-45-1.84-8-7.58-16.22-15.83-22A4.29,4.29,0,0,0,130.37,344.36Z" style="fill:#D4AF37"></path><path d="M130.37,344.36,73.08,390.53a4.31,4.31,0,0,0-.83,5.82c3.71,5.28,9.36,10.34,17.5,14.84,41.38,22.9,67.36-20,61.61-45-1.84-8-7.58-16.22-15.83-22A4.29,4.29,0,0,0,130.37,344.36Z" style="opacity:0.30000000000000004"></path><path d="M127.33,341.59,70.05,387.76a4.31,4.31,0,0,0-.83,5.82c3.7,5.28,9.35,10.33,17.49,14.83,41.38,22.9,67.36-20,61.62-45-1.85-8-7.59-16.22-15.83-22A4.31,4.31,0,0,0,127.33,341.59Z" style="fill:#D4AF37"></path><path d="M122.52,347.1c1.48-2.14,20.15,4.57,20.07,20.14s-4.46,27.2-11.37,27.57-15.54-12.33-15.89-24S120.74,349.67,122.52,347.1Z" style="opacity:0.30000000000000004"></path><path d="M76,387c.11-3,15.84-11.62,26.29-9.69s22.54,19.21,22.11,23.8c-.45,4.76-19.93,7.28-29.66,4S75.86,391.43,76,387Z" style="opacity:0.30000000000000004"></path><path d="M95.07,382.23c-1.26-1.33-13.27,6.64-10.58,9.36S97.78,385.1,95.07,382.23Z" style="fill:#D4AF37"></path><path d="M110.66,388.63c1.68-.48,7.6,12.38,3.21,12.57S109,389.11,110.66,388.63Z" style="fill:#D4AF37"></path><path d="M103.55,385c2.09.41.19,17.22-5.47,16.64S101.46,384.57,103.55,385Z" style="fill:#D4AF37"></path><path d="M121.8,365.68c-1-3.19,14.44-7,14.9-3.65S123.15,369.92,121.8,365.68Z" style="fill:#D4AF37"></path><path d="M121.69,359.49c1.72,1.42,9.64-5,7.37-7S120,358.06,121.69,359.49Z" style="fill:#D4AF37"></path><path d="M120.89,372.19c-.14,1.28,13.73,4.48,13.31,1.75S121.26,369,120.89,372.19Z" style="fill:#D4AF37"></path><path d="M119.06,377.48c-1.52,2.42,6.84,11.72,9,9.75S121.24,374,119.06,377.48Z" style="fill:#D4AF37"></path><path d="M115.88,352.8a7.06,7.06,0,0,1-.94,1.13c-.63.7-1.57,1.69-2.75,2.88-2.37,2.4-5.75,5.6-9.7,8.9s-7.7,6.05-10.48,8c-1.39.95-2.53,1.7-3.33,2.19a7.78,7.78,0,0,1-1.27.73,7.35,7.35,0,0,1,1.15-.89l3.24-2.33c2.72-2,6.42-4.77,10.36-8.05s7.35-6.44,9.77-8.76l2.87-2.77A9.22,9.22,0,0,1,115.88,352.8Z" style="fill:#fff"></path><path d="M323.59,39.11c-17.37,1.85-50,25.72-22.42,59.81s64.81,6.31,68.6-17.16C372.75,63.27,355.92,35.67,323.59,39.11Z" style="fill:#D4AF37"></path><path d="M323.59,39.11c-17.37,1.85-50,25.72-22.42,59.81s64.81,6.31,68.6-17.16C372.75,63.27,355.92,35.67,323.59,39.11Z" style="opacity:0.30000000000000004"></path><path d="M323.59,35.15c-17.37,1.84-50,25.71-22.42,59.8s64.81,6.31,68.6-17.16C372.75,59.3,355.92,31.71,323.59,35.15Z" style="fill:#D4AF37"></path><path d="M302.44,61.14c-1.89-2.58,2.24-14,16.83-18.79s25.53,2,24.41,4.2S340.59,60,326.56,63.11C313.46,66,304.68,64.23,302.44,61.14Z" style="opacity:0.30000000000000004"></path><path d="M353.21,56.09c2.11-1.17,14.87,12.07,8.42,25s-14.87,20.76-20.76,18.24S333,82.68,337.5,72.86,350.69,57.5,353.21,56.09Z" style="opacity:0.30000000000000004"></path><path d="M298.23,70.12c1.33-2.47,17.92-3.15,25.81,2.74s10.84,25.21,8.6,28.85-19.54-2.13-26.28-8.87S296.26,73.77,298.23,70.12Z" style="opacity:0.30000000000000004"></path><path d="M307.77,52.62c-2.44,2.22,4.77,10.21,5.89,8.24S309.73,50.83,307.77,52.62Z" style="fill:#D4AF37"></path><path d="M315.52,47.11c-1.4.49,2.07,15.49,5.43,14.06S317.94,46.27,315.52,47.11Z" style="fill:#D4AF37"></path><path d="M324.88,44.59c-1.4.56.28,9.9,3.09,9.58S326.28,44,324.88,44.59Z" style="fill:#D4AF37"></path><path d="M335,43.47c-3.36,0-2.83,13,0,13.3S339.67,43.47,335,43.47Z" style="fill:#D4AF37"></path><path d="M316,74c-.5-1.62-13.75.07-12.63,3.44S317.07,77.51,316,74Z" style="fill:#D4AF37"></path><path d="M326.32,85.72c1.6.3,1.24,13.41-2.49,11.76S324.72,85.43,326.32,85.72Z" style="fill:#D4AF37"></path><path d="M321.91,79.78C323.48,81,315,94.17,310.54,91.37S320.35,78.58,321.91,79.78Z" style="fill:#D4AF37"></path><path d="M345,71.24c.46-3.08,14.86.1,13.87,3.07S344.38,75.31,345,71.24Z" style="fill:#D4AF37"></path><path d="M347.44,66c.85,1.89,10.05-.17,9-2.75S346.6,64.15,347.44,66Z" style="fill:#D4AF37"></path><path d="M341.57,76.27c-.64,1,9.57,9.35,10.33,6.91S343.18,73.77,341.57,76.27Z" style="fill:#D4AF37"></path><path d="M337.88,79.91c-2.26,1.39.87,12.54,3.47,11.79S341.11,77.92,337.88,79.91Z" style="fill:#D4AF37"></path><path d="M321.18,37.06c0,.1-1.66.42-4.22,1.38a34,34,0,0,0-4.35,2,33.77,33.77,0,0,0-9.12,7.29,34.56,34.56,0,0,0-2.92,3.81c-1.49,2.29-2.18,3.85-2.27,3.81a4.67,4.67,0,0,1,.43-1.12,13.93,13.93,0,0,1,.61-1.27c.27-.48.54-1,.92-1.62a31.28,31.28,0,0,1,2.86-3.92A32.12,32.12,0,0,1,312.38,40a30.38,30.38,0,0,1,4.46-1.92,18,18,0,0,1,1.78-.54,12.55,12.55,0,0,1,1.37-.33A5.17,5.17,0,0,1,321.18,37.06Z" style="fill:#fff"></path><path d="M338.61,38.25c-.05.15-1.77-.37-3.94-.67s-4-.26-4-.42a12.78,12.78,0,0,1,7.92,1.09Z" style="fill:#fff"></path><path d="M340.78,60.61a19.08,19.08,0,0,1-5.46,2.8,18.89,18.89,0,0,1-6,1.43c0-.15,2.64-.74,5.79-1.91S340.7,60.47,340.78,60.61Z" style="fill:#fff"></path></g><g id="freepik--Shawarma--inject-168"><path d="M306.75,152.88c1.22-4.71,2.18-9.62,1.41-14.43s-3.59-9.53-8.09-11.4c-4.13-1.72-9-.85-13.06-2.82s-6.14-6.12-7.64-10.22-2.59-8.47-5.29-11.91a15.34,15.34,0,0,0-24.72.8c-1.53,2.24-2.45,4.84-3.85,7.17s-3.53,4.47-6.23,4.83c-5.83.78-9.87-6.78-15.75-7-3.47-.15-6.59,2.43-8.13,5.54s-1.84,6.67-2.1,10.13c-1.27,16.61-2.51,33.58,1.74,49.68,2.55,26.34,14.4,48.23,34.42,66.22C280.6,226.45,301.25,174.08,306.75,152.88Z" style="fill:#455a64"></path><path d="M216.08,131a2.38,2.38,0,0,1-.23-.8,17.59,17.59,0,0,1-.29-2.24,22.43,22.43,0,0,1,3.94-14.15,16.4,16.4,0,0,1,1.41-1.77c.36-.39.57-.59.6-.57s-.7,1-1.7,2.54a25,25,0,0,0-3.88,13.93C216,129.81,216.17,131,216.08,131Z" style="fill:#fff"></path><path d="M254.4,102.84a30.69,30.69,0,0,0-4.62,6,31,31,0,0,0-2.54,7.1,6.65,6.65,0,0,1,.21-2.24,18.11,18.11,0,0,1,5.17-9.43A6.67,6.67,0,0,1,254.4,102.84Z" style="fill:#fff"></path><path d="M275.89,145a13.5,13.5,0,0,1,.57-3.65,13.47,13.47,0,0,1,1.08-3.54,13.13,13.13,0,0,1-.57,3.66A13.48,13.48,0,0,1,275.89,145Z" style="fill:#fff"></path><path d="M253,224.61a1.29,1.29,0,0,1,0-.29v-.85c0-.78.05-1.87.09-3.26.07-2.83.23-6.92.47-12,.48-10.12,1.34-24.08,2.71-39.48s3-29.29,4.33-39.33c.66-5,1.23-9.08,1.65-11.88.22-1.37.38-2.45.5-3.22.06-.35.11-.62.14-.84a1.24,1.24,0,0,1,.07-.28,1.59,1.59,0,0,1,0,.29c0,.22-.06.49-.1.84-.09.78-.23,1.86-.4,3.24-.35,2.84-.86,6.9-1.49,11.89-1.23,10-2.79,23.95-4.17,39.34s-2.29,29.34-2.86,39.45c-.27,5-.49,9.11-.64,12-.08,1.39-.14,2.48-.18,3.26,0,.35,0,.63-.06.85A1.18,1.18,0,0,1,253,224.61Z" style="fill:#263238"></path><path d="M294.71,140.65a2.78,2.78,0,0,1-.38.43l-1.16,1.17-4.28,4.26c-3.61,3.6-8.55,8.63-13.86,14.33s-10,11-13.31,14.84c-1.64,1.89-3,3.44-4,4.58l-1.09,1.23a2.71,2.71,0,0,1-.4.41,2.52,2.52,0,0,1,.32-.48l1-1.29c.88-1.13,2.19-2.73,3.83-4.69,3.27-3.92,7.9-9.25,13.21-15s10.3-10.69,14-14.23c1.84-1.77,3.35-3.19,4.4-4.15l1.23-1.1A2.1,2.1,0,0,1,294.71,140.65Z" style="fill:#263238"></path><path d="M253.64,171.08a2.65,2.65,0,0,1-.28-.52l-.71-1.53c-.6-1.33-1.49-3.25-2.61-5.61-2.24-4.71-5.52-11.14-9.56-18s-8.09-12.85-11.13-17.1c-1.51-2.12-2.76-3.83-3.64-5l-1-1.36a3.08,3.08,0,0,1-.32-.49s.16.13.4.43.64.77,1.07,1.3c.93,1.13,2.22,2.81,3.78,4.91a198.61,198.61,0,0,1,11.28,17.05,196.54,196.54,0,0,1,9.44,18.12c1.09,2.38,1.93,4.32,2.47,5.68.25.64.45,1.16.62,1.57A2.49,2.49,0,0,1,253.64,171.08Z" style="fill:#263238"></path><path d="M240.27,145.65a62.23,62.23,0,0,1-8-1.49,63.12,63.12,0,0,1-7.87-2,63.19,63.19,0,0,1,8,1.48A65.23,65.23,0,0,1,240.27,145.65Z" style="fill:#263238"></path><path d="M254.1,113.7a4.16,4.16,0,0,1,.37.93c.21.62.49,1.51.81,2.62.65,2.22,1.46,5.31,2.2,8.77s1.26,6.61,1.57,8.9c.16,1.14.27,2.07.32,2.72a3.47,3.47,0,0,1,0,1,30.8,30.8,0,0,1-.72-3.66c-.41-2.28-1-5.41-1.72-8.85s-1.48-6.54-2-8.78A27.9,27.9,0,0,1,254.1,113.7Z" style="fill:#263238"></path><path d="M283.94,135.09a4.14,4.14,0,0,1-.37,1.07c-.33.77-.72,1.72-1.19,2.83-1,2.39-2.38,5.69-3.81,9.37s-2.67,7-3.55,9.47q-.61,1.71-1,2.88a5,5,0,0,1-.44,1,5.32,5.32,0,0,1,.25-1.1c.19-.7.5-1.7.89-2.94.79-2.47,2-5.85,3.41-9.54s2.87-7,4-9.33c.54-1.18,1-2.12,1.33-2.77A5.33,5.33,0,0,1,283.94,135.09Z" style="fill:#263238"></path><path d="M275.59,185.47a4.73,4.73,0,0,1-.8.74c-.63.52-1.4,1.15-2.29,1.9-1.94,1.59-4.59,3.81-7.46,6.35s-5.4,4.9-7.22,6.63l-2.15,2a4.39,4.39,0,0,1-.84.7,4.58,4.58,0,0,1,.69-.85c.47-.52,1.17-1.26,2-2.16,1.75-1.79,4.25-4.21,7.12-6.75s5.58-4.73,7.58-6.25c1-.76,1.82-1.37,2.39-1.77A4.51,4.51,0,0,1,275.59,185.47Z" style="fill:#263238"></path><path d="M253.81,207a5.3,5.3,0,0,1-.9-.71c-.55-.48-1.34-1.18-2.29-2.07-1.92-1.78-4.53-4.28-7.33-7.11s-5.28-5.47-7-7.4c-.87-1-1.57-1.76-2-2.32a4.83,4.83,0,0,1-.69-.9s.33.24.84.76l2.17,2.2,7.13,7.29,7.21,7.21,2.18,2.19A5.17,5.17,0,0,1,253.81,207Z" style="fill:#263238"></path><g style="opacity:0.30000000000000004"><path d="M306.75,152.88c1.22-4.71,2.18-9.62,1.41-14.43s-3.59-9.53-8.09-11.4c-4.13-1.72-9-.85-13.06-2.82s-6.14-6.12-7.64-10.22-2.59-8.47-5.29-11.91a15.34,15.34,0,0,0-24.72.8c-1.53,2.24-2.45,4.84-3.85,7.17s-3.53,4.47-6.23,4.83c-5.83.78-9.87-6.78-15.75-7-3.47-.15-6.59,2.43-8.13,5.54s-1.84,6.67-2.1,10.13c-1.27,16.61-2.51,33.58,1.74,49.68,2.55,26.34,14.4,48.23,34.42,66.22C280.6,226.45,301.25,174.08,306.75,152.88Z"></path></g><path d="M237.85,119.76c-17.37,1.85-50,25.72-22.42,59.8s64.81,6.32,68.6-17.15C287,143.91,270.18,116.32,237.85,119.76Z" style="fill:#D4AF37"></path><path d="M237.85,119.76c-17.37,1.85-50,25.72-22.42,59.8s64.81,6.32,68.6-17.15C287,143.91,270.18,116.32,237.85,119.76Z" style="opacity:0.30000000000000004"></path><path d="M237.85,115.79c-17.37,1.85-50,25.72-22.42,59.81s64.81,6.31,68.6-17.16C287,140,270.18,112.35,237.85,115.79Z" style="fill:#D4AF37"></path><path d="M216.7,141.79c-1.89-2.59,2.24-14,16.83-18.8s25.53,2,24.41,4.21-3.09,13.47-17.12,16.55C227.72,146.63,218.94,144.88,216.7,141.79Z" style="opacity:0.30000000000000004"></path><path d="M267.47,136.74c2.11-1.17,14.87,12.06,8.42,25S261,182.47,255.13,179.94s-7.86-16.61-3.37-26.43S265,138.14,267.47,136.74Z" style="opacity:0.30000000000000004"></path><path d="M212.49,150.77c1.33-2.47,17.92-3.15,25.81,2.74s10.84,25.21,8.6,28.84-19.54-2.13-26.28-8.86S210.52,154.41,212.49,150.77Z" style="opacity:0.30000000000000004"></path><path d="M222,133.27c-2.44,2.22,4.77,10.2,5.89,8.24S224,131.48,222,133.27Z" style="fill:#D4AF37"></path><path d="M229.78,127.76c-1.4.49,2.07,15.49,5.43,14.06S232.2,126.92,229.78,127.76Z" style="fill:#D4AF37"></path><path d="M239.14,125.24c-1.4.56.28,9.9,3.08,9.58S240.54,124.68,239.14,125.24Z" style="fill:#D4AF37"></path><path d="M249.3,124.12c-3.36,0-2.83,13,0,13.29S253.93,124.12,249.3,124.12Z" style="fill:#D4AF37"></path><path d="M230.26,154.66c-.5-1.62-13.75.07-12.63,3.43S231.33,158.15,230.26,154.66Z" style="fill:#D4AF37"></path><path d="M240.58,166.37c1.6.3,1.24,13.41-2.49,11.76S239,166.08,240.58,166.37Z" style="fill:#D4AF37"></path><path d="M236.17,160.43c1.57,1.2-6.91,14.39-11.37,11.58S234.61,159.22,236.17,160.43Z" style="fill:#D4AF37"></path><path d="M259.26,151.88c.46-3.07,14.86.11,13.87,3.08S258.64,156,259.26,151.88Z" style="fill:#D4AF37"></path><path d="M261.7,146.69c.85,1.89,10.05-.17,9-2.76S260.86,144.8,261.7,146.69Z" style="fill:#D4AF37"></path><path d="M255.83,156.92c-.64,1,9.57,9.35,10.33,6.91S257.44,154.41,255.83,156.92Z" style="fill:#D4AF37"></path><path d="M252.14,160.55c-2.26,1.4.87,12.55,3.47,11.8S255.37,158.57,252.14,160.55Z" style="fill:#D4AF37"></path><path d="M343.43,199.24c2.43-4.22,4.66-8.7,5.18-13.54s-.94-10.15-4.79-13.14c-3.53-2.75-8.49-3.21-11.84-6.17s-4.31-7.53-4.67-11.88-.26-8.85-1.95-12.88a15.33,15.33,0,0,0-24-5.78c-2.08,1.76-3.65,4-5.62,5.9s-4.59,3.38-7.28,3c-5.84-.79-7.73-9.16-13.33-11-3.31-1.07-7,.6-9.31,3.19s-3.53,5.95-4.7,9.22c-5.62,15.67-11.31,31.72-11.46,48.37-4.52,26.07,1.12,50.32,15.67,73C298.75,263.27,332.52,218.23,343.43,199.24Z" style="fill:#455a64"></path><path d="M261.78,154.14a3,3,0,0,1,0-.83,14.91,14.91,0,0,1,.31-2.24,22.47,22.47,0,0,1,7.54-12.6,16.06,16.06,0,0,1,1.82-1.33,2.62,2.62,0,0,1,.74-.39c.05.07-.93.73-2.32,2a25.17,25.17,0,0,0-7.42,12.41C262,153,261.87,154.15,261.78,154.14Z" style="fill:#fff"></path><path d="M306.19,137.13a23.93,23.93,0,0,0-10.36,10.7,6.84,6.84,0,0,1,.79-2.11,18.47,18.47,0,0,1,3.16-4.43,17.87,17.87,0,0,1,4.33-3.3A6.9,6.9,0,0,1,306.19,137.13Z" style="fill:#fff"></path><path d="M315.77,183.44a12.9,12.9,0,0,1,1.52-3.37,13.35,13.35,0,0,1,2-3.13,12.9,12.9,0,0,1-1.52,3.37A13.35,13.35,0,0,1,315.77,183.44Z" style="fill:#fff"></path><path d="M272.61,254.19a1,1,0,0,1,.06-.28c.06-.21.13-.48.23-.82.23-.75.54-1.79.94-3.12.83-2.71,2.06-6.61,3.63-11.43,3.13-9.63,7.66-22.87,13.06-37.35s10.64-27.46,14.58-36.8c2-4.66,3.58-8.43,4.73-11l1.33-3c.15-.31.27-.57.36-.77s.13-.26.14-.25a1,1,0,0,1-.09.27l-.31.79c-.3.73-.71,1.74-1.24,3-1.1,2.65-2.66,6.42-4.58,11.08-3.85,9.36-9,22.35-14.43,36.83s-10,27.69-13.2,37.29c-1.59,4.77-2.88,8.65-3.79,11.37l-1,3.1c-.12.32-.21.59-.28.8A2,2,0,0,1,272.61,254.19Z" style="fill:#263238"></path><path d="M335.06,184.25a2.07,2.07,0,0,1-.48.32l-1.43.82-5.26,3c-4.43,2.52-10.53,6.06-17.15,10.15s-12.53,8-16.77,10.79l-5,3.37-1.38.91a1.86,1.86,0,0,1-.5.28,2.68,2.68,0,0,1,.44-.37l1.32-1c1.15-.85,2.83-2.05,4.93-3.51,4.19-2.92,10.06-6.83,16.69-10.93s12.77-7.59,17.25-10c2.25-1.22,4.07-2.19,5.35-2.83l1.47-.74A3.49,3.49,0,0,1,335.06,184.25Z" style="fill:#263238"></path><path d="M287.4,202.74a2.64,2.64,0,0,1-.13-.57c-.07-.44-.17-1-.28-1.66-.23-1.45-.57-3.53-1-6.1-.92-5.15-2.38-12.21-4.46-19.9s-4.4-14.54-6.21-19.44c-.9-2.45-1.65-4.42-2.18-5.78-.25-.64-.44-1.16-.6-1.58a3.4,3.4,0,0,1-.18-.56,2.29,2.29,0,0,1,.28.52c.18.41.4.92.68,1.54.6,1.34,1.4,3.3,2.35,5.73A197.2,197.2,0,0,1,282,174.37a199.06,199.06,0,0,1,4.32,20c.41,2.59.71,4.68.87,6.14.07.68.14,1.23.18,1.67A2.2,2.2,0,0,1,287.4,202.74Z" style="fill:#263238"></path><path d="M281.23,174.68a63.21,63.21,0,0,1-7.31-3.55,63.61,63.61,0,0,1-7.06-4,64,64,0,0,1,7.31,3.54A62.65,62.65,0,0,1,281.23,174.68Z" style="fill:#263238"></path><path d="M303,147.52a3.34,3.34,0,0,1,.11,1c.05.64.08,1.58.1,2.73,0,2.32,0,5.51-.21,9s-.53,6.71-.83,9c-.16,1.14-.3,2.07-.41,2.71a4,4,0,0,1-.23,1,29.62,29.62,0,0,1,.27-3.73c.21-2.3.48-5.48.68-9s.3-6.7.36-9A28.74,28.74,0,0,1,303,147.52Z" style="fill:#263238"></path><path d="M326.14,176.05a4.1,4.1,0,0,1-.64.93l-1.89,2.42c-1.6,2-3.8,4.85-6.16,8s-4.43,6.08-5.92,8.2l-1.78,2.5a4.7,4.7,0,0,1-.7.89,4.86,4.86,0,0,1,.53-1c.38-.62.93-1.51,1.64-2.6,1.42-2.17,3.45-5.12,5.81-8.3s4.62-6,6.29-7.94c.84-1,1.53-1.78,2-2.32A5.84,5.84,0,0,1,326.14,176.05Z" style="fill:#263238"></path><path d="M304.76,222.42a3.62,3.62,0,0,1-1,.51l-2.71,1.22c-2.29,1-5.44,2.47-8.87,4.15s-6.5,3.3-8.71,4.48l-2.62,1.4a4.13,4.13,0,0,1-1,.46,4.94,4.94,0,0,1,.9-.63c.59-.39,1.46-.91,2.54-1.55,2.17-1.26,5.22-2.93,8.66-4.63s6.63-3.08,9-4c1.16-.47,2.11-.83,2.77-1.07A5.49,5.49,0,0,1,304.76,222.42Z" style="fill:#263238"></path><path d="M278.05,237.45a4.66,4.66,0,0,1-.67-.92c-.41-.6-1-1.49-1.67-2.6-1.38-2.22-3.23-5.32-5.18-8.79s-3.65-6.67-4.82-9c-.59-1.17-1.06-2.12-1.36-2.78a4.06,4.06,0,0,1-.43-1.06,5.94,5.94,0,0,1,.61,1L266,216l5,8.92,5,8.86,1.52,2.69A4.3,4.3,0,0,1,278.05,237.45Z" style="fill:#263238"></path><path d="M304.81,241.29l-12.32-3.78a.34.34,0,0,1-.22-.4l13-47.59,11.27-42.35a.33.33,0,0,1,.41-.23l15.37,4.72a.33.33,0,0,1,.22.4l-27.32,89A.33.33,0,0,1,304.81,241.29Z" style="fill:#fb6"></path><path d="M328.81,156.66a4.55,4.55,0,0,1-2.45.15,15.35,15.35,0,0,1-2.59-.57c-.48-.15-1-.32-1.49-.52a5.22,5.22,0,0,1-1.55-.8,16.31,16.31,0,0,1-3.24-4.94,15.62,15.62,0,0,1-1-2.2,8.65,8.65,0,0,1,1.33,2,19.23,19.23,0,0,0,3.27,4.72,5.21,5.21,0,0,0,1.39.72c.49.2,1,.38,1.44.53a18.53,18.53,0,0,0,2.51.66A19.79,19.79,0,0,0,328.81,156.66Z" style="fill:#263238"></path><path d="M295.37,235a6.86,6.86,0,0,1,.21-.83c.17-.59.39-1.37.68-2.36.61-2,1.52-5,2.66-8.61,2.29-7.26,5.52-17.26,9.13-28.29s6.89-21,9.27-28.25l2.82-8.56.77-2.32a5.08,5.08,0,0,1,.31-.8,4.74,4.74,0,0,1-.2.83l-.69,2.35c-.61,2-1.51,5-2.66,8.61-2.29,7.26-5.52,17.26-9.13,28.3s-6.88,21-9.27,28.24l-2.82,8.56c-.32,1-.58,1.75-.77,2.33A5.69,5.69,0,0,1,295.37,235Z" style="fill:#263238"></path><g style="opacity:0.30000000000000004"><path d="M307.58,174.35a16,16,0,0,0-4.31-6.81,28.37,28.37,0,0,0-29.09-6.49c-3.57,1.29-7,3.45-8.93,6.73-2.09,3.55-2.18,7.89-2.22,12q-.11,14.12-.22,28.24L274,211.77a5.06,5.06,0,0,1-2.72-4.19,16.63,16.63,0,0,1,.58-5.19,93.29,93.29,0,0,0,.43-36,27.59,27.59,0,0,1,34,15.73A8.76,8.76,0,0,0,307.58,174.35Z"></path></g><path d="M260,226.68c-6.17,2.7-13.34,1.44-19.72-.73-5.59-1.9-11.3-4.77-14.16-9.94-3-5.35-2.23-11.92-1.4-18q1.68-12.37,3.37-24.73c1.27-9.34,3.42-20,11.69-24.56s19.12-.19,24.48,7.46,6.23,17.6,5.54,26.91l-1.61,28.51C268.35,222.08,266.14,224,260,226.68Z" style="fill:#ae7461"></path><g style="opacity:0.1"><path d="M224.68,198.13l0-.1,1.53-11.26a74.61,74.61,0,0,0,42.19,20.36l-.25,4.49c0,1.22,0,2.33,0,3.33A63.33,63.33,0,0,1,224.68,198.13Z" style="fill:#fff"></path></g><g style="opacity:0.1"><path d="M228.1,174.73l-.19-.3.16-1.13c.15-1.13.32-2.27.51-3.43a18.72,18.72,0,0,1,3,1l38,14.69-.2,3.62C255,186.83,242.7,176.05,228.1,174.73Z" style="fill:#fff"></path></g><path d="M269.24,168.83c-3.48-.75-9.38-2-15.34-2.77-9.32-1.28-20.83-10.51-20.85-10.52a19.15,19.15,0,0,1,2.84-3.82c3.87,3,12.92,9.69,18,11.71,4.25,1.69,10.67,2.37,14.72,2.63C268.87,167,269.07,167.9,269.24,168.83Z" style="fill:#fff;opacity:0.1"></path><path d="M260.28,225.47a4.69,4.69,0,0,1,.27-.67c.2-.43.48-1.07.79-1.91a37.3,37.3,0,0,0,1.94-7.34c1.14-6.33.83-15.27.76-25.08a210.78,210.78,0,0,0-1.54-25.09c-.41-3.19-.9-5.75-1.21-7.52-.17-.84-.3-1.52-.41-2a3.88,3.88,0,0,1-.1-.72,3.18,3.18,0,0,1,.21.69c.12.51.29,1.18.5,2,.37,1.76.92,4.32,1.38,7.51a190.45,190.45,0,0,1,1.69,25.13c.05,4.92.09,9.59,0,13.86a69.1,69.1,0,0,1-1,11.3,33.73,33.73,0,0,1-2.11,7.34,18.63,18.63,0,0,1-.89,1.88A3.38,3.38,0,0,1,260.28,225.47Z" style="fill:#6f4439"></path><path d="M233,193.66c.11-.09,4.75,5.93,10.34,13.43s10.05,13.66,9.93,13.75-4.75-5.93-10.34-13.44S232.86,193.74,233,193.66Z" style="fill:#6f4439"></path><path d="M238.8,178.73c.12-.09,4.22,5.23,9.16,11.88s8.86,12.12,8.75,12.2-4.22-5.23-9.16-11.89S238.69,178.81,238.8,178.73Z" style="fill:#6f4439"></path><path d="M240.24,161.42a5.78,5.78,0,0,1,.81,1c.5.64,1.2,1.6,2,2.79,1.7,2.38,4,5.72,6.34,9.5s4.41,7.26,5.83,9.81c.71,1.28,1.27,2.32,1.64,3.05a6.11,6.11,0,0,1,.53,1.16,6.11,6.11,0,0,1-.71-1.06l-1.78-3c-1.5-2.51-3.58-6-5.95-9.73s-4.59-7.13-6.2-9.56l-1.9-2.89A5.59,5.59,0,0,1,240.24,161.42Z" style="fill:#6f4439"></path><path d="M281.93,158.26a31.59,31.59,0,1,0,31.59,31.59A31.58,31.58,0,0,0,281.93,158.26ZM281,218.62a28.3,28.3,0,1,1,28.78-28.3A28.55,28.55,0,0,1,281,218.62Z" style="fill:#e0e0e0"></path><path d="M281.93,156a31.59,31.59,0,1,0,31.59,31.58A31.58,31.58,0,0,0,281.93,156ZM281,216.33A28.3,28.3,0,1,1,309.79,188,28.55,28.55,0,0,1,281,216.33Z" style="fill:#f5f5f5"></path><g style="opacity:0.30000000000000004"><path d="M328.06,177.09a29.57,29.57,0,0,0-25.21,1.51l33.56,22.45a21.13,21.13,0,0,1,8.54-5.18A29.54,29.54,0,0,0,328.06,177.09Z"></path></g><path d="M307.34,180.89c-15.26,1.62-43.88,22.59-19.69,52.52s56.91,5.55,60.24-15.07C350.51,202.1,335.73,177.87,307.34,180.89Z" style="fill:#D4AF37"></path><path d="M307.34,180.89c-15.26,1.62-43.88,22.59-19.69,52.52s56.91,5.55,60.24-15.07C350.51,202.1,335.73,177.87,307.34,180.89Z" style="opacity:0.30000000000000004"></path><path d="M307.34,177.4C292.08,179,263.46,200,287.65,229.93s56.91,5.54,60.24-15.07C350.51,198.62,335.73,174.38,307.34,177.4Z" style="fill:#D4AF37"></path><path d="M288.76,200.24c-1.66-2.28,2-12.32,14.78-16.51S326,185.45,325,187.42s-2.71,11.83-15,14.54C298.44,204.49,290.73,203,288.76,200.24Z" style="opacity:0.30000000000000004"></path><path d="M333.35,195.8c1.86-1,13.06,10.6,7.39,21.93s-13.05,18.23-18.23,16-6.9-14.6-3-23.22S331.14,197,333.35,195.8Z" style="opacity:0.30000000000000004"></path><path d="M285.06,208.12c1.17-2.17,15.74-2.77,22.67,2.41s9.52,22.14,7.55,25.33-17.16-1.87-23.07-7.78S283.34,211.32,285.06,208.12Z" style="opacity:0.30000000000000004"></path><path d="M293.44,192.75c-2.15,1.95,4.19,9,5.17,7.24S295.16,191.18,293.44,192.75Z" style="fill:#D4AF37"></path><path d="M300.25,187.92c-1.23.42,1.81,13.6,4.77,12.34S302.38,187.18,300.25,187.92Z" style="fill:#D4AF37"></path><path d="M308.47,185.7c-1.23.49.25,8.7,2.71,8.41S309.7,185.21,308.47,185.7Z" style="fill:#D4AF37"></path><path d="M317.39,184.71c-2.95,0-2.49,11.42,0,11.68S321.46,184.72,317.39,184.71Z" style="fill:#D4AF37"></path><path d="M300.67,211.54c-.44-1.42-12.08.06-11.09,3S301.61,214.61,300.67,211.54Z" style="fill:#D4AF37"></path><path d="M309.73,221.83c1.41.25,1.09,11.77-2.18,10.32S308.33,221.57,309.73,221.83Z" style="fill:#D4AF37"></path><path d="M305.86,216.61c1.38,1-6.07,12.63-10,10.17S304.49,215.55,305.86,216.61Z" style="fill:#D4AF37"></path><path d="M326.14,209.1c.4-2.7,13.05.1,12.18,2.7S325.59,212.68,326.14,209.1Z" style="fill:#D4AF37"></path><path d="M328.29,204.54c.74,1.66,8.82-.15,7.88-2.42S327.55,202.88,328.29,204.54Z" style="fill:#D4AF37"></path><path d="M323.13,213.52c-.57.88,8.4,8.21,9.07,6.07S324.54,211.32,323.13,213.52Z" style="fill:#D4AF37"></path><path d="M319.89,216.72c-2,1.22.76,11,3,10.35S322.72,215,319.89,216.72Z" style="fill:#D4AF37"></path><g style="opacity:0.30000000000000004"><path d="M324.74,205.5c-.89-6.59-6.82-11.6-13.21-13.48s-13.2-1.25-19.82-.6l5.46,1.52a46.47,46.47,0,0,1,11.08,3.78c3.44,1.87,6.49,4.76,7.71,8.48s.5,7.69-.75,11.33-3,7.1-4.07,10.8c3.14-.79,6.47-1.69,8.66-4.08,1.65-1.8,2.43-4.21,3.16-6.54C324.1,213.07,325.26,209.28,324.74,205.5Z"></path></g><path d="M316.14,196.83c-4.89-4.63-12.07-5.86-18.8-6-5.91-.1-12.25.68-16.69,4.58-4.6,4-6.11,10.47-7.38,16.46l-5.16,24.42c-1.95,9.22-3.53,20,2.73,27.06s17.93,6.62,25.56,1.22,11.8-14.46,14.29-23.46l8.09-27.38C322.47,204,321,201.45,316.14,196.83Z" style="fill:#ae7461"></path><g style="opacity:0.1"><path d="M273.29,211.81l0,.1q-1.17,5.57-2.35,11.12a74.51,74.51,0,0,1,46.59-4.95l1.27-4.31c.43-1.15.79-2.2,1.09-3.16A63.32,63.32,0,0,0,273.29,211.81Z" style="fill:#fff"></path></g><g style="opacity:0.1"><path d="M268.62,235l-.27.22-.24,1.12c-.24,1.11-.47,2.24-.68,3.39a18.93,18.93,0,0,0,3.19.13l40.75-1,1-3.47C298.05,232.67,282.81,238.67,268.62,235Z" style="fill:#fff"></path></g><path d="M305.37,254.41c-3.54-.46-9.49-1.32-15.37-2.56-9.21-1.94-23.16,2.87-23.19,2.88a19.66,19.66,0,0,0,1.39,4.55c4.65-1.49,15.43-4.76,20.91-5,4.58-.15,10.85,1.38,14.75,2.49C304.39,256,304.89,255.23,305.37,254.41Z" style="fill:#fff;opacity:0.1"></path><path d="M316,198.06a4.87,4.87,0,0,1,.12.72,17.14,17.14,0,0,1,.2,2.07,34.13,34.13,0,0,1-.48,7.63,70.72,70.72,0,0,1-2.91,11c-1.39,4-3,8.43-4.71,13a191,191,0,0,1-10.06,23.09c-1.51,2.85-2.88,5.07-3.83,6.61l-1.15,1.72a4.27,4.27,0,0,1-.43.59,3.18,3.18,0,0,1,.34-.64l1.06-1.78c.9-1.56,2.22-3.81,3.68-6.67a209.28,209.28,0,0,0,9.9-23.1c3.38-9.22,6.68-17.53,7.75-23.88a37.45,37.45,0,0,0,.64-7.56c0-.89-.06-1.59-.1-2.06A3.7,3.7,0,0,1,316,198.06Z" style="fill:#6f4439"></path><path d="M279.6,218.82c-.08-.12,6.18-4.42,14-9.6s14.19-9.28,14.27-9.16-6.18,4.41-14,9.59S279.68,218.94,279.6,218.82Z" style="fill:#6f4439"></path><path d="M280.05,234.84c-.08-.12,5.45-4,12.34-8.54s12.55-8.23,12.63-8.11-5.44,3.94-12.34,8.54S280.13,235,280.05,234.84Z" style="fill:#6f4439"></path><path d="M275.57,251.62a5.16,5.16,0,0,1,1-.82l2.77-2.07c2.34-1.75,5.56-4.17,9.06-6.92s6.63-5.29,8.88-7.15l2.68-2.19a5.21,5.21,0,0,1,1-.75,7.61,7.61,0,0,1-.89.9c-.6.57-1.47,1.36-2.57,2.32-2.2,1.93-5.29,4.53-8.8,7.28s-6.77,5.13-9.17,6.81c-1.19.83-2.17,1.5-2.86,1.94A8,8,0,0,1,275.57,251.62Z" style="fill:#6f4439"></path><path d="M242.5,157.93c-.66-4.83-1.63-9.74-4.17-13.89s-7-7.46-11.81-7.48c-4.48,0-8.69,2.65-13.15,2.35s-8-3.33-11-6.56-5.62-6.85-9.41-9a15.35,15.35,0,0,0-22.57,10.12c-.57,2.66-.43,5.42-.85,8.1s-1.57,5.48-3.92,6.83c-5.1,2.94-11.71-2.53-17.25-.53-3.26,1.17-5.17,4.75-5.42,8.21s.84,6.87,1.91,10.17c5.12,15.85,10.42,32,20.47,45.3,12.35,23.4,31.62,39.16,57,48.2C246.24,235.91,245.46,179.63,242.5,157.93Z" style="fill:#455a64"></path><path d="M150.31,172.09s-.21-.22-.51-.66a15.47,15.47,0,0,1-1.12-2A22.49,22.49,0,0,1,147,154.88a15.16,15.16,0,0,1,.63-2.17,2.9,2.9,0,0,1,.34-.75c.09,0-.28,1.14-.61,3a25.68,25.68,0,0,0-.21,7.3,26,26,0,0,0,1.91,7.05C149.76,171,150.38,172,150.31,172.09Z" style="fill:#fff"></path><path d="M175.08,131.49a30.38,30.38,0,0,0-2,7.27,30.39,30.39,0,0,0,.35,7.53,6.57,6.57,0,0,1-.66-2.16,17.85,17.85,0,0,1-.21-5.43,18.17,18.17,0,0,1,1.41-5.26A6.94,6.94,0,0,1,175.08,131.49Z" style="fill:#fff"></path><path d="M210.94,162.31a13.56,13.56,0,0,1-.85-3.6,13.62,13.62,0,0,1-.35-3.68,12.9,12.9,0,0,1,.86,3.6A12.91,12.91,0,0,1,210.94,162.31Z" style="fill:#fff"></path><path d="M220,244.69s-.05-.08-.13-.26l-.31-.79-1.16-3c-1-2.65-2.41-6.5-4.11-11.27-3.4-9.54-7.9-22.79-12.48-37.55s-8.34-28.25-10.93-38c-1.29-4.89-2.31-8.86-3-11.62-.32-1.34-.58-2.4-.76-3.17-.08-.33-.14-.61-.19-.82a.92.92,0,0,1,0-.29,1.1,1.1,0,0,1,.09.27c.07.22.14.48.24.82.21.75.49,1.81.86,3.14l3.14,11.58c2.67,9.76,6.5,23.21,11.07,38s9,28,12.33,37.59c1.65,4.75,3,8.61,4,11.32.45,1.31.81,2.34,1.07,3.08l.26.8A1.37,1.37,0,0,1,220,244.69Z" style="fill:#263238"></path><path d="M226.72,151.17a2.84,2.84,0,0,1-.19.55l-.62,1.52c-.59,1.38-1.38,3.27-2.35,5.57-2,4.7-4.64,11.23-7.38,18.51s-5.06,14-6.69,18.79c-.79,2.37-1.44,4.31-1.91,5.73l-.54,1.55a2,2,0,0,1-.22.54,3.68,3.68,0,0,1,.12-.57c.12-.41.27-.94.44-1.58.39-1.37,1-3.35,1.76-5.79,1.54-4.87,3.8-11.55,6.55-18.85s5.47-13.81,7.53-18.48c1-2.33,1.89-4.22,2.5-5.51l.72-1.48A2.39,2.39,0,0,1,226.72,151.17Z" style="fill:#263238"></path><path d="M200.27,194.92a3.42,3.42,0,0,1-.45-.38l-1.24-1.14c-1.06-1-2.61-2.44-4.54-4.2-3.87-3.51-9.34-8.21-15.69-13s-12.35-8.82-16.78-11.6c-2.21-1.39-4-2.49-5.26-3.24l-1.44-.89a2.84,2.84,0,0,1-.48-.33,2.49,2.49,0,0,1,.54.24l1.48.8c1.28.7,3.12,1.75,5.36,3.11a199.67,199.67,0,0,1,16.9,11.49,197.93,197.93,0,0,1,15.62,13.18c1.9,1.79,3.42,3.27,4.44,4.32l1.16,1.22C200.16,194.75,200.29,194.9,200.27,194.92Z" style="fill:#263238"></path><path d="M178.25,176.47a63.4,63.4,0,0,1-7.95,1.65,63.15,63.15,0,0,1-8.05,1.15,63.19,63.19,0,0,1,8-1.66A64.36,64.36,0,0,1,178.25,176.47Z" style="fill:#263238"></path><path d="M178.92,141.66a4.19,4.19,0,0,1,.7.72c.43.49,1,1.21,1.74,2.11,1.45,1.81,3.37,4.37,5.36,7.28s3.67,5.64,4.83,7.64c.58,1,1,1.82,1.34,2.39a3.16,3.16,0,0,1,.41.92,32.77,32.77,0,0,1-2.06-3.12c-1.24-1.95-3-4.63-5-7.54s-3.85-5.48-5.22-7.34A31.75,31.75,0,0,1,178.92,141.66Z" style="fill:#263238"></path><path d="M214.65,150.12a4.87,4.87,0,0,1,.06,1.13c0,.84,0,1.86,0,3.07,0,2.59-.05,6.16,0,10.11s.21,7.53.32,10.11l.12,3.07a5,5,0,0,1,0,1.13,4.57,4.57,0,0,1-.19-1.12c-.09-.72-.19-1.76-.29-3.05-.21-2.59-.4-6.17-.47-10.13s0-7.54.13-10.13c.06-1.3.12-2.34.18-3.07A5,5,0,0,1,214.65,150.12Z" style="fill:#263238"></path><path d="M226,199.9a4.18,4.18,0,0,1-.46,1l-1.4,2.62c-1.18,2.21-2.79,5.28-4.48,8.71s-3.14,6.58-4.16,8.87l-1.23,2.71a5,5,0,0,1-.5,1,3.86,3.86,0,0,1,.32-1.05c.23-.66.6-1.61,1.07-2.78.94-2.33,2.34-5.51,4-8.95s3.36-6.49,4.63-8.66c.64-1.08,1.17-2,1.55-2.54A4.58,4.58,0,0,1,226,199.9Z" style="fill:#263238"></path><path d="M214.08,228.11a5,5,0,0,1-1.1-.31c-.69-.23-1.69-.59-2.91-1.05-2.45-.91-5.81-2.24-9.48-3.79s-7-3.06-9.31-4.18c-1.18-.57-2.13-1-2.77-1.37a5.56,5.56,0,0,1-1-.57,4,4,0,0,1,1.07.38l2.84,1.22,9.37,4,9.4,3.93,2.85,1.2A5.38,5.38,0,0,1,214.08,228.11Z" style="fill:#263238"></path><g style="opacity:0.30000000000000004"><path d="M172.22,206.42a24.5,24.5,0,0,0,4.36,8.38Z"></path></g><g style="opacity:0.30000000000000004"><path d="M212.67,170.45c-10.14-5.25-23-3.91-32.66,2.21a28,28,0,0,0-11,12.28c-2.19,5.14-2.28,11.31.48,16.17l2.76,5.31a25.43,25.43,0,1,1,49.58-9.88,8.07,8.07,0,0,0,.74,3.43,2.3,2.3,0,0,0,3,1.06,3,3,0,0,0,1.11-2C229.26,187.91,222.81,175.7,212.67,170.45Z"></path></g><path d="M196.86,165.29a31.59,31.59,0,1,0,31.59,31.59A31.59,31.59,0,0,0,196.86,165.29Zm-.92,60.36a28.3,28.3,0,1,1,28.78-28.3A28.55,28.55,0,0,1,195.94,225.65Z" style="fill:#e0e0e0"></path><path d="M196.86,163a31.59,31.59,0,1,0,31.59,31.58A31.58,31.58,0,0,0,196.86,163Zm-.92,60.36a28.3,28.3,0,1,1,28.78-28.3A28.55,28.55,0,0,1,195.94,223.37Z" style="fill:#f5f5f5"></path><path d="M211.17,257.5c-6.16,2.71-13.34,1.45-19.71-.72-5.59-1.9-11.3-4.78-14.16-9.94-3-5.36-2.23-11.92-1.4-18l3.36-24.72c1.28-9.35,3.43-20,11.69-24.57s19.12-.18,24.48,7.47,6.24,17.59,5.55,26.91l-1.61,28.5C219.55,252.9,217.34,254.8,211.17,257.5Z" style="fill:#ae7461"></path><g style="opacity:0.1"><path d="M175.88,229l0-.11,1.53-11.26A74.45,74.45,0,0,0,219.62,238l-.25,4.49c0,1.23,0,2.33,0,3.34A63.33,63.33,0,0,1,175.88,229Z" style="fill:#fff"></path></g><g style="opacity:0.1"><path d="M179.3,205.56l-.19-.3.15-1.13c.16-1.13.32-2.28.51-3.43a18.53,18.53,0,0,1,3,1l38,14.69-.2,3.62C206.22,217.66,193.9,206.87,179.3,205.56Z" style="fill:#fff"></path></g><path d="M220.44,199.66c-3.49-.76-9.38-1.95-15.34-2.77-9.32-1.29-20.84-10.51-20.86-10.53a20.27,20.27,0,0,1,2.84-3.82c3.88,3,12.93,9.69,18,11.72,4.25,1.69,10.67,2.36,14.72,2.63C220.07,197.8,220.27,198.73,220.44,199.66Z" style="fill:#fff;opacity:0.1"></path><path d="M211.48,256.3a5,5,0,0,1,.27-.68c.19-.43.47-1.07.79-1.91a37.69,37.69,0,0,0,1.94-7.33c1.14-6.34.82-15.27.76-25.09a210.45,210.45,0,0,0-1.54-25.08c-.41-3.19-.9-5.75-1.21-7.52-.17-.85-.31-1.52-.41-2a3.69,3.69,0,0,1-.1-.72,6.55,6.55,0,0,1,.2.7c.13.51.3,1.18.5,2,.38,1.77.93,4.32,1.38,7.52a188.48,188.48,0,0,1,1.7,25.12c.05,4.92.09,9.6,0,13.87a70.08,70.08,0,0,1-.95,11.29,35.21,35.21,0,0,1-2.11,7.35c-.35.83-.66,1.46-.89,1.88A3.38,3.38,0,0,1,211.48,256.3Z" style="fill:#6f4439"></path><path d="M184.18,224.48c.11-.08,4.74,5.93,10.34,13.44s10,13.66,9.93,13.74-4.75-5.92-10.35-13.43S184.06,224.57,184.18,224.48Z" style="fill:#6f4439"></path><path d="M190,209.55c.12-.08,4.22,5.24,9.16,11.89s8.86,12.11,8.74,12.2-4.21-5.24-9.16-11.89S189.89,209.64,190,209.55Z" style="fill:#6f4439"></path><path d="M191.44,192.24a6.43,6.43,0,0,1,.81,1c.5.65,1.19,1.61,2,2.8,1.69,2.38,4,5.72,6.34,9.49s4.41,7.27,5.83,9.82c.71,1.28,1.27,2.32,1.64,3a6.61,6.61,0,0,1,.53,1.15,6.23,6.23,0,0,1-.71-1.05c-.48-.79-1.07-1.78-1.78-3-1.5-2.5-3.58-5.95-5.95-9.72s-4.59-7.13-6.2-9.57l-1.91-2.88A6,6,0,0,1,191.44,192.24Z" style="fill:#6f4439"></path><path d="M182.25,196.46a7.63,7.63,0,0,1,.43-2.29,23.4,23.4,0,0,1,2.17-5.22,24.09,24.09,0,0,1,3.32-4.57,7.9,7.9,0,0,1,1.73-1.56,50.33,50.33,0,0,0-4.6,6.39A49.73,49.73,0,0,0,182.25,196.46Z" style="fill:#fff"></path><path d="M309.79,213.1a31.59,31.59,0,1,0,31.59,31.59A31.59,31.59,0,0,0,309.79,213.1Zm-.92,60.36a28.3,28.3,0,1,1,28.78-28.3A28.55,28.55,0,0,1,308.87,273.46Z" style="fill:#e0e0e0"></path><path d="M309.79,210.82a31.59,31.59,0,1,0,31.59,31.59A31.58,31.58,0,0,0,309.79,210.82Zm-.92,60.36a28.3,28.3,0,1,1,28.78-28.3A28.55,28.55,0,0,1,308.87,271.18Z" style="fill:#f5f5f5"></path><path d="M248.78,252.76H235.9a.32.32,0,0,1-.33-.31L234,203.14l-1.65-43.79a.33.33,0,0,1,.32-.34h16.09a.32.32,0,0,1,.32.33v93.1A.32.32,0,0,1,248.78,252.76Z" style="fill:#fb6"></path><path d="M246.89,164.83a4.63,4.63,0,0,1-2.29.85,15.73,15.73,0,0,1-2.65.21c-.5,0-1,0-1.57,0a5.6,5.6,0,0,1-1.72-.31,16.7,16.7,0,0,1-4.55-3.77A16.39,16.39,0,0,1,232.5,160a8.22,8.22,0,0,1,1.87,1.55,19.62,19.62,0,0,0,4.51,3.56,5.33,5.33,0,0,0,1.54.27c.53,0,1,.08,1.53.08a17.42,17.42,0,0,0,2.6-.1C246,165.16,246.85,164.75,246.89,164.83Z" style="fill:#263238"></path><path d="M237.91,249.51a7.25,7.25,0,0,1,0-.86c0-.6,0-1.42,0-2.45,0-2.12,0-5.2,0-9,.06-7.61.22-18.12.43-29.72s.43-22.08.57-29.73c.08-3.77.14-6.83.19-9,0-1,0-1.84.06-2.45a4.29,4.29,0,0,1,0-.85,4.29,4.29,0,0,1,.05.85c0,.61,0,1.42,0,2.45,0,2.13,0,5.21,0,9-.06,7.61-.21,18.12-.42,29.73s-.43,22.08-.58,29.73c-.08,3.76-.14,6.83-.18,9,0,1-.05,1.85-.06,2.45A4.87,4.87,0,0,1,237.91,249.51Z" style="fill:#263238"></path><path d="M268.35,294.73,256,291a.33.33,0,0,1-.22-.39l13-47.6,11.27-42.35a.32.32,0,0,1,.41-.22l15.37,4.72a.32.32,0,0,1,.22.4l-27.32,89A.33.33,0,0,1,268.35,294.73Z" style="fill:#fb6"></path><path d="M292.35,210.11a4.63,4.63,0,0,1-2.45.14,15.35,15.35,0,0,1-2.59-.57c-.48-.14-1-.32-1.49-.51a5.51,5.51,0,0,1-1.55-.81,16.6,16.6,0,0,1-3.24-4.93,15.38,15.38,0,0,1-1-2.21,8.6,8.6,0,0,1,1.33,2,19.61,19.61,0,0,0,3.27,4.72,5.19,5.19,0,0,0,1.39.71c.49.2,1,.38,1.44.53a18.53,18.53,0,0,0,2.51.66A21.48,21.48,0,0,0,292.35,210.11Z" style="fill:#263238"></path><path d="M258.91,288.43a7.45,7.45,0,0,1,.21-.83c.17-.59.39-1.37.68-2.36.61-2,1.52-5,2.66-8.61,2.29-7.25,5.52-17.26,9.13-28.29s6.89-21,9.27-28.25l2.82-8.56.77-2.32a5.08,5.08,0,0,1,.31-.8,4.74,4.74,0,0,1-.2.83l-.69,2.35c-.61,2-1.51,5-2.66,8.61-2.29,7.26-5.52,17.26-9.13,28.3l-9.27,28.25L260,285.3c-.32,1-.58,1.75-.77,2.33A5.69,5.69,0,0,1,258.91,288.43Z" style="fill:#263238"></path><path d="M243.5,274.26l-12.88,3.56a.33.33,0,0,1-.4-.23l-15.16-48.86L201.32,185.4a.34.34,0,0,1,.23-.42l16.08-4.44a.33.33,0,0,1,.41.24l25.69,93.07A.33.33,0,0,1,243.5,274.26Z" style="fill:#fb6"></path><path d="M217.35,186.87a4.7,4.7,0,0,1-2.06,1.48,16.2,16.2,0,0,1-2.59,1c-.5.14-1,.26-1.58.38a5.79,5.79,0,0,1-1.81.16,17.47,17.47,0,0,1-5.58-2.51,17.87,17.87,0,0,1-2.11-1.36,8.91,8.91,0,0,1,2.29,1,20.29,20.29,0,0,0,5.49,2.32,5.73,5.73,0,0,0,1.62-.15c.54-.11,1.07-.22,1.56-.35a15.58,15.58,0,0,0,4.77-2Z" style="fill:#263238"></path><path d="M231.74,274a6.35,6.35,0,0,1-.28-.84c-.18-.61-.41-1.42-.71-2.44-.6-2.13-1.45-5.21-2.47-9-2-7.62-4.78-18.17-7.78-29.83L212.88,202c-1-3.79-1.75-6.87-2.31-9.05-.26-1-.47-1.86-.62-2.47a4.48,4.48,0,0,1-.18-.87,6.35,6.35,0,0,1,.28.84c.18.61.41,1.42.71,2.44.6,2.13,1.45,5.21,2.47,9,2,7.62,4.78,18.17,7.78,29.84l7.62,29.87c1,3.79,1.75,6.87,2.31,9.05.26,1,.47,1.86.62,2.47A4.48,4.48,0,0,1,231.74,274Z" style="fill:#263238"></path><g style="opacity:0.30000000000000004"><path d="M273,234.25c-1.74-5.22-4.13-10.35-8-14.26-4.15-4.19-9.73-6.68-15.38-8.35-10.12-3-21.16-3.6-31.16-.23s-18.78,11-22.13,21l76.38,30.13C277.19,254,276,243.46,273,234.25Z"></path></g><path d="M227.56,215.89c-17.37,1.85-50,25.71-22.42,59.8S270,282,273.74,258.53C276.72,240,259.89,212.45,227.56,215.89Z" style="fill:#D4AF37"></path><path d="M227.56,215.89c-17.37,1.85-50,25.71-22.42,59.8S270,282,273.74,258.53C276.72,240,259.89,212.45,227.56,215.89Z" style="opacity:0.30000000000000004"></path><path d="M227.56,211.92c-17.37,1.85-50,25.71-22.42,59.8S270,278,273.74,254.56C276.72,236.07,259.89,208.48,227.56,211.92Z" style="fill:#D4AF37"></path><path d="M206.41,237.91c-1.89-2.58,2.24-14,16.83-18.79s25.53,2,24.41,4.21-3.09,13.46-17.12,16.55C217.43,242.76,208.65,241,206.41,237.91Z" style="opacity:0.30000000000000004"></path><path d="M257.18,232.86c2.11-1.17,14.87,12.07,8.42,25s-14.87,20.76-20.76,18.24-7.86-16.62-3.37-26.44S254.66,234.27,257.18,232.86Z" style="opacity:0.30000000000000004"></path><path d="M202.2,246.89c1.33-2.47,17.92-3.15,25.81,2.74s10.84,25.21,8.6,28.85-19.54-2.13-26.28-8.86S200.23,250.54,202.2,246.89Z" style="opacity:0.30000000000000004"></path><path d="M211.74,229.39c-2.44,2.23,4.77,10.21,5.89,8.24S213.7,227.61,211.74,229.39Z" style="fill:#D4AF37"></path><path d="M219.49,223.89c-1.4.48,2.07,15.48,5.43,14.05S221.91,223,219.49,223.89Z" style="fill:#D4AF37"></path><path d="M228.85,221.36c-1.4.56.28,9.91,3.08,9.58S230.25,220.8,228.85,221.36Z" style="fill:#D4AF37"></path><path d="M239,220.24c-3.36,0-2.83,13,0,13.3S243.64,220.25,239,220.24Z" style="fill:#D4AF37"></path><path d="M220,250.78c-.5-1.62-13.75.07-12.63,3.44S221,254.28,220,250.78Z" style="fill:#D4AF37"></path><path d="M230.29,262.5c1.6.29,1.24,13.41-2.49,11.76S228.69,262.2,230.29,262.5Z" style="fill:#D4AF37"></path><path d="M225.88,256.56c1.57,1.2-6.91,14.38-11.37,11.58S224.32,255.35,225.88,256.56Z" style="fill:#D4AF37"></path><path d="M249,248c.46-3.08,14.86.11,13.87,3.07S248.35,252.08,249,248Z" style="fill:#D4AF37"></path><path d="M251.41,242.81c.85,1.89,10-.16,9-2.75S250.57,240.92,251.41,242.81Z" style="fill:#D4AF37"></path><path d="M245.54,253c-.64,1,9.57,9.35,10.33,6.92S247.15,250.54,245.54,253Z" style="fill:#D4AF37"></path><path d="M241.85,256.68c-2.26,1.39.87,12.55,3.47,11.79S245.08,254.69,241.85,256.68Z" style="fill:#D4AF37"></path><path d="M225.15,213.83c0,.1-1.66.43-4.22,1.39a33.86,33.86,0,0,0-4.35,2,33.77,33.77,0,0,0-9.12,7.29,34.26,34.26,0,0,0-2.92,3.81c-1.49,2.29-2.18,3.85-2.27,3.81a4.85,4.85,0,0,1,.43-1.12,12.62,12.62,0,0,1,.61-1.26c.27-.48.54-1.05.92-1.63a31.28,31.28,0,0,1,2.86-3.92,35.31,35.31,0,0,1,4.28-4.14,34.68,34.68,0,0,1,5-3.26,29.47,29.47,0,0,1,4.46-1.93,18,18,0,0,1,1.78-.54A10.36,10.36,0,0,1,224,214,4.93,4.93,0,0,1,225.15,213.83Z" style="fill:#fff"></path><path d="M242.58,215c-.05.14-1.77-.38-3.94-.68s-4-.26-4-.42a9.19,9.19,0,0,1,4.05-.09A9,9,0,0,1,242.58,215Z" style="fill:#fff"></path><path d="M244.75,237.38a19.24,19.24,0,0,1-5.46,2.81,19,19,0,0,1-6,1.42c0-.15,2.64-.74,5.79-1.91S244.67,237.24,244.75,237.38Z" style="fill:#fff"></path><path d="M206.64,417.84s5.59,21,14.13,27.43,43.58,8.31,43.58,8.31l11.4-189.66s-62.13-20.41-80.48-31.45-39.33-37.75-39.33-37.75a92.64,92.64,0,0,0,4,39C166.79,254,206.64,417.84,206.64,417.84Z" style="fill:#fb6"></path><g style="opacity:0.30000000000000004"><path d="M271.56,264.26c-7.9,10.89-10.81,24.51-13.52,37.69-8.23,40-16.5,80.55-13.44,121.23.68,9,4.67,22.64,10.3,29.67L256.36,434c5-42.52-.85-86.4,10.3-127.73a160.61,160.61,0,0,1,36.44-66.33C291.4,246.44,279.42,253.42,271.56,264.26Z"></path></g><path d="M268.58,271.2a1.25,1.25,0,0,1-.33-.09l-.95-.29-3.63-1.18-13.4-4.21c-5.65-1.77-12.4-3.86-19.8-6.46A172.2,172.2,0,0,1,207,249c-4-2.15-7.74-4.5-11.35-6.79s-7-4.64-10.14-7a143.37,143.37,0,0,1-15.84-13.54,101.7,101.7,0,0,1-9.25-10.57c-1-1.3-1.72-2.39-2.23-3.1-.24-.34-.42-.61-.56-.82a1.22,1.22,0,0,1-.18-.29,1.74,1.74,0,0,1,.22.26l.6.79c.54.69,1.26,1.76,2.31,3a110.35,110.35,0,0,0,9.35,10.44,146,146,0,0,0,15.87,13.41c3.14,2.34,6.55,4.64,10.13,6.95s7.34,4.63,11.31,6.76a176.12,176.12,0,0,0,23.41,9.95c7.38,2.62,14.12,4.74,19.76,6.56s10.21,3.29,13.34,4.37c1.57.53,2.78,1,3.6,1.27l.94.34A1.64,1.64,0,0,1,268.58,271.2Z" style="fill:#263238"></path><path d="M243.64,290.36a2.35,2.35,0,1,0,.15,0" style="fill:#ef993a"></path><path d="M247.06,297.68a1.52,1.52,0,0,0,.69,2.95,1.51,1.51,0,0,0-.59-3" style="fill:#ef993a"></path><path d="M249.72,293.87a1.07,1.07,0,0,0-.75,1.24,1,1,0,1,0,.82-1.26" style="fill:#ef993a"></path><path d="M221.09,413.25a3.34,3.34,0,1,0,.22-.05" style="fill:#ef993a"></path><path d="M225.8,423.31a2.06,2.06,0,1,0,.13,0" style="fill:#ef993a"></path><path d="M229.46,418.08a1.41,1.41,0,1,0,.09,0" style="fill:#ef993a"></path><path d="M265,288.78a1.62,1.62,0,0,1-.29-.07l-.84-.24-3.23-1c-2.79-.86-6.83-2.13-11.79-3.77a407.61,407.61,0,0,1-38.2-14.53c-7.28-3.29-14.07-6.74-20.11-10.12-3-1.75-5.85-3.36-8.42-5.06-1.3-.83-2.57-1.6-3.75-2.4L175,249.28c-2.17-1.46-4-2.94-5.69-4.19-.82-.63-1.6-1.2-2.3-1.76l-1.86-1.56-2.57-2.18-.66-.58a1.43,1.43,0,0,1-.22-.21l.25.17.69.54,2.64,2.1,1.89,1.53,2.32,1.72c1.67,1.23,3.54,2.68,5.72,4.11l3.39,2.31c1.19.79,2.46,1.55,3.76,2.38,2.57,1.67,5.44,3.27,8.42,5,6.05,3.34,12.82,6.77,20.09,10.05,14.57,6.49,28.21,11.29,38.1,14.66l11.75,3.92,3.19,1.07.83.29C264.87,288.73,265,288.77,265,288.78Z" style="fill:#ef993a"></path><path d="M257.13,320.11l-.25-.07-.69-.25-2.65-1c-2.3-.88-5.6-2.21-9.66-3.93-8.11-3.42-19.17-8.5-31-14.82s-22.24-12.67-29.61-17.49c-3.68-2.41-6.63-4.4-8.64-5.83l-2.31-1.64-.59-.43c-.13-.11-.2-.16-.19-.17a.75.75,0,0,1,.22.12l.62.4,2.37,1.55c2,1.38,5,3.32,8.72,5.69,7.41,4.74,17.82,11,29.66,17.35S236,311,244,314.52c4,1.76,7.31,3.15,9.59,4.08l2.61,1.09.67.3A.82.82,0,0,1,257.13,320.11Z" style="fill:#ef993a"></path><path d="M253.57,350.87a5,5,0,0,1-.78-.29l-2.2-.93c-1.91-.81-4.65-2-8-3.57-6.74-3.09-16-7.57-25.92-12.93s-18.78-10.6-25.07-14.52c-3.14-2-5.67-3.58-7.4-4.73l-2-1.32a4.18,4.18,0,0,1-.67-.5,6.47,6.47,0,0,1,.73.41l2,1.24,7.48,4.59c6.34,3.84,15.17,9,25.13,14.37s19.13,9.88,25.82,13.06l7.95,3.72,2.16,1A4.62,4.62,0,0,1,253.57,350.87Z" style="fill:#ef993a"></path><path d="M249,381.38a4.81,4.81,0,0,1-.66-.22l-1.86-.73c-1.62-.63-3.93-1.61-6.75-2.88a203.9,203.9,0,0,1-41.37-25c-2.44-1.92-4.38-3.51-5.69-4.65l-1.5-1.31a3,3,0,0,1-.5-.48,2.92,2.92,0,0,1,.56.4l1.57,1.24c1.35,1.09,3.32,2.63,5.78,4.5a226.95,226.95,0,0,0,41.3,25c2.8,1.31,5.09,2.34,6.68,3l1.82.81A3,3,0,0,1,249,381.38Z" style="fill:#ef993a"></path><path d="M246.61,414.83a2.26,2.26,0,0,1-.49-.16l-1.37-.54c-1.19-.48-2.89-1.21-5-2.14-4.18-1.86-9.88-4.6-16-7.93s-11.54-6.61-15.38-9.1c-1.92-1.24-3.46-2.27-4.5-3l-1.2-.85a1.79,1.79,0,0,1-.4-.33,1.84,1.84,0,0,1,.45.24l1.26.77,4.59,2.86c3.88,2.4,9.31,5.63,15.43,9s11.79,6.1,15.92,8.05l4.91,2.28,1.33.64A1.84,1.84,0,0,1,246.61,414.83Z" style="fill:#ef993a"></path><path d="M250.1,438.29c0,.14-8.61-2.63-19.12-6.19s-19-6.54-18.95-6.68,8.61,2.64,19.12,6.19S250.14,438.15,250.1,438.29Z" style="fill:#ef993a"></path><path d="M254.9,452.85s6.71,3.16,25.33-2.6,24.89-22.87,32.13-49.71S333,301.73,339.87,275.37c4.9-18.89,18.56-57.66,17.75-73.31s-11.19-27-11.19-27,3,13.17-3.7,22.35-66.44,62.16-73.7,77.11c-4.47,9.21-12.74,59.76-18.42,97.2a200.9,200.9,0,0,0,4.29,81.13Z" style="fill:#ffe2bd"></path><path d="M352.83,188.43a1.19,1.19,0,0,1-.08.29c-.07.22-.17.49-.29.83-.27.72-.59,1.83-1.19,3.17a70.21,70.21,0,0,1-5.79,11,104.81,104.81,0,0,1-11.35,14.55c-4.69,5.12-10.26,10.37-16.24,15.7s-11.74,10.33-16.77,15.1a154.5,154.5,0,0,0-12.69,13.33,95.48,95.48,0,0,0-7.36,10c-.81,1.21-1.35,2.22-1.77,2.87l-.46.75a1.8,1.8,0,0,1-.17.25s0-.1.13-.28.24-.45.41-.77c.39-.67.9-1.69,1.69-2.93a88,88,0,0,1,7.25-10.11,146.17,146.17,0,0,1,12.64-13.44c5-4.8,10.77-9.83,16.76-15.15S329.08,223,333.78,218a107.3,107.3,0,0,0,11.39-14.42,75,75,0,0,0,5.91-10.89c.63-1.33,1-2.41,1.28-3.12l.34-.82A1.53,1.53,0,0,1,352.83,188.43Z" style="fill:#263238"></path><path d="M254.49,404.26a1.3,1.3,0,0,1,0-.32l0-.94c0-.85.11-2.06.19-3.59s.21-3.47.39-5.69.35-4.74.62-7.52c.49-5.57,1.21-12.19,2.14-19.53s2.14-15.38,3.6-23.79,3.1-16.38,4.69-23.6,3.19-13.69,4.62-19.1c.69-2.71,1.39-5.14,2-7.29s1.12-4,1.57-5.47.79-2.63,1-3.45l.28-.9a1.2,1.2,0,0,1,.11-.3,1.24,1.24,0,0,1-.06.32c-.06.23-.14.53-.23.91-.23.82-.54,2-.94,3.47s-.93,3.35-1.49,5.5-1.23,4.59-1.89,7.3c-1.39,5.42-2.92,11.89-4.51,19.11S263.47,334.57,262,343s-2.65,16.44-3.64,23.76-1.71,13.94-2.24,19.5c-.3,2.78-.5,5.3-.7,7.52s-.36,4.11-.47,5.67-.23,2.74-.3,3.59q-.06.58-.09.93A1.19,1.19,0,0,1,254.49,404.26Z" style="fill:#263238"></path><path d="M339.46,277.86l-.19.18-.57.49-2.25,1.87c-1.95,1.61-4.81,3.91-8.38,6.7-7.14,5.59-17.17,13.09-28.57,20.92s-22,14.49-29.81,19.13c-3.89,2.33-7.05,4.17-9.26,5.41L257.88,334l-.67.36a.89.89,0,0,1-.24.1l.21-.15.65-.4,2.49-1.51c2.18-1.29,5.32-3.19,9.18-5.55,7.73-4.73,18.3-11.43,29.7-19.25s21.45-15.27,28.64-20.78c3.6-2.75,6.49-5,8.48-6.57l2.31-1.79.61-.45C339.38,277.9,339.45,277.85,339.46,277.86Z" style="fill:#fb6"></path><path d="M350.27,237.18l-.21.19-.63.52c-.59.48-1.41,1.14-2.46,2-2.14,1.71-5.27,4.15-9.14,7.14-7.76,6-18.56,14.12-30.66,22.88s-23.22,16.5-31.32,22c-4.05,2.75-7.34,5-9.62,6.46l-2.64,1.73-.7.44-.24.13s.06-.07.21-.18l.67-.48,2.58-1.8,9.53-6.6c8.05-5.58,19.12-13.36,31.22-22.12s22.93-16.85,30.74-22.76l9.25-7,2.52-1.89.66-.48Q350.26,237.17,350.27,237.18Z" style="fill:#fb6"></path><path d="M358.53,206.52c.09.11-9.68,7-21.8,15.48s-22,15.17-22.1,15.05,9.68-7.05,21.81-15.48S358.45,206.4,358.53,206.52Z" style="fill:#fb6"></path><path d="M330.08,310.31c.08.12-17.16,12.5-38.51,27.65s-38.74,27.35-38.82,27.23,17.16-12.5,38.51-27.65S330,310.19,330.08,310.31Z" style="fill:#fb6"></path><path d="M320.23,345.44a3.93,3.93,0,0,1-.66.53l-1.95,1.44c-1.69,1.24-4.17,3-7.24,5.19-6.15,4.34-14.7,10.25-24.25,16.61s-18.31,12-24.69,16c-3.19,2-5.77,3.6-7.58,4.69l-2.07,1.24a6.44,6.44,0,0,1-.75.41,4.53,4.53,0,0,1,.69-.5l2-1.32,7.48-4.83c6.33-4.08,15-9.74,24.6-16.1s18.13-12.22,24.33-16.49l7.34-5.05,2-1.35A6.6,6.6,0,0,1,320.23,345.44Z" style="fill:#fb6"></path><path d="M315.3,382.45a4.53,4.53,0,0,1-.61.45l-1.78,1.22c-1.56,1.05-3.83,2.54-6.66,4.34-5.66,3.62-13.59,8.44-22.52,13.46s-17.2,9.24-23.24,12.18c-3,1.47-5.47,2.64-7.18,3.41l-2,.89a4.61,4.61,0,0,1-.7.28,3.21,3.21,0,0,1,.66-.37l1.92-1,7.11-3.56c6-3,14.21-7.31,23.14-12.31s16.88-9.78,22.58-13.31l6.75-4.2,1.84-1.14A3.54,3.54,0,0,1,315.3,382.45Z" style="fill:#fb6"></path><path d="M306.74,412.57c.07.13-11.91,6.39-26.74,14s-26.92,13.64-27,13.51,11.91-6.39,26.75-14S306.68,412.45,306.74,412.57Z" style="fill:#fb6"></path><path d="M299.19,382.77a3.32,3.32,0,1,0-.11-.18" style="fill:#fb6"></path><path d="M307.27,375.14a2,2,0,1,0-.07-.11" style="fill:#fb6"></path><path d="M301.15,373.32a1.43,1.43,0,1,0,.5-2,1.5,1.5,0,0,0-.55,1.93" style="fill:#fb6"></path><path d="M243.94,117.4c0,.11-2,0-5.24.49-.8.12-1.68.25-2.61.48s-1.91.48-2.94.77a40.75,40.75,0,0,0-6.43,2.65,42,42,0,0,0-5.83,3.8c-.82.69-1.62,1.32-2.3,2s-1.32,1.29-1.87,1.88c-2.2,2.39-3.28,4.11-3.37,4a7,7,0,0,1,.73-1.22,12.41,12.41,0,0,1,1-1.36c.4-.51.83-1.12,1.39-1.72s1.14-1.28,1.85-1.94,1.47-1.35,2.3-2a37.58,37.58,0,0,1,5.89-3.89,38.12,38.12,0,0,1,6.53-2.65c1.05-.28,2-.57,3-.73s1.84-.33,2.65-.43,1.56-.14,2.21-.18a13.69,13.69,0,0,1,1.66,0A7.6,7.6,0,0,1,243.94,117.4Z" style="fill:#fff"></path><path d="M256,120.34a17.64,17.64,0,0,1-4-1.26,17.86,17.86,0,0,1-3.87-1.74,17.07,17.07,0,0,1,4.05,1.26A17.32,17.32,0,0,1,256,120.34Z" style="fill:#fff"></path></g></svg>
