<svg xmlns="http://www.w3.org/2000/svg" viewBox="0 0 500 500"><g id="freepik--background-complete--inject-2"><g><g><g><path d="M443.92039,318.1624h-180.7461c-3.2324,0-5.86229-2.6298-5.86229-5.8623V49.0267c0-3.2324,2.62989-5.8618,5.86229-5.8618h180.7461c3.2324,0,5.8623,2.6294,5.8623,5.8618V312.3001c0,3.2325-2.6299,5.8623-5.8623,5.8623ZM263.17429,43.4149c-3.0947,0-5.61229,2.5176-5.61229,5.6118V312.3001c0,3.0948,2.51759,5.6123,5.61229,5.6123h180.7461c3.0947,0,5.6123-2.5175,5.6123-5.6123V49.0267c0-3.0942-2.5176-5.6118-5.6123-5.6118h-180.7461Z" style="fill:#e0e0e0;"></path><path d="M235.49269,318.1624H54.7461c-3.2324,0-5.8618-2.6298-5.8618-5.8623V49.0267c0-3.2324,2.6294-5.8618,5.8618-5.8618H235.49269c3.2324,0,5.86231,2.6294,5.86231,5.8618V312.3001c0,3.2325-2.62991,5.8623-5.86231,5.8623ZM54.7461,43.4149c-3.0942,0-5.6118,2.5176-5.6118,5.6118V312.3001c0,3.0948,2.5176,5.6123,5.6118,5.6123H235.49269c3.0947,0,5.61231-2.5175,5.61231-5.6123V49.0267c0-3.0942-2.51761-5.6118-5.61231-5.6118H54.7461Z" style="fill:#e0e0e0;"></path></g><rect x="0" y="379.2318" width="500" height=".25" style="fill:#e0e0e0;"></rect></g><rect x="51.6724" y="393.4963" width="16.06" height=".25" style="fill:#e0e0e0;"></rect><rect x="170.3524" y="390.7863" width="53.53" height=".25" style="fill:#e0e0e0;"></rect><rect x="68.7324" y="402.7863" width="36.25" height=".25" style="fill:#e0e0e0;"></rect><rect x="378.35239" y="390.6563" width="43.19" height=".25" style="fill:#e0e0e0;"></rect><rect x="430.45239" y="390.6563" width="6.33" height=".25" style="fill:#e0e0e0;"></rect><rect x="316.21239" y="396.8863" width="53.89" height=".25" style="fill:#e0e0e0;"></rect></g><g><g><g><path d="M388.81969,145.4949c.471,.4718,1.9451-7.587,14.73-10.6173,12.7849-3.0304,26.6245,6.3991,29.9531,25.0672,3.6218,20.3123-4.7911,35.9606-26.849,43.5087-22.0579,7.548-33.62479-5.6592-36.65079-8.6321-8.04291-7.9015-17.72911-29.1208-8.05661-41.4327,10.6423-13.5464,23.2792-11.4939,26.8733-7.8938Z" style="fill:#f0f0f0;"></path><path d="M380.10109,148.6901c2.8957,1.7046,6.4011,2.5622,9.583,1.4822,2.1437-.7276,3.98991-2.125,5.71991-3.5852,1.65069-1.3934,3.23489-2.8656,4.74549-4.4099,0,0-7.4883,2.7926-9.9823,4.3181s-6.0578-.7481-8.2375-.2373c-2.17969,.5108-3.5875,1.3966-1.8286,2.4321Z" style="fill:#e6e6e6;"></path><path d="M409.766,139.912c5.95169-.7009,10.50879,1.4677,14.29519,6.1129,3.7863,4.6452,6.6826,12.9131,5.1053,21.7218-2.01649-5.8245-8.63549-14.6694-14.3104-17.0749-5.6749-2.4055-12.3659-2.2893-17.9539,.3119,7.8534-5.9179,8.8537-8.2214,12.86381-11.0717Z" style="fill:#f5f5f5;"></path><path d="M361.94639,153.3887c1.6359-2.0823,3.3189-3.7947,5.009-5.1908-.2328,.3307-.4848,.6482-.7259,.9443-5.7401,7.0481-7.2369,17.1067-4.5243,25.7824,2.7126,8.6756,9.3415,15.886,17.4206,20.0517,12.6284,6.5112,31.9986,5.5614,43.6508-2.5688,6.7306-4.6961,10.50741-13.2893,11.3177-19.4913-1.4568,13.9755-10.3501,24.6891-27.4405,30.5373-22.0579,7.548-33.62479-5.6593-36.65079-8.6321-8.04291-7.9015-17.72911-29.1208-8.05661-41.4327Z" style="fill:#e6e6e6;"></path><path d="M366.22269,156.0473c.7234-3.9901,4.5478-7.1832,8.603-7.1829l.53231,.5806c1.57889,1.3847,3.15779,2.7693,4.73669,4.154,.3634,.3187,.7467,.6697,.8529,1.1412,.1935,.8585-.5957,1.6008-1.3268,2.0906-2.6813,1.7964-5.7395,3.0273-8.9175,3.5896-1.1018,.1949-2.3222,.2876-3.2578-.3261-1.2498-.8197-1.4894-2.5763-1.2228-4.047Z" style="fill:#fafafa;"></path></g><path d="M337.68489,76.004c-5.7741-3.3988-11.4294-5.8639-11.6608-5.6733-.2314,.1905-2.3558,6.7289-1.7659,6.5021s8.5442,.4729,15.1232,4.376,19.4877,13.6231,25.4352,19.5735c5.4469,5.4495,11.2009,12.8598,18.1333,27.527s4.2903,22.3477,4.2903,22.3477c0,0,3.61081,.2529,5.5556-2.0671,0,0-.5046-7.5199-3.7344-15.216-3.2298-7.696-10.7409-21.2887-17.8517-29.7004-6.7106-7.9382-18.0802-17.0861-22.8578-20.5307-4.7777-3.4445-10.667-7.1388-10.667-7.1388" style="fill:#e6e6e6;"></path></g><path d="M342.83569,80.7818s19.9067-22.8093,41.8935-16.3413c21.98681,6.468,39.8489,19.8383,44.8996,28.773,0,0-.97-.1625-5.7204-1.011-4.13739-.739-35.7987,2.3288-47.6579,1.9901-12.777-.3649-28.61949-4.9005-33.4148-13.4108Z" style="fill:#e6e6e6;"></path><path d="M346.59628,79.6958c23.53519-4.94993,58.61624-3.92847,78.99692,9.90021,1.41925,1.12544,2.76388,2.33622,4.03558,3.61749-1.35751-1.18841-2.75854-2.32611-4.21536-3.37882-21.16587-12.89851-54.76935-13.81606-78.81714-10.13888h0Z" style="fill:#fff; opacity:.3;"></path><path d="M379.758,77.4836c4.86643,4.65853,11.71959,11.09183,16.4531,15.76667-6.3196-4.26526-11.9555-9.60477-16.4531-15.76667h0Z" style="fill:#fff; opacity:.3;"></path><path d="M396.2959,79.0728c2.80419-3.11535,7.14362-4.50857,11.23608-4.70129-3.84356,1.5815-7.57581,2.70188-11.23608,4.70129h0Z" style="fill:#fff; opacity:.3;"></path><path d="M359.05869,78.0489c2.88806-2.87571,5.87371-5.63045,9.02534-8.21392,3.20772-2.44361,6.36271-5.33786,10.31228-6.49584-3.15053,1.5276-6.87345,5.12777-9.67966,7.2693-3.15274,2.54556-6.26544,5.1612-9.65796,7.44046h0Z" style="fill:#fff; opacity:.3;"></path></g><g><g><g><path d="M89.5311,188.0677c-.3242,.6213-4.3357-6.9999-18.1137-6.0218-13.7779,.978-24.6981,14.7871-22.1703,34.5607,2.7505,21.5152,16.1081,34.5693,40.6084,35.209,24.5003,.6397,31.9532-16.2448,34.0546-20.1782,5.5852-10.4543,8.6334-34.7854-4.9393-44.0966-14.9335-10.2448-26.9656-4.2142-29.4397,.5269Z" style="fill:#f0f0f0;"></path><path d="M99.2817,188.533c-2.3692,2.62-5.6163,4.582-9.1477,4.4986-2.3792-.0562-4.6705-.8778-6.8649-1.7989-2.0938-.8791-4.1458-1.8581-6.1465-2.9326,0,0,8.3898,.4481,11.3711,1.1946,2.9814,.7466,5.842-2.6543,8.1892-2.8269,2.3471-.1726,4.0378,.2736,2.5988,1.8652Z" style="fill:#e6e6e6;"></path><path d="M66.7636,189.05c-6.191,1.1674-10.081,4.7751-12.4196,10.6251-2.3384,5.8499-2.6455,15.0544,1.7052,23.3954,.1924-6.4768,4.0527-17.4301,8.9897-21.6267,4.9369-4.1967,11.6857-6.183,18.109-5.3297-9.7383-3.4686-11.4657-5.465-16.3843-7.0641Z" style="fill:#f5f5f5;"></path><path d="M118.9708,187.5408c-2.2955-1.5748-4.5221-2.7637-6.6563-3.6331,.3375,.2586,.6901,.4979,1.025,.7192,7.9734,5.2665,12.6362,14.8867,12.6416,24.4426,.0053,9.5557-4.3786,18.8724-11.1742,25.5904-10.6222,10.5008-30.3526,15.6357-44.597,11.1417-8.2279-2.5958-14.7174-10.0294-17.4795-15.9964,5.8537,13.5621,18.1424,21.5148,37.1251,22.0104,24.5003,.6397,31.9532-16.2449,34.0546-20.1782,5.5852-10.4543,8.6334-34.7854-4.9393-44.0966Z" style="fill:#e6e6e6;"></path><path d="M115.5164,191.5519c-1.9797-3.7755-6.8198-5.7768-10.8878-4.502l-.3515,.7497c-1.1488,1.8853-2.2975,3.7705-3.4463,5.6559-.2643,.4339-.5386,.9065-.4969,1.4128,.0757,.9221,1.1007,1.4187,1.988,1.6803,3.2545,.9594,6.7092,1.2331,10.0741,.7984,1.1665-.1507,2.4199-.4413,3.1656-1.351,.9962-1.2151,.6845-3.0526-.0452-4.4441Z" style="fill:#fafafa;"></path></g><path d="M118.989,102.285c4.7243-5.2243,9.6229-9.4746,9.9149-9.3562s4.4781,6.01,3.815,5.9678c-.663-.0421-8.4227,3.1597-13.796,9.1429s-15.2683,19.7911-19.3646,27.6296c-3.7516,7.1787-7.195,16.4209-9.5398,33.3135s2.7195,23.7672,2.7195,23.7672c0,0-3.5428,1.3885-6.2229-.3277,0,0-1.8572-7.7024-1.0358-16.438,.8213-8.7356,4.0844-24.7321,8.5742-35.4054,4.2371-10.0725,12.7679-22.8227,16.4781-27.7798,3.7104-4.957,8.4574-10.5139,8.4574-10.5139" style="fill:#e6e6e6;"></path></g><path d="M115.3234,108.6968s-27.1386-16.6256-47.1626-3.227c-20.024,13.3986-33.7409,32.4251-35.9997,42.9756,0,0,.922-.4679,5.4209-2.812,3.9183-2.0417,36.6445-8.9147,48.435-12.9816,12.703-4.3816,27.1705-13.9106,29.3064-23.955Z" style="fill:#e6e6e6;"></path><path d="M111.2095,108.7892c-25.21006,3.81036-58.77915,15.34998-75.88792,34.93705-1.12892,1.51572-2.17492,3.09871-3.16048,4.71915,.87589-1.6834,1.84623-3.31926,2.91801-4.89252,16.09331-20.2388,50.96418-32.30405,76.13038-34.76369h0Z" style="fill:#fff; opacity:.3;"></path><path d="M77.247,116.992c-2.60771,7.58112-6.58035,14.70279-11.55016,20.98788,3.2972-6.12294,8.16652-14.8113,11.55016-20.98788h0Z" style="fill:#fff; opacity:.3;"></path><path d="M61.1559,123.7838c-4.28832-.88949-8.40062-.84207-12.74931-1.1848,4.17054-1.05699,8.94478-1.0255,12.74931,1.1848h0Z" style="fill:#fff; opacity:.3;"></path><path d="M98.1899,111.0537c-4.0995-1.23605-8.04332-2.88993-12.01762-4.4524-3.50291-1.27622-8.33438-3.70323-12.0045-4.22664,2.16934-.15131,4.2825,.54162,6.32721,1.12888,4.09355,1.27454,8.04981,2.92783,11.93168,4.73074,1.44819,.6692,4.34555,2.08587,5.76322,2.81942h0Z" style="fill:#fff; opacity:.3;"></path></g><g><g><path d="M443.80149,327.8689c-.0428,.5327,5.6396-2.7611,14.1398,3.4602,8.5002,6.2213,9.9495,19.5687,.295,31.3118-10.5048,12.7774-24.4265,15.7878-40.5069,6.2611-16.08039-9.5267-14.0431-23.4534-13.8042-26.8458,.63481-9.0168,8.5375-25.965,21.0795-26.4712,13.7996-.557,19.1226,8.2186,18.7968,12.2839Z" style="fill:#f0f0f0;"></path><path d="M437.31639,324.2135c.4669,2.6531,1.76761,5.2374,4.0819,6.6162,1.5591,.929,3.372,1.328,5.1628,1.6234,1.7087,.2819,3.43091,.4822,5.1588,.6,0,0-5.5995-3.1144-7.8275-3.8418-2.2281-.7275-2.6956-4.0842-4.1412-5.1479-1.4457-1.0637-2.7184-1.4615-2.4348,.1501Z" style="fill:#e6e6e6;"></path><path d="M458.10489,337.74c3.52411,3.2655,4.5725,7.1734,3.7092,11.8997s-4.3992,10.7946-10.5926,14.4156c2.5034-4.2604,4.4544-12.8995,2.969-17.6124-1.48549-4.7129-5.0376-8.7335-9.5316-10.7884,7.6956,1.711,9.62111,1.1226,13.446,2.0855Z" style="fill:#f5f5f5;"></path><path d="M425.00469,315.585c2.1212-.0857,4.0414,.0499,5.7722,.3544-.3228,.0301-.6476,.0415-.9536,.0485-7.2854,.166-14.19929,4.4865-18.0796,10.6549-3.8802,6.1684-4.8291,13.9631-3.1664,21.0583,2.599,11.0902,13.2566,22.4106,24.278,25.2876,6.3662,1.6619,13.5726-.5055,17.777-3.2381-9.2821,6.3828-20.4439,6.5327-32.9029-.8486-16.08039-9.5267-14.043-23.4535-13.8042-26.8458,.63481-9.0168,8.5375-25.965,21.0795-26.4712Z" style="fill:#e6e6e6;"></path><path d="M425.60809,319.5765c2.8101-1.6348,6.7475-.9635,8.8572,1.51l-.0772,.6268c-.02309,1.6835-.04609,3.3669-.0692,5.0504-.0053,.3874-.02,.8039-.2523,1.114-.4229,.5646-1.2863,.4695-1.9655,.2784-2.4907-.7007-4.8326-1.9256-6.82909-3.5714-.69211-.5707-1.38361-1.2668-1.49611-2.1568-.1503-1.1887,.7964-2.2488,1.8322-2.8514Z" style="fill:#fafafa;"></path></g><path d="M459.58139,260.5242c-.9312-5.2902-2.3701-10.0222-2.6067-10.0641-.2366-.0421-5.3299,2.0641-4.88469,2.3059,.44529,.2418,4.15709,5.4574,5.19939,11.501,1.0424,6.0435,1.8301,18.9743,1.2952,25.6978-.4898,6.1576-2.0159,13.5227-7.355,25.3823-5.3392,11.8596-11.3985,14.2442-11.3985,14.2442,0,0,1.7244,2.3339,4.1513,2.313,0,0,4.3242-4.2203,7.3378-10.1945,3.0137-5.9742,7.3964-17.6276,8.8273-26.3413,1.3503-8.2233,1.0144-19.9176,.6296-24.6238-.3849-4.7063-1.1957-10.2205-1.1957-10.2205" style="fill:#e6e6e6;"></path></g><g><path d="M256.63089,75.1252s-9.4871-34.7988-36.41989-39.2915c-26.9328-4.4926-53.0308,.5581-63.089,7.5117,0,0,1.1244,.33,6.6581,1.8891,4.8196,1.358,37.1683,21.1017,50.0581,26.9019,13.8875,6.2492,33.2289,9.6203,42.7927,2.9888Z" style="fill:#e6e6e6;"></path><path d="M253.16359,72.0065c-23.61601-16.46426-60.55515-33.10293-89.77187-30.12103-2.10878,.37965-4.20026,.87984-6.26973,1.45993,2.03276-.7011,4.10536-1.29164,6.21196-1.75231,29.02798-4.1258,67.07545,12.95844,89.82964,30.41341h0Z" style="fill:#fff; opacity:.3;"></path><path d="M218.7618,52.4004c-8.07214,4.14532-16.87771,6.92771-25.83285,8.35225,7.33518-2.33492,18.61953-5.92712,25.83285-8.35225h0Z" style="fill:#fff; opacity:.3;"></path><path d="M200.20619,45.5092c-2.76524-4.1077-6.22372-7.29425-9.60267-10.87944,4.2084,2.44362,8.09505,6.14147,9.60267,10.87944h0Z" style="fill:#fff; opacity:.3;"></path><path d="M240.659,63.7641c-2.37755-4.22692-4.33623-8.65937-6.40046-13.03613-1.90744-3.76966-4.02111-9.53144-6.68586-12.78361,3.56789,3.34351,5.4252,8.08031,7.59288,12.36339,1.97787,4.26091,3.86304,9.03617,5.49344,13.45636h0Z" style="fill:#fff; opacity:.3;"></path></g><g><path d="M131.913,341.2184s-30.7358-18.8752-53.4455-3.7151c-22.7097,15.1601-38.2785,36.7061-40.8514,48.6602,0,0,1.0455-.5291,6.147-3.1802,4.4431-2.309,41.5403-10.058,54.9075-14.6525,14.4017-4.9501,30.8094-15.7316,33.2424-27.1124Z" style="fill:#e6e6e6;"></path><path d="M127.2506,341.31812c-28.44975,4.1472-66.8423,17.33789-86.06306,39.4895-1.27747,1.72018-2.45982,3.51645-3.57144,5.3559,1.00202-1.90253,2.10877-3.75174,3.32918-5.52951,18.29381-22.85247,57.81188-36.48301,86.30532-39.31589h0Z" style="fill:#fff; opacity:.3;"></path><path d="M88.7508,350.57269c-3.04726,8.5474-7.56222,16.60314-13.11567,23.77138,3.74931-6.72307,9.51702-17.06591,13.11567-23.77138h0Z" style="fill:#fff; opacity:.3;"></path><path d="M70.5064,358.25009c-4.82763-1.10184-9.53013-1.05757-14.44751-1.3584,4.74068-1.09917,10.10531-1.06379,14.44751,1.3584h0Z" style="fill:#fff; opacity:.3;"></path><path d="M112.4927,343.8685c-4.62661-1.45408-9.0885-3.3447-13.58925-5.1225-3.97087-1.44252-9.4557-4.19621-13.62445-4.74305,2.45533-.14117,4.83952,.6576,7.15242,1.33558,4.62921,1.46832,9.10903,3.34612,13.51337,5.37461,1.64223,.75429,4.93413,2.33983,6.54791,3.15536h0Z" style="fill:#fff; opacity:.3;"></path></g><polygon points="230.02989 219.0776 232.57629 220.5093 229.99689 221.8808 228.56519 224.4272 227.19349 221.848 224.64709 220.4159 227.22649 219.0445 228.65839 216.498 230.02989 219.0776" style="fill:#ebebeb;"></polygon><polygon points="244.21959 281.1025 249.81159 284.2466 244.14709 287.2588 241.00239 292.8512 237.99039 287.1864 232.39839 284.0418 238.063 281.03 241.20739 275.4376 244.21959 281.1025" style="fill:#ebebeb;"></polygon><polygon points="426.66849 110.4605 429.21479 111.8922 426.63539 113.2638 425.20369 115.8101 423.832 113.2309 421.28559 111.7988 423.865 110.4275 425.29689 107.8809 426.66849 110.4605" style="fill:#ebebeb;"></polygon><polygon points="319.949 135.7521 325.541 138.8962 319.87649 141.9085 316.73179 147.5008 313.71969 141.836 308.12769 138.6915 313.79239 135.6796 316.93669 130.0873 319.949 135.7521" style="fill:#ebebeb;"></polygon><polygon points="423.57269 247.221 430.17079 250.9309 423.48719 254.4851 419.77659 261.0837 416.22259 254.3996 409.62439 250.6893 416.30829 247.1355 420.01839 240.5369 423.57269 247.221" style="fill:#ebebeb;"></polygon><polygon points="459.86249 214.3343 462.77929 215.9743 459.82469 217.5455 458.18429 220.4626 456.61319 217.5077 453.69639 215.8675 456.65109 214.2965 458.29129 211.3794 459.86249 214.3343" style="fill:#ebebeb;"></polygon><polygon points="177.0597 282.5577 179.9765 284.1977 177.0219 285.7689 175.3816 288.686 173.8104 285.7311 170.8936 284.0909 173.8483 282.5199 175.4885 279.6028 177.0597 282.5577" style="fill:#ebebeb;"></polygon><polygon points="242.36109 413.1213 247.07389 415.7711 242.3 418.3098 239.64969 423.0229 237.11119 418.2487 232.39839 415.5986 237.17239 413.0602 239.82239 408.3471 242.36109 413.1213" style="fill:#ebebeb;"></polygon><polygon points="86.3892 289.2643 89.3061 290.9043 86.3514 292.4755 84.7111 295.3926 83.14 292.4377 80.2231 290.7975 83.1779 289.2265 84.818 286.3094 86.3892 289.2643" style="fill:#ebebeb;"></polygon><polygon points="388.13669 352.2207 391.05349 353.8607 388.09889 355.4319 386.45859 358.349 384.88739 355.3941 381.97059 353.7539 384.92529 352.1829 386.56549 349.2658 388.13669 352.2207" style="fill:#ebebeb;"></polygon><polygon points="65.2962 71.2104 67.2626 72.316 65.2707 73.3752 64.165 75.3416 63.1057 73.3498 61.1393 72.2439 63.1312 71.1849 64.237 69.2183 65.2962 71.2104" style="fill:#ebebeb;"></polygon><polygon points="168.9864 100.0968 174.5784 103.2409 168.914 106.2532 165.7693 111.8455 162.7572 106.1807 157.1652 103.0362 162.8299 100.0243 165.9742 94.4319 168.9864 100.0968" style="fill:#ebebeb;"></polygon><polygon points="147.4381 251.3331 154.0716 255.0629 147.3521 258.6361 143.6217 265.2701 140.0486 258.5502 133.4151 254.82 140.1348 251.2471 143.8648 244.6132 147.4381 251.3331" style="fill:#ebebeb;"></polygon></g><g id="freepik--Shadow--inject-2"><ellipse cx="252.17147" cy="456.97377" rx="155.66897" ry="8.48062" style="fill:#f5f5f5;"></ellipse></g><g id="freepik--Cherries--inject-2"><g><g><path d="M275.21459,150.6242c-.30259,.9229,7.3289,28.7707,15.3697,40.094l2.8411-3.0545s-6.8122-10.188-10.5692-28.2915c-3.7569-18.1035-1.9941-20.7789-2.9868-20.193-.99239,.5858-4.6548,11.445-4.6548,11.445Z" style="fill:#263238;"></path><path d="M289.08739,183.6445s-18.50339,68.5948,21.3332,100.46c39.83641,31.8652,91.7039,44.3448,114.44441,42.1664,0,0-1.53321-1.5626-9.13851-9.1472-6.6242-6.6061-29.3179-72.9804-45.0579-94.1844-16.9581-22.8452-59.9403-41.3983-81.5812-39.2948Z" style="fill:#263238;"></path><path d="M289.95779,185.05611c14.08814,29.9404,33.01332,57.54466,54.93627,82.27612,16.43914,18.59589,35.11867,35.29234,56.92474,47.32128l21.1761,12.9895-21.43912-12.54904c-7.12457-4.18985-14.42194-8.1991-21.05658-13.21982-13.32068-9.90212-25.28373-21.53738-36.3448-33.88201-21.91466-24.8267-40.75329-52.61843-54.19662-82.93603h0Z" style="fill:#fff; opacity:.1;"></path><path d="M280.508,144.7213c-.43451,.4972-3.09,10.1225-3.58251,12.9823l1.0291,3.4483,3.4857-9.351-.93229-7.0796Z" style="opacity:.3;"></path><path d="M307.48929,281.5994c-.03745-14.40888,1.13478-28.80007,2.40053-43.14527,.47083-4.92812,.95426-9.85392,1.64402-14.77468,5.74947,.28232,11.47564,.7795,17.19903,1.32578,11.14719,1.08549,22.27755,2.53202,33.23151,4.9072,5.44999,1.25187,10.92506,2.64245,16.02363,4.97735-10.43915-4.06324-21.64516-5.5784-32.67865-7.11543-11.08051-1.45161-22.23106-2.42589-33.38001-3.10162l.50552-.41313c-.68079,4.7296-1.17688,9.50935-1.66089,14.28036-1.28286,13.88836-2.84717,29.18767-3.2847,43.05945h0Z" style="fill:#fff; opacity:.1;"></path><path d="M391.383,263.26419c-15.0232-3.8407-30.26091-6.79776-45.53474-9.4373-5.09661-.83382-10.20311-1.62659-15.32164-2.2065l.52332-.45561c-.30243,7.82066-.49869,15.64818-.71414,23.47285-.0472,7.81009-.60174,15.68295,.23887,23.45838-1.19492-7.7415-.83676-15.65431-.93194-23.46795,.00975-7.83574,.2227-15.66563,.45714-23.49765l.0152-.50754c5.33563,.52632,10.62494,1.35347,15.89169,2.27147,15.27742,2.71226,30.51503,5.87868,45.37625,10.36984h0Z" style="fill:#fff; opacity:.1;"></path><path d="M361.74139,313.48792c-4.24543-10.90251-7.76202-22.38422-7.64182-34.21437l.0181-.60613,.58505,.18411c16.558,5.18859,33.86506,10.78136,50.24806,16.45685-16.64775-4.82459-34.01805-10.25103-50.52854-15.5744l.60272-.42188c-.1217,2.88806,.09061,5.79791,.45676,8.68387,1.13602,8.6886,3.43323,17.20436,6.25967,25.49194h0Z" style="fill:#fff; opacity:.1;"></path><path d="M356.72528,209.29359c-14.56033-2.87548-30.58828-7.49688-45.11219-10.53972-4.99048-.98331-10.06741-2.19349-15.14378-2.32908l.42843-.30474c-2.26415,6.43939-4.36415,12.95227-6.30314,19.49968-1.89367,6.56375-3.66735,13.17213-4.8193,19.91957,.84484-6.79663,2.42201-13.4861,4.19937-20.09406,1.80882-6.71983,3.87282-13.36347,6.16462-19.94034,5.3368,.06069,10.49852,1.2195,15.67765,2.30036,15.11611,3.26466,29.91276,7.75794,44.90834,11.48832h0Z" style="fill:#fff; opacity:.1;"></path><path d="M300.08559,190.7182c-1.66,1.0671,31.95,59.4504,52.3197,65.6314,20.36971,6.1809,22.168-19.857,5.7606-37.2902-16.4075-17.4332-52.3792-32.006-58.0803-28.3412Z" style="fill:#fff; opacity:.1;"></path><path d="M424.63209,326.2879c-20.3535-7.3959-73.11809-27.0696-99.5912-41.6144-24.2422-13.3191-35.6413-44.517-40.1461-59.9543,.772,20.5172,6.4778,44.1488,25.5258,59.3853,39.7055,31.7605,91.3555,44.2585,114.2115,42.1834Z" style="opacity:.2;"></path></g><g><path d="M272.94029,137.3697c-.63029-.3346-21.7465,1.7029-30.9511,6.1061l1.8556,2.4393s8.2288-3.6559,21.8054-4.1087,15.2927,1.1584,14.99281,.3664c-.29981-.7919-7.70271-4.8031-7.70271-4.8031Z" style="fill:#263238;"></path><path d="M247.29779,143.2779s-47.3424-21.9856-75.4001,2.8638c-28.0576,24.8494-43.5876,60.8364-44.8583,77.5722,0,0,1.3233-.9142,7.7666-5.4704,5.612-3.9683,56.506-12.0856,73.82779-20.8253,18.6625-9.416,37.4767-38.2099,38.664-54.1403Z" style="fill:#263238;"></path><path d="M246.16679,143.7312c-23.519,6.5982-45.96692,16.88702-66.68649,29.77619-15.60933,9.61512-30.00005,21.17992-41.5157,35.50972-3.99892,4.58679-6.85479,10.11123-10.92521,14.69679,3.89006-4.73268,6.62239-10.26067,10.54286-15.02312,3.94653-4.65662,7.74236-9.49153,12.20319-13.72989,8.83094-8.51048,18.80617-15.77109,29.16839-22.29557,20.81396-12.83635,43.43243-23.08266,67.21296-28.93412h0Z" style="fill:#fff; opacity:.1;"></path><path d="M174.07829,144.3333c10.44957,1.70787,20.73462,4.32548,30.96584,7.02727,3.54748,.9643,7.09227,1.93888,10.61019,3.0664-.92181,4.17143-2.01989,8.29148-3.14555,12.40536-3.44958,11.77659-6.75067,23.97526-13.44288,34.38839,4.19515-7.07664,6.67092-14.99651,9.1408-22.79941,2.42659-7.83965,4.51325-15.7927,6.40223-23.7732l.32094,.56851c-3.33186-1.08682-6.72983-2.04842-10.12099-2.99947-9.88857-2.68774-20.75883-5.75681-30.73058-7.88387h0Z" style="fill:#fff; opacity:.1;"></path><path d="M176.84639,207.3647c4.58005-10.42993,8.60182-21.09621,12.41609-31.82508,1.23471-3.58605,2.44618-7.18253,3.51297-10.80808l.35974,.59331c-11.15042-2.15791-22.64032-5.15122-33.89064-6.34482,5.75711,.05753,11.45074,1.28286,17.12337,2.17405,5.6776,.96163,11.31938,2.09856,16.96307,3.24044l.49672,.10051-.13683,.49303c-4.39279,14.56197-10.05109,28.77268-16.8445,42.37665h0Z" style="fill:#fff; opacity:.1;"></path><path d="M144.19859,179.616c8.42475-1.79159,17.17661-2.93214,25.75254-1.36771l.59386,.12037-.28079,.54582c-5.81352,11.34714-12.05074,23.16554-18.31548,34.25984,3.99874-8.44996,8.69595-17.71868,13.00021-26.07734,1.46122-2.8888,2.9903-5.74233,4.49355-8.60927l.31296,.66579c-8.41355-1.60328-17.13115-.70028-25.55685,.46251h0Z" style="fill:#fff; opacity:.1;"></path><path d="M220.25879,189.0327c2.23957-6.13546,6.1728-14.83451,8.77103-20.9382,2.87028-6.91632,6.2226-13.80259,7.97116-21.09255l.2271,.47406c-4.37321-2.44683-8.82006-4.79177-13.30452-7.03409-4.50636-2.20644-9.05286-4.34349-13.78056-6.06053,4.82821,1.42334,9.48839,3.37964,14.05815,5.4794,4.57875,2.09794,9.06564,4.37612,13.47838,6.8155l.28366,.15681-.05621,.31761c-1.64008,7.46438-5.11331,14.31011-8.09108,21.29083-3.09938,6.90645-6.47655,13.67825-9.55712,20.59116h0Z" style="fill:#fff; opacity:.1;"></path><path d="M224.91049,142.98c.5568,1.0396-33.9597,21.7593-46.3926,19.0675-12.4328-2.6917-5.8053-16.8108,7.8284-21.1462,13.6337-4.3353,36.6522-1.4917,38.5642,2.0787Z" style="fill:#fff; opacity:.1;"></path><polygon points="262.55969 141.9685 265.51429 137.9664 263.375 138.2484 260.43479 142.1497 262.55969 141.9685" style="opacity:.3;"></polygon><path d="M208.63379,197.4182c13.5375-6.8302,27.1485-23.8546,34.0597-38.7714-3.71549,4.0247-8.7559,8.9652-15.2786,14.1302-16.07289,12.7274-50.5917,25.7002-75.8562,34.5877-12.8499,4.5203-20.1454,9.7197-24.2198,13.7408-.1305,.909-.2372,1.7883-.2995,2.6084,0,0,1.3232-.9142,7.7665-5.4703,5.6121-3.9683,56.506-12.0857,73.8279-20.8254Z" style="opacity:.3;"></path></g><g><path d="M309.17749,329.7779c-.3329,1.056-8.6779-9.6924-29.8421-4.3668-21.1643,5.3256-34.34,29.8234-24.9479,59.8873,10.2193,32.7117,34.6041,49.3319,72.8957,43.5624,38.2917-5.7695,45.2242-34.0945,47.4074-40.7937,5.8022-17.8059,3.8265-56.4993-19.8593-67.2372-26.0608-11.8147-43.114,.889-45.6538,8.948Z" style="fill:#28ABE3;"></path><g style="opacity:.3;"><path d="M324.47469,327.8096c-2.9623,4.7303-7.47169,8.679-12.98869,9.5242-3.71681,.5694-7.50821-.076-11.17631-.9032-3.5002-.7893-6.96269-1.7459-10.3719-2.865,0,0,13.1756-1.6194,18.0198-1.2812,4.8442,.3383,8.3555-5.7424,11.9593-6.6589,3.6038-.9166,6.3573-.6892,4.5578,2.1841Z"></path></g><g style="opacity:.3;"><path d="M274.02929,337.5924c-9.309,3.5254-14.3646,10.2119-16.3875,19.9583-2.02279,9.7465,.0409,24.1507,9.1124,35.9254-1.489-10.129,1.4921-28.2348,8.0139-36.1267,6.5218-7.8918,16.4725-12.8453,26.7006-13.2912-16.1073-2.7074-19.346-5.3363-27.4394-6.4658Z" style="fill:#fff;"></path></g><g style="opacity:.2;"><path d="M354.83129,320.8299c-4.006-1.8162-7.7981-3.0508-11.35829-3.8142,.59639,.3092,1.21089,.5841,1.79319,.8357,13.8583,5.9918,23.7684,19.6705,26.4149,34.5349,2.6467,14.8644-1.6008,30.5689-10.3179,42.8962-13.6257,19.269-38.3189,30.0801-61.7199,27.0218-13.5167-1.7665-26.255-8.1224-36.1928-17.4346,12.8512,19.4822,34.1643,28.4612,63.8327,23.9911,38.2917-5.7695,45.2242-34.0945,47.4074-40.7937,5.8022-17.8059,3.8263-56.4993-19.8593-67.2372Z"></path></g><g style="opacity:.3;"><path d="M350.56469,328.0236c-4.122-5.3267-12.2046-7.1039-18.1811-3.9977l-.3399,1.2636c-1.2665,3.2501-2.5332,6.5001-3.79969,9.7502-.29151,.7481-.58761,1.5589-.38311,2.3353,.3725,1.4136,2.1042,1.9033,3.5569,2.065,5.3278,.5941,10.7778,.0661,15.8926-1.5394,1.7731-.5565,3.6428-1.3546,4.5517-2.9757,1.2143-2.1653,.222-4.9379-1.2974-6.9013Z" style="fill:#fff;"></path></g></g><g><path d="M198.00939,325.6141c-.8658,.6905-1.7887-12.8859-22.3212-20.2826-20.5323-7.3967-45.1399,5.5728-54.1312,35.7589-9.783,32.8448,1.1698,60.2471,36.1598,76.8371,34.9902,16.59,56.5547-3.04,62.1058-7.3794,14.7543-11.5338,34.7162-44.7393,21.05941-66.871-15.026-24.3509-36.26651-23.3312-42.87261-18.063Z" style="fill:#28ABE3;"></path><g style="opacity:.3;"><path d="M211.79979,332.5209c-5.0985,2.2709-11.0443,3.0295-16.0933,.6509-3.4018-1.6025-6.1869-4.2546-8.7684-6.9887-2.4634-2.609-4.8021-5.3355-7.0058-8.1672,0,0,11.8354,6.0121,15.6656,8.9968,3.8304,2.985,10.138-.0997,13.6397,1.1519,3.5017,1.2514,5.6591,2.977,2.5622,4.3563Z"></path></g><g style="opacity:.3;"><path d="M164.4856,312.4755c-9.6913-2.2718-17.6187,.4535-24.7381,7.4105-7.1192,6.957-13.4485,20.0597-12.4956,34.893,4.4193-9.2349,17.0005-22.5923,26.8171-25.499,9.8167-2.9068,20.8376-1.4614,29.5726,3.8786-11.8524-11.2383-13.0718-15.2275-19.156-20.6831Z" style="fill:#fff;"></path></g><g style="opacity:.2;"><path d="M240.882,343.6771c-2.30981-3.7431-4.76661-6.8845-7.29421-9.5055,.32221,.5895,.6787,1.1607,1.02121,1.6946,8.15279,12.7076,8.73839,29.5889,2.636,43.3988-6.10221,13.8101-18.39351,24.4681-32.50761,29.8295-22.062,8.3801-48.8632,8.2967-73.1396-13.0168-10.244-8.9937-13.3361-29.3616-13.4472-33.6902-.2142,23.338,12.4558,42.6861,39.5662,55.54,34.9902,16.59,56.5547-3.04,62.1058-7.3794,14.7543-11.5338,34.7162-44.7393,21.05941-66.871Z"></path></g><g style="opacity:.3;"><path d="M233.32629,347.2636c-.44629-6.7207-6.1599-12.7073-12.8526-13.4665l-.9873,.8585c-2.86539,1.9894-5.7305,3.9787-8.5957,5.9683-.6595,.4578-1.35769,.9654-1.6214,1.7236-.4802,1.3808,.6831,2.7536,1.7981,3.699,4.08861,3.4671,8.9052,6.0717,14.0447,7.595,1.782,.5282,3.77891,.9097,5.43791,.0722,2.21609-1.1187,2.94079-3.9728,2.77629-6.4501Z" style="fill:#fff;"></path></g></g><path d="M305.88689,337.4067s-9.0966-9.748-16.7941-26.171c-7.69779-16.4229-18.66-48.3411-21.8546-72.0628-3.0147-22.3864-1.1888-54.0455,.2223-66.7668,1.4112-12.7214,4.04-27.5987,4.04-27.5987,0,0-37.539,38.4895-51.1139,81.7672-11.8305,37.7161-18.2014,67.0026-18.667,84.633l.014,23.4046c-3.15459-.226-6.1291-1.2089-8.88559-3.1084,0,0,1.5948-32.391,8.87369-63.3224,7.2789-30.9312,16.5416-60.8389,28.6951-81.0764,0,0,23.8014-34.4727,30.8206-43.4137,2.7393-3.4892,6.0011-8.1923,8.9987-12.6362,.6202-.9195,1.2291-1.8279,1.8197-2.7121,3.8696-5.7931,13.9006-18.3672,14.1009-18.6477,2.8582-4.0014,19.3214,.2287,12.8047,8.8033-.3335,.4388-9.0278,8.5024-11.4358,12.3146-1.4499,2.2956-3.0549,5.1108-4.5833,8.2939-2.2574,4.7012-4.3478,10.2047-5.5249,16.0207-3.2976,16.2932-6.4443,51.2671-5.5216,69.5265,.8453,16.7223,4.4031,36.7973,17.9408,69.3488,13.5377,32.5514,29.7687,39.4869,29.7687,39.4869,0,0-5.4669,5.536-13.7184,3.9167Z" style="fill:#263238;"></path><path d="M166.0457,320.7851c-.5665-3.817-4.0562-6.5348-7.9143-6.4545-3.0338,.0632-6.1818,1.9347-9.6307,3.6853-5.5878,2.8364-12.0721,11.1684-10.4553,13.2163,1.6168,2.048,12.2877-5.3893,23.6052-6.6827,3.8596-.4411,4.7119-1.63,4.3951-3.7644Z" style="fill:#fff; opacity:.5;"></path><path d="M282.19369,343.0141c-.6149-.9843-1.5524-1.7431-2.6033-2.2354-7.3507-3.4439-10.4587,1.8114-14.5385,7.1299-3.814,4.9722-6.0622,15.2879-3.7193,16.4363s8.75341-10.1691,18.40141-16.2251c3.17409-1.9924,3.52339-3.4033,2.45969-5.1057Z" style="fill:#fff; opacity:.5;"></path><path d="M149.1192,399.0905s17.7739,11.9632,41.7003,7.5198c23.9264-4.4435,27.3444-13.1342,27.3444-13.1342,0,0-23.5846,14.8432-69.0447,5.6144Z" style="opacity:.1;"></path><path d="M293.06389,416.9094s20.5957,5.9032,41.98811-5.6977c21.39239-11.601,21.96569-20.9221,21.96569-20.9221,0,0-17.8621,21.3892-63.9538,26.6198Z" style="opacity:.1;"></path><path d="M276.48129,124.3973c3.36764,2.12614,6.52944,4.0912,9.91805,6.18402-3.88843-.78311-7.5001-3.04133-9.91805-6.18402h0Z" style="opacity:.3;"></path><path d="M288.59839,129.3331c3.2423-4.1005,10.0681-10.4464,10.363-10.8345,6.5167-8.5746-9.9465-12.8047-12.8047-8.8032-.144,.2015-5.3614,6.7496-9.7244,12.5703,2.2478,1.4914,9.4901,6.2229,12.1661,7.0674Z" style="opacity:.3;"></path><path d="M275.96451,128.297c2.37545,1.31395,4.44694,2.28282,6.97162,3.28054-2.66831,.44348-5.60931-.9461-6.97162-3.28054h0Z" style="opacity:.3;"></path><path d="M281.547,120.5471c2.37546,1.31386,4.44699,2.28273,6.97162,3.28043-2.66832,.44349-5.60922-.94609-6.97162-3.28043h0Z" style="fill:#263238;"></path><path d="M263.45049,404.8697c11.9248,19.3866,32.1766,23.0113,32.1766,23.0113,0,0-1.4228-27.1518-16.4277-40.1304-15.0048-12.9786-26.0552-6.9665-26.0552-6.9665,0,0,4.4573,14.5766,10.3063,24.0856Z" style="opacity:.1;"></path></g></g></svg>
