<?xml version="1.0" standalone="no"?><svg xmlns="http://www.w3.org/2000/svg" viewBox="0 0 1440 320"><path fill="#6b2c70" fill-opacity="1" d="M0,32L17.1,48C34.3,64,69,96,103,90.7C137.1,85,171,43,206,69.3C240,96,274,192,309,197.3C342.9,203,377,117,411,96C445.7,75,480,117,514,144C548.6,171,583,181,617,176C651.4,171,686,149,720,117.3C754.3,85,789,43,823,37.3C857.1,32,891,64,926,90.7C960,117,994,139,1029,128C1062.9,117,1097,75,1131,58.7C1165.7,43,1200,53,1234,53.3C1268.6,53,1303,43,1337,80C1371.4,117,1406,203,1423,245.3L1440,288L1440,320L1422.9,320C1405.7,320,1371,320,1337,320C1302.9,320,1269,320,1234,320C1200,320,1166,320,1131,320C1097.1,320,1063,320,1029,320C994.3,320,960,320,926,320C891.4,320,857,320,823,320C788.6,320,754,320,720,320C685.7,320,651,320,617,320C582.9,320,549,320,514,320C480,320,446,320,411,320C377.1,320,343,320,309,320C274.3,320,240,320,206,320C171.4,320,137,320,103,320C68.6,320,34,320,17,320L0,320Z"></path></svg>