<svg xmlns="http://www.w3.org/2000/svg" viewBox="0 0 500 500"><g id="freepik--background-complete--inject-141"><path d="M185.54,226.17a5.43,5.43,0,0,0-2.13,1.27,4.09,4.09,0,0,1-.94.83,4.4,4.4,0,0,1-1.49.51c.89,1.35,2.1,3.12,3.05,4.46l.07,0a7.69,7.69,0,0,0-2.42-4.43l-.12.46a8.41,8.41,0,0,1,2.16-1.35,4.75,4.75,0,0,0,1.87-1.66l-.05-.06Z" style="fill:#c7c7c7"></path><path d="M183.83,225.44a5.39,5.39,0,0,0-2.28,1,4.52,4.52,0,0,1-1,.7,4.66,4.66,0,0,1-1.54.32c.44.86.85,1.75,1.3,2.6l1.16,2.2.07,0a6.18,6.18,0,0,0-.53-2.51,9.64,9.64,0,0,0-1.31-2.18l-.18.44c.44-.19.76-.46,1.14-.64a11.36,11.36,0,0,0,2.29-1,4.44,4.44,0,0,0,1-.84l0-.07Z" style="fill:#c7c7c7"></path><path d="M195,231.34a5.39,5.39,0,0,0-1.84,1.68,4.31,4.31,0,0,1-.75,1,4.64,4.64,0,0,1-1.37.8c1.15,1.15,2.68,2.64,3.88,3.76l.06,0a7.63,7.63,0,0,0-3.25-3.86l0,.48a8.61,8.61,0,0,1,1.86-1.76,4.8,4.8,0,0,0,1.49-2l0,0Z" style="fill:#c7c7c7"></path><path d="M193.16,231a5.43,5.43,0,0,0-2,1.43,3.87,3.87,0,0,1-.87.89,4.61,4.61,0,0,1-1.45.62c1,1.28,2.32,3,3.36,4.22l.07,0a7.63,7.63,0,0,0-2.74-4.24l-.08.47c.39-.27.65-.6,1-.86.65-.51,1.52-.76,2.06-1.43a4.86,4.86,0,0,0,.76-1l-.05-.06Z" style="fill:#c7c7c7"></path><path d="M199.9,231.58a5.47,5.47,0,0,0-1.23,2.17,4.26,4.26,0,0,1-.4,1.17,4.83,4.83,0,0,1-1.05,1.19c1.44.73,3.36,1.68,4.85,2.37l.05-.06a7.67,7.67,0,0,0-4.29-2.65l.12.45a8.38,8.38,0,0,1,1.22-2.24,4.83,4.83,0,0,0,.8-2.37l-.07,0Z" style="fill:#c7c7c7"></path><path d="M198.05,231.8a5.52,5.52,0,0,0-1.5,2,3.72,3.72,0,0,1-.55,1.11,4.39,4.39,0,0,1-1.19,1c1.34.91,3.13,2.09,4.51,3l.06,0a7.69,7.69,0,0,0-3.92-3.18l.06.47a8.84,8.84,0,0,1,1.5-2.07,4.67,4.67,0,0,0,1.09-2.24l-.06,0Z" style="fill:#c7c7c7"></path><path d="M182.84,221.2s4.64-8.57,11.08-11.8,12-3.63,14-.81-7,6.76-10.63,8.17S182.84,221.2,182.84,221.2Z" style="fill:#ebebeb;opacity:0.7000000000000001"></path><path d="M185.74,219.88s7-7.34,14.41-8.81,13.11-.31,14.3,3.07-8.93,4.85-12.95,5.28S185.74,219.88,185.74,219.88Z" style="fill:#ebebeb;opacity:0.7000000000000001"></path><path d="M188.43,220.11c1.77-.63,6.85-.58,9.91.21,4,1,8.89,9.8,9.34,11.39s-.24,4.71-3.12,4.83-9.89-1.68-11.55-2.83c-2.87-2-7-5.85-7.34-7S187.49,220.44,188.43,220.11Z" style="fill:#dbdbdb"></path><path d="M190.61,231.86c-.91-.75-1.83-1.57-2.61-2.34a17.55,17.55,0,0,0,4.12-9.84,29.54,29.54,0,0,1,3.49.17A21.09,21.09,0,0,1,190.61,231.86Z" style="fill:#c7c7c7"></path><path d="M201.92,222.81a24.17,24.17,0,0,1-5.54,12.25h0a13.89,13.89,0,0,1-3.36-1.35l-.08-.06a20.8,20.8,0,0,0,5.69-13.25A9.09,9.09,0,0,1,201.92,222.81Z" style="fill:#c7c7c7"></path><path d="M207,230.11a22.6,22.6,0,0,1-3.42,6.4,29.22,29.22,0,0,1-4.11-.65,19.82,19.82,0,0,0,5.05-9.85A38.6,38.6,0,0,1,207,230.11Z" style="fill:#c7c7c7"></path><path d="M204.56,236.54c-2.88.11-9.89-1.68-11.55-2.83-2.87-2-7-5.85-7.34-7a3.11,3.11,0,0,1,.08-1.16,98.79,98.79,0,0,0,11,6.74c2,.79,7.68,1.75,8.54.68s1.55-1.6.43-5.1v0a21.8,21.8,0,0,1,2,3.88C208.14,233.3,207.44,236.42,204.56,236.54Z" style="opacity:0.1"></path><path d="M191,221.1a22.16,22.16,0,0,1,6.74.54,8.85,8.85,0,0,1,4.06,3.45,30.28,30.28,0,0,0-3.66-2.4c-2.28-.77-4.82-.86-7.14-1.59Z" style="fill:#fff;opacity:0.30000000000000004"></path><path d="M185.23,217.08c-3.07-.29-5.29,1.59-6.45,4.18a4.66,4.66,0,0,0,2.69,6.06c2.12.86,6.17,0,7.78-2.5S189,217.43,185.23,217.08Z" style="fill:#c7c7c7"></path><path d="M189.64,224a3.2,3.2,0,0,1-.39.86c-1.61,2.46-5.66,3.35-7.78,2.49a4.8,4.8,0,0,1-3-5,5.85,5.85,0,0,0,4.82,3.8A7.08,7.08,0,0,0,189.64,224Z" style="opacity:0.1"></path><path d="M176.06,217.14c-2,.54-2.81,2.48-3.16,3.93s-.16,2.78.93,3.2,3.22,0,4.7-1.17,1.9-3.64,1.35-4.59A3.89,3.89,0,0,0,176.06,217.14Z" style="fill:#c7c7c7"></path><path d="M171.62,213.91a6.49,6.49,0,0,0,1.94.92c.73.61.82,1.68,1.38,2.42a3.92,3.92,0,0,0,.43.63h.07a2.55,2.55,0,0,0-.53-2.24c-.3-.43-.84-.63-1.2-1a1.76,1.76,0,0,0-2.08-.79v.07Z" style="fill:#c7c7c7"></path><path d="M169.49,216.91a6.4,6.4,0,0,0,2.12-.26c.7,0,1.26.66,1.84,1a7.62,7.62,0,0,0,1.32.63l.06-.05a2.58,2.58,0,0,0-1.65-1.6,8,8,0,0,0-1.54-.2,1.78,1.78,0,0,0-2.19.44l0,.07Z" style="fill:#c7c7c7"></path><path d="M214.87,122.22s.07,24.15.07,24.19-18.78,10.92-18.79,10.94l.06-.12c0,.11.09,22,.07,22.05s-19.3,11.17-19.34,11.24l.12-.22,0,21.71v.16l-.14.08-18.79,10.88.15-.26,0,21.69v.18l-.16.1-20.9,12.09-.17.1-.17-.1L116,244.88l-.19-.11v-.21l0-21.42.2.34L96.71,212.37l-.2-.12V212l0-22,.21.37-16.93-9.75h.46l-19,11-.24.14-.24-.14L39.8,179.6l-.25-.14v-.29l0-24.15v-.28l.24-.13,18.81-10.84-.23.39,0-19.78.22.38L39.84,113.89l-.2-.12v-.24l0-24.15v-.23l.2-.11L60.79,77l.18-.1.18.1,19,11h-.34l19-11,.16-.09.16.09,19,11h-.3l19-11,.14-.08.14.08,20.9,12.1.12.07v.15l-.06,22-.09-.17L175,121h-.14l19.06-10.93c.07-.08,20.88,12.14,21,12.14Zm0,0s-21.17-12.1-20.88-12l-19.06,11.09c0-.07-17-9.7-17-9.76l-.09-.06v-.11l-.06-22,.12.22L137,77.54h.28l-19,11-.15.08-.15-.08-19-11h.32l-19,11-.17.1-.17-.1-19-11h.36L40.24,89.72l.2-.34,0,24.15-.2-.36L59.07,124l.22.13v.25l0,19.78v.26l-.23.13L40.29,155.43l.24-.41,0,24.15-.25-.43,20.91,12.1h-.48l19-11,.23-.13.23.13,16.91,9.78.21.13V190l0,22-.2-.36,19.24,11.15.2.12v.22l0,21.42-.19-.32,20.91,12.09h-.34l20.92-12-.16.28,0-21.69v-.17l.15-.09,18.81-10.84-.14.24,0-21.71v-.15l.12-.07L196,179c-.21,1,0-22,0-21.77v-.08l.06,0c0,.06,19-11,18.79-10.74l.07-24.15Z" style="fill:#dbdbdb"></path><path d="M76.89,110.64c-.21-5.38-.47-13.1-.6-18.38l.3.52-8-4.44-8-4.49h.9C56.15,87,50.85,90,45.55,93.13l.5-.87c0,6.13,0,12.25-.1,18.38l-.45-.78,7.9,4.7,7.87,4.75h-.6c4.61-2.51,11.49-6.17,16.22-8.67Zm0,0c-5.24,3.3-10.56,6.64-15.91,9.88l-.31-.17-8.05-4.44-8-4.49-.44-.25c-.09-6.3-.08-12.6-.1-18.91v-.58l.5-.28C50,88.27,55.48,85.11,61,82l.44.26L69.32,87l7.87,4.75.3.19c-.13,6.25-.37,12.53-.6,18.71Z" style="fill:#dbdbdb"></path><path d="M95.68,143.48c-.21-5.37-.47-13.1-.59-18.37l.29.51-8-4.44-8-4.49h.9C75,119.83,69.64,122.88,64.35,126l.5-.86c0,6.12,0,12.25-.1,18.37l-.45-.78,7.9,4.7,7.87,4.75h-.6c4.61-2.51,11.48-6.16,16.21-8.67Zm0,0c-5.23,3.3-10.55,6.65-15.9,9.89l-.31-.18-8-4.44-8-4.49L63,144c-.09-6.3-.08-12.6-.11-18.9v-.58l.5-.29c5.47-3.13,10.93-6.29,16.43-9.36l.44.26,7.89,4.7L96,124.59l.31.18c-.13,6.25-.37,12.53-.61,18.71Z" style="fill:#dbdbdb"></path><path d="M133.75,143.48c-.21-5.37-.47-13.1-.6-18.37l.3.51-8-4.44-8-4.49h.9c-5.27,3.14-10.57,6.19-15.87,9.28l.5-.86c0,6.12,0,12.25-.1,18.37l-.45-.78,7.9,4.7,7.87,4.75h-.6c4.61-2.51,11.49-6.16,16.22-8.67Zm0,0c-5.24,3.3-10.56,6.65-15.91,9.89l-.31-.18-8-4.44-8-4.49L101,144c-.09-6.3-.08-12.6-.1-18.9v-.58l.51-.29c5.47-3.13,10.92-6.29,16.42-9.36l.44.26,7.9,4.7,7.87,4.75.3.18c-.13,6.25-.37,12.53-.6,18.71Z" style="fill:#dbdbdb"></path><path d="M171.81,143.48c-.21-5.37-.47-13.1-.6-18.37l.3.51-8-4.44-8-4.49h.89c-5.26,3.14-10.57,6.19-15.86,9.28l.5-.86c0,6.12,0,12.25-.1,18.37l-.45-.78,7.9,4.7,7.86,4.75h-.6c4.61-2.51,11.49-6.16,16.22-8.67Zm0,0c-5.24,3.3-10.56,6.65-15.9,9.89l-.32-.18-8-4.44-8-4.49-.44-.25c-.09-6.3-.08-12.6-.11-18.9v-.58l.5-.29c5.47-3.13,10.93-6.29,16.43-9.36l.43.26,7.9,4.7,7.87,4.75.31.18c-.14,6.25-.37,12.53-.61,18.71Z" style="fill:#dbdbdb"></path><path d="M209.87,143.48c-.21-5.37-.47-13.1-.6-18.37l.3.51-8-4.44-8-4.49h.9c-5.27,3.14-10.58,6.19-15.87,9.28l.5-.86c0,6.12,0,12.25-.1,18.37l-.45-.78,7.9,4.7,7.87,4.75h-.6c4.61-2.51,11.48-6.16,16.21-8.67Zm0,0c-5.23,3.3-10.56,6.65-15.9,9.89l-.31-.18-8-4.44-8-4.49-.44-.25c-.09-6.3-.08-12.6-.11-18.9v-.58l.5-.29c5.47-3.13,10.93-6.29,16.43-9.36l.44.26,7.89,4.7,7.87,4.75.31.18c-.14,6.25-.37,12.53-.61,18.71Z" style="fill:#dbdbdb"></path><path d="M115,110.64c-.21-5.38-.47-13.1-.6-18.38l.3.52-8.05-4.44-8-4.49h.9C94.22,87,88.91,90,83.62,93.13l.5-.87c0,6.13,0,12.25-.1,18.38l-.45-.78,7.9,4.7,7.86,4.75h-.6c4.61-2.51,11.49-6.17,16.22-8.67Zm0,0c-5.24,3.3-10.56,6.64-15.9,9.88l-.32-.17-8-4.44-8-4.49-.45-.25c-.08-6.3-.08-12.6-.1-18.91v-.58l.5-.28c5.47-3.13,10.92-6.29,16.43-9.36l.43.26,7.9,4.69,7.87,4.75.3.19c-.13,6.25-.36,12.53-.6,18.71Z" style="fill:#dbdbdb"></path><path d="M153,110.64c-.21-5.38-.47-13.1-.6-18.38l.3.52-8-4.44-8-4.49h.89C132.28,87,127,90,121.68,93.13l.5-.87c0,6.13,0,12.25-.1,18.38l-.45-.78,7.9,4.7,7.87,4.75h-.6c4.61-2.51,11.48-6.17,16.21-8.67Zm0,0c-5.24,3.3-10.56,6.64-15.9,9.88l-.31-.17-8.05-4.44-8-4.49-.44-.25c-.09-6.3-.08-12.6-.11-18.91v-.58l.5-.28c5.47-3.13,10.93-6.29,16.43-9.36l.43.26,7.9,4.69,7.87,4.75.31.19c-.14,6.25-.37,12.53-.61,18.71Z" style="fill:#dbdbdb"></path><path d="M76.89,176.28c-.21-5.38-.47-13.1-.6-18.37l.3.51-8-4.44-8-4.49h.9c-5.27,3.14-10.57,6.19-15.87,9.28l.5-.87c0,6.13,0,12.26-.1,18.38l-.45-.78,7.9,4.7L61.27,185h-.6c4.61-2.51,11.49-6.16,16.22-8.67Zm0,0c-5.24,3.3-10.56,6.65-15.91,9.89l-.31-.18-8.05-4.44-8-4.49-.44-.25c-.09-6.3-.08-12.6-.1-18.91v-.57l.5-.29c5.48-3.13,10.93-6.29,16.43-9.36l.44.26,7.9,4.7,7.87,4.75.3.18c-.13,6.25-.37,12.53-.6,18.71Z" style="fill:#dbdbdb"></path><path d="M133.75,209.13c-.21-5.38-.47-13.11-.6-18.38l.3.52-8-4.44-8-4.49h.9c-5.27,3.13-10.57,6.19-15.87,9.27l.5-.86c0,6.12,0,12.25-.1,18.38l-.45-.78,7.9,4.69,7.87,4.75h-.6c4.61-2.51,11.49-6.16,16.22-8.66Zm0,0c-5.24,3.3-10.56,6.64-15.91,9.88l-.31-.17-8-4.44-8-4.49-.45-.25c-.09-6.31-.08-12.61-.1-18.91v-.58l.51-.29c5.47-3.13,10.92-6.28,16.42-9.36l.44.26,7.9,4.7,7.87,4.75.3.18c-.13,6.25-.37,12.53-.6,18.72Z" style="fill:#dbdbdb"></path><path d="M171.81,209.13c-.21-5.38-.47-13.11-.6-18.38l.3.52-8-4.44-8-4.49h.89c-5.26,3.13-10.57,6.19-15.86,9.27l.5-.86c0,6.12,0,12.25-.1,18.38l-.45-.78,7.9,4.69,7.86,4.75h-.6c4.61-2.51,11.49-6.16,16.22-8.66Zm0,0c-5.24,3.3-10.56,6.64-15.9,9.88l-.32-.17-8-4.44-8-4.49-.44-.25c-.09-6.31-.08-12.61-.11-18.91v-.58l.5-.29c5.47-3.13,10.93-6.28,16.43-9.36l.43.26,7.9,4.7,7.87,4.75.31.18c-.14,6.25-.37,12.53-.61,18.72Z" style="fill:#dbdbdb"></path><path d="M115,176.28c-.21-5.38-.47-13.1-.6-18.37l.3.51L106.6,154l-8-4.49h.9c-5.26,3.14-10.57,6.19-15.86,9.28l.5-.87c0,6.13,0,12.26-.1,18.38l-.45-.78,7.9,4.7L99.33,185h-.6c4.61-2.51,11.49-6.16,16.22-8.67Zm0,0c-5.24,3.3-10.56,6.65-15.9,9.89l-.32-.18-8-4.44-8-4.49-.45-.25c-.08-6.3-.08-12.6-.1-18.91v-.57l.5-.29c5.47-3.13,10.92-6.29,16.43-9.36l.43.26,7.9,4.7,7.87,4.75.3.18c-.13,6.25-.36,12.53-.6,18.71Z" style="fill:#dbdbdb"></path><path d="M153,176.28c-.21-5.38-.47-13.1-.6-18.37l.3.51-8-4.44-8-4.49h.89c-5.26,3.14-10.57,6.19-15.86,9.28l.5-.87c0,6.13,0,12.26-.1,18.38l-.45-.78,7.9,4.7L137.4,185h-.6c4.61-2.51,11.48-6.16,16.21-8.67Zm0,0c-5.24,3.3-10.56,6.65-15.9,9.89l-.31-.18-8.05-4.44-8-4.49-.44-.25c-.09-6.3-.08-12.6-.11-18.91v-.57l.5-.29c5.47-3.13,10.93-6.29,16.43-9.36l.43.26,7.9,4.7,7.87,4.75.31.18c-.14,6.25-.37,12.53-.61,18.71Z" style="fill:#dbdbdb"></path><path d="M191.07,176.28c-.21-5.38-.46-13.1-.59-18.37l.3.51L182.73,154l-8-4.49h.9c-5.27,3.14-10.58,6.19-15.87,9.28l.5-.87c0,6.13,0,12.26-.1,18.38l-.45-.78,7.9,4.7,7.87,4.75h-.6c4.61-2.51,11.48-6.16,16.21-8.67Zm0,0c-5.23,3.3-10.55,6.65-15.9,9.89l-.31-.18-8.05-4.44-8-4.49-.44-.25c-.09-6.3-.08-12.6-.11-18.91v-.57l.5-.29c5.48-3.13,10.93-6.29,16.43-9.36l.44.26,7.9,4.7,7.86,4.75.31.18c-.13,6.25-.37,12.53-.61,18.71Z" style="fill:#dbdbdb"></path><path d="M153,241.67c-.21-5.38-.47-13.1-.6-18.38l.3.52-8-4.44-8-4.49h.89c-5.26,3.14-10.57,6.19-15.86,9.28l.5-.87c0,6.13,0,12.26-.1,18.38l-.45-.78,7.9,4.7,7.87,4.75h-.6c4.61-2.51,11.48-6.17,16.21-8.67Zm0,0c-5.24,3.3-10.56,6.65-15.9,9.89l-.31-.18-8.05-4.44-8-4.49-.44-.25c-.09-6.3-.08-12.6-.11-18.91v-.57l.5-.29c5.47-3.13,10.93-6.29,16.43-9.36l.43.26,7.9,4.7,7.87,4.75.31.18c-.14,6.25-.37,12.53-.61,18.71Z" style="fill:#dbdbdb"></path><path d="M90.42,171.26c.24,1.65-.68,6.08-1.9,8.62-1.59,3.31-10.08,6.06-11.55,6.18s-4.07-1-3.68-3.55,3.17-8.35,4.46-9.6c2.23-2.16,6.32-5.11,7.4-5.19S90.29,170.38,90.42,171.26Z" style="fill:#dbdbdb"></path><path d="M79.78,171.14c.81-.67,1.69-1.33,2.49-1.88a15.62,15.62,0,0,0,7.89,5.29,28.39,28.39,0,0,1-.76,3A18.83,18.83,0,0,1,79.78,171.14Z" style="fill:#c7c7c7"></path><path d="M85.73,182.57A21.57,21.57,0,0,1,76,175.62h0a12.49,12.49,0,0,1,1.76-2.7l.07-.06A18.49,18.49,0,0,0,88.4,180.1,8,8,0,0,1,85.73,182.57Z" style="fill:#c7c7c7"></path><path d="M78.48,185.72a20.19,20.19,0,0,1-5-4.1,27.06,27.06,0,0,1,1.27-3.47,17.68,17.68,0,0,0,7.73,6.11A34.82,34.82,0,0,1,78.48,185.72Z" style="fill:#c7c7c7"></path><path d="M73.29,182.51c.4-2.54,3.17-8.35,4.46-9.6,2.23-2.16,6.32-5.11,7.4-5.19a2.4,2.4,0,0,1,1,.26,88.37,88.37,0,0,0-7.77,8.41c-1,1.61-2.85,6.41-2.06,7.33s1.13,1.64,4.38,1.26h0A19.23,19.23,0,0,1,77,186.06C75.5,186.19,72.9,185,73.29,182.51Z" style="opacity:0.1"></path><path d="M89.1,173.36a19.91,19.91,0,0,1-1.63,5.8,7.94,7.94,0,0,1-3.71,3,27.48,27.48,0,0,0,2.72-2.79c1.07-1.86,1.58-4,2.62-6Z" style="fill:#fff;opacity:0.30000000000000004"></path><path d="M94,168.84c-.5-2.7-2.65-4.15-5.14-4.52a4.15,4.15,0,0,0-4.54,3.77,6.5,6.5,0,0,0,4,6.06C90.86,174.93,94.63,172.13,94,168.84Z" style="fill:#c7c7c7"></path><path d="M89.19,174.28a3.2,3.2,0,0,1-.83-.13,6.52,6.52,0,0,1-4-6.06,4.27,4.27,0,0,1,3.55-3.78,5.2,5.2,0,0,0-2.1,5A6.31,6.31,0,0,0,89.19,174.28Z" style="opacity:0.1"></path><path d="M96.5,163.75a3.45,3.45,0,0,0-3.11-2.38c-1.31-.2-2.62.29-2.91,1.29a3.92,3.92,0,0,0,.92,3.74c1.15,1.22,3.38,1.41,4.18.85A3.48,3.48,0,0,0,96.5,163.75Z" style="fill:#c7c7c7"></path><path d="M95.66,157.36a1.53,1.53,0,0,1,.41,1.94,8,8,0,0,1-.15,1.38,2.19,2.19,0,0,1-1.42,1.48l0,0a6.42,6.42,0,0,1,.53-1.19c.27-.52.83-1,.86-1.64a5.09,5.09,0,0,1-.25-1.89l.07,0Z" style="fill:#c7c7c7"></path><path d="M100.61,162.43a4.89,4.89,0,0,1-1.89-.21,1.08,1.08,0,0,0-.6.2,8.6,8.6,0,0,1-2.2,1.26l0-.05a2.23,2.23,0,0,1,.81-1.14,3.78,3.78,0,0,1,2-.5,1.54,1.54,0,0,1,2,.37l0,.07Z" style="fill:#c7c7c7"></path><path d="M91.81,167.31s3.45,8.37,2,14.9S89.35,193,86.17,192.75s-.74-9,.36-12.43S91.81,167.31,91.81,167.31Z" style="fill:#ebebeb;opacity:0.7000000000000001"></path><path d="M91.41,166.48s-8.77-2.2-15,.18-10,6-9.33,9.07,9-.57,12.25-2.15S91.41,166.48,91.41,166.48Z" style="fill:#ebebeb;opacity:0.7000000000000001"></path><path d="M340.75,135.22c-.21-5.38-.47-13.1-.6-18.38l.3.52-8.05-4.44-8-4.49h.9c-5.26,3.13-10.57,6.19-15.87,9.28l.5-.87c0,6.13,0,12.26-.1,18.38l-.45-.78,7.9,4.7,7.87,4.75h-.6c4.61-2.51,11.49-6.17,16.22-8.67Zm0,0c-5.24,3.3-10.56,6.64-15.91,9.89l-.31-.18-8-4.44-8-4.49-.45-.25c-.09-6.3-.08-12.6-.1-18.91v-.58l.51-.28c5.47-3.13,10.92-6.29,16.42-9.36l.44.26,7.9,4.7,7.87,4.75.3.18c-.13,6.25-.36,12.53-.6,18.71Z" style="fill:#dbdbdb"></path><path d="M378.81,135.22c-.21-5.38-.47-13.1-.6-18.38l.3.52-8.05-4.44-8-4.49h.89c-5.26,3.13-10.57,6.19-15.86,9.28l.5-.87c0,6.13,0,12.26-.1,18.38l-.45-.78,7.9,4.7,7.86,4.75h-.6c4.61-2.51,11.49-6.17,16.22-8.67Zm0,0c-5.24,3.3-10.56,6.64-15.9,9.89l-.32-.18-8-4.44-8-4.49-.44-.25c-.09-6.3-.08-12.6-.11-18.91v-.58l.5-.28c5.47-3.13,10.93-6.29,16.43-9.36l.43.26,7.9,4.7,7.87,4.75.31.18c-.14,6.25-.37,12.53-.61,18.71Z" style="fill:#dbdbdb"></path><path d="M416.87,135.22c-.21-5.38-.47-13.1-.6-18.38l.3.52-8-4.44-8-4.49h.9c-5.27,3.13-10.58,6.19-15.87,9.28l.5-.87c0,6.13,0,12.26-.1,18.38l-.45-.78,7.9,4.7,7.87,4.75h-.6c4.61-2.51,11.48-6.17,16.21-8.67Zm0,0c-5.23,3.3-10.56,6.64-15.9,9.89l-.31-.18-8.05-4.44-8-4.49-.44-.25c-.09-6.3-.08-12.6-.11-18.91v-.58l.5-.28c5.47-3.13,10.93-6.29,16.43-9.36l.44.26,7.89,4.7,7.87,4.75.31.18c-.14,6.25-.37,12.53-.61,18.71Z" style="fill:#dbdbdb"></path><path d="M454.94,135.22c-.21-5.38-.47-13.1-.6-18.38l.3.52-8.05-4.44-8-4.49h.9c-5.27,3.13-10.57,6.19-15.87,9.28l.5-.87c0,6.13,0,12.26-.1,18.38l-.45-.78,7.9,4.7,7.87,4.75h-.6c4.61-2.51,11.48-6.17,16.22-8.67Zm0,0c-5.24,3.3-10.56,6.64-15.91,9.89l-.31-.18-8.05-4.44-8-4.49-.44-.25c-.09-6.3-.08-12.6-.11-18.91v-.58l.5-.28c5.48-3.13,10.93-6.29,16.43-9.36l.44.26,7.9,4.7,7.87,4.75.3.18c-.13,6.25-.37,12.53-.6,18.71Z" style="fill:#dbdbdb"></path><path d="M360,233.41c-.21-5.38-.47-13.1-.6-18.38l.3.52-8-4.44-8-4.49h.9c-5.27,3.13-10.58,6.19-15.87,9.28l.5-.87c0,6.13,0,12.25-.1,18.38l-.45-.78,7.9,4.7,7.87,4.75h-.6c4.61-2.51,11.48-6.17,16.21-8.67Zm0,0c-5.24,3.3-10.56,6.64-15.9,9.88l-.31-.17-8.05-4.44-8-4.49-.44-.25c-.09-6.3-.08-12.6-.11-18.91v-.58l.5-.28c5.47-3.13,10.93-6.29,16.43-9.36l.44.26,7.89,4.69,7.87,4.75.31.19c-.14,6.25-.37,12.52-.61,18.71Z" style="fill:#dbdbdb"></path><path d="M398.08,102.38c-.22-5.38-.47-13.1-.6-18.38l.3.52-8-4.44-8-4.49h.9c-5.27,3.13-10.58,6.19-15.87,9.28l.5-.87c0,6.13,0,12.25-.1,18.38l-.45-.78,7.9,4.7,7.87,4.75h-.6c4.61-2.51,11.48-6.17,16.22-8.67Zm0,0c-5.24,3.3-10.56,6.64-15.91,9.88l-.31-.17-8.05-4.44-8-4.49-.44-.25c-.09-6.3-.08-12.61-.11-18.91v-.58l.5-.28c5.48-3.13,10.93-6.29,16.43-9.36l.44.25,7.9,4.7,7.86,4.75.31.19c-.13,6.24-.37,12.52-.6,18.71Z" style="fill:#dbdbdb"></path><path d="M436.14,102.38c-.21-5.38-.47-13.1-.6-18.38l.3.52-8-4.44-8-4.49h.9c-5.26,3.13-10.57,6.19-15.86,9.28l.5-.87c0,6.13,0,12.25-.1,18.38l-.45-.78,7.89,4.7,7.87,4.75h-.6c4.61-2.51,11.49-6.17,16.22-8.67Zm0,0c-5.24,3.3-10.56,6.64-15.9,9.88l-.32-.17-8.05-4.44-8-4.49-.45-.25c-.09-6.3-.08-12.61-.1-18.91v-.58l.51-.28c5.47-3.13,10.92-6.29,16.43-9.36l.43.25,7.9,4.7,7.87,4.75.3.19c-.13,6.24-.36,12.52-.6,18.71Z" style="fill:#dbdbdb"></path><path d="M378.81,200.86c-.21-5.37-.47-13.1-.6-18.37l.3.51-8.05-4.44-8-4.49h.89c-5.26,3.14-10.57,6.19-15.86,9.28l.5-.86c0,6.12,0,12.25-.1,18.37l-.45-.78,7.9,4.7,7.86,4.75h-.6c4.61-2.51,11.49-6.16,16.22-8.67Zm0,0c-5.24,3.3-10.56,6.65-15.9,9.89l-.32-.18-8-4.44-8-4.49-.44-.24c-.09-6.31-.08-12.61-.11-18.91v-.58l.5-.29c5.47-3.13,10.93-6.28,16.43-9.36l.43.26,7.9,4.7,7.87,4.75.31.18c-.14,6.25-.37,12.53-.61,18.71Z" style="fill:#dbdbdb"></path><path d="M454.94,200.86c-.21-5.37-.47-13.1-.6-18.37l.3.51-8.05-4.44-8-4.49h.9c-5.27,3.14-10.57,6.19-15.87,9.28l.5-.86c0,6.12,0,12.25-.1,18.37l-.45-.78,7.9,4.7,7.87,4.75h-.6c4.61-2.51,11.48-6.16,16.22-8.67Zm0,0c-5.24,3.3-10.56,6.65-15.91,9.89l-.31-.18-8.05-4.44-8-4.49-.44-.24c-.09-6.31-.08-12.61-.11-18.91v-.58l.5-.29c5.48-3.13,10.93-6.28,16.43-9.36l.44.26,7.9,4.7,7.87,4.75.3.18c-.13,6.25-.37,12.53-.6,18.71Z" style="fill:#dbdbdb"></path><path d="M416.87,200.86c-.21-5.37-.47-13.1-.6-18.37l.3.51-8-4.44-8-4.49h.9c-5.27,3.14-10.58,6.19-15.87,9.28l.5-.86c0,6.12,0,12.25-.1,18.37l-.45-.78,7.9,4.7,7.87,4.75h-.6c4.61-2.51,11.48-6.16,16.21-8.67Zm0,0c-5.23,3.3-10.56,6.65-15.9,9.89l-.31-.18-8.05-4.44-8-4.49-.44-.24c-.09-6.31-.08-12.61-.11-18.91v-.58l.5-.29c5.47-3.13,10.93-6.28,16.43-9.36l.44.26,7.89,4.7,7.87,4.75.31.18c-.14,6.25-.37,12.53-.61,18.71Z" style="fill:#dbdbdb"></path><path d="M416.87,69.53c-.21-5.38-.47-13.1-.6-18.37l.3.51-8-4.44-8-4.49h.9c-5.27,3.14-10.58,6.19-15.87,9.28l.5-.87c0,6.13,0,12.26-.1,18.38l-.45-.78,7.9,4.7,7.87,4.75h-.6c4.61-2.51,11.48-6.16,16.21-8.67Zm0,0c-5.23,3.3-10.56,6.65-15.9,9.89l-.31-.18-8.05-4.44-8-4.49-.44-.25c-.09-6.3-.08-12.6-.11-18.91v-.57l.5-.29C390,47.16,395.47,44,401,40.93l.44.26,7.89,4.7,7.87,4.75.31.18c-.14,6.25-.37,12.53-.61,18.71Z" style="fill:#dbdbdb"></path><path d="M360,168c-.21-5.38-.47-13.1-.6-18.38l.3.52-8-4.44-8-4.49h.9c-5.27,3.13-10.58,6.19-15.87,9.28l.5-.87c0,6.13,0,12.26-.1,18.38l-.45-.78,7.9,4.7,7.87,4.75h-.6c4.61-2.51,11.48-6.17,16.21-8.67Zm0,0c-5.24,3.3-10.56,6.64-15.9,9.88l-.31-.17-8.05-4.44-8-4.49-.44-.25c-.09-6.3-.08-12.6-.11-18.91v-.58l.5-.28c5.47-3.13,10.93-6.29,16.43-9.36l.44.26,7.89,4.7,7.87,4.74.31.19c-.14,6.25-.37,12.53-.61,18.71Z" style="fill:#dbdbdb"></path><path d="M398.08,168c-.22-5.38-.47-13.1-.6-18.38l.3.52-8-4.44-8-4.49h.9c-5.27,3.13-10.58,6.19-15.87,9.28l.5-.87c0,6.13,0,12.26-.1,18.38l-.45-.78,7.9,4.7,7.87,4.75h-.6c4.61-2.51,11.48-6.17,16.22-8.67Zm0,0c-5.24,3.3-10.56,6.64-15.91,9.88l-.31-.17-8.05-4.44-8-4.49-.44-.25c-.09-6.3-.08-12.6-.11-18.91v-.58l.5-.28c5.48-3.13,10.93-6.29,16.43-9.36l.44.26,7.9,4.7,7.86,4.74.31.19c-.13,6.25-.37,12.53-.6,18.71Z" style="fill:#dbdbdb"></path><path d="M436.14,168c-.21-5.38-.47-13.1-.6-18.38l.3.52-8-4.44-8-4.49h.9c-5.26,3.13-10.57,6.19-15.86,9.28l.5-.87c0,6.13,0,12.26-.1,18.38l-.45-.78,7.89,4.7,7.87,4.75h-.6c4.61-2.51,11.49-6.17,16.22-8.67Zm0,0c-5.24,3.3-10.56,6.64-15.9,9.88l-.32-.17-8.05-4.44-8-4.49-.45-.25c-.09-6.3-.08-12.6-.1-18.91v-.58l.51-.28c5.47-3.13,10.92-6.29,16.43-9.36l.43.26,7.9,4.7,7.87,4.74.3.19c-.13,6.25-.36,12.53-.6,18.71Z" style="fill:#dbdbdb"></path><path d="M441.14,149c0-.05.11,20,0,19.73l18.88,10.84c-.07.17.13,24.16.07,24.32S439.18,216,439.14,216l-.12.07-.12-.07-19-11h.27l-16.91,9.79.14-.25,0,21.69v.18l-.15.09-20.9,12.09-.17.09-.16-.09-19-11h.35l-19,11-.19.11-.18-.11L323,236.64l-.19-.11v-.23l0-24.15v-.24l.21-.12,18.79-10.88-.22.38V181.76l.22.39-18.81-10.83-.23-.14v-.27l0-21.68.24.43-19.26-11.13-.24-.14v-.28l0-24.15v-.27l.23-.13,20.93-12.06.22-.13.22.13,19,11h-.42l17.39-10-.2.34,0-21.72v-.22l.19-.11L379.86,70l-.18.31,0-22v-.19l.16-.1L400.8,35.92l.16-.09.16.09L422,48l.14.08v.17l0,21.72-.13-.23L441.39,81c0,.13-.06,22-.06,22.13l-.1-.16L460,113.85l.07,0V114L460,138.11c.08.07-18.86,10.8-18.86,10.85Zm0,0s18.93-11.06,18.74-10.85L459.82,114c.49.4-18.9-10.78-18.77-10.7l-.09-.05v-.11l-.06-22,.12.21-19.28-11.1-.14-.07V70l0-21.72.15.25L400.8,36.46h.32l-20.91,12.1.17-.29,0,22v.2l-.18.11L361.43,81.44l.19-.33,0,21.72v.23l-.2.11-17.37,10.06-.21.12-.21-.12-19-11h.44l-20.91,12.1.23-.4,0,24.15-.24-.42,19.28,11.11.25.14v.29l0,21.68-.24-.41,18.79,10.86.23.14v.26l0,19.53v.25l-.22.13-18.81,10.84.21-.36,0,24.15-.2-.34,20.91,12.09h-.37l19-11,.17-.11.18.11,19,11H382L402.92,236l-.16.27,0-21.69v-.17l.15-.08,16.93-9.75.13-.08.14.08,19,11c-1.05.39,20.9-12.14,20.71-12-.15,1.09-.07-24.7,0-23.89l-18.79-10.93s0-19.78.05-19.81Z" style="fill:#dbdbdb"></path><path d="M398.08,233.41c-.22-5.38-.47-13.1-.6-18.38l.3.52-8-4.44-8-4.49h.9c-5.27,3.13-10.58,6.19-15.87,9.28l.5-.87c0,6.13,0,12.25-.1,18.38l-.45-.78,7.9,4.7,7.87,4.75h-.6c4.61-2.51,11.48-6.17,16.22-8.67Zm0,0c-5.24,3.3-10.56,6.64-15.91,9.88l-.31-.17-8.05-4.44-8-4.49-.44-.25c-.09-6.3-.08-12.6-.11-18.91v-.58l.5-.28c5.48-3.13,10.93-6.29,16.43-9.36l.44.26,7.9,4.69,7.86,4.75.31.19c-.13,6.25-.37,12.52-.6,18.71Z" style="fill:#dbdbdb"></path><path d="M441.29,132.18c1,1.31,2.45,5.6,2.67,8.41.28,3.66-5.7,10.29-6.91,11.13s-4,1.16-5-1.24-1.42-8.81-.93-10.53c.84-3,2.91-7.59,3.81-8.2S440.74,131.48,441.29,132.18Z" style="fill:#dbdbdb"></path><path d="M432,137.39c.38-1,.81-2,1.23-2.87a15.58,15.58,0,0,0,9.47.64,28,28,0,0,1,.86,3A18.78,18.78,0,0,1,432,137.39Z" style="fill:#c7c7c7"></path><path d="M442.89,144.31A21.54,21.54,0,0,1,431,143.17h0a12.34,12.34,0,0,1,.18-3.22.24.24,0,0,1,0-.08,18.62,18.62,0,0,0,12.8,1A8.12,8.12,0,0,1,442.89,144.31Z" style="fill:#c7c7c7"></path><path d="M438.18,150.67a20,20,0,0,1-6.37-1,27,27,0,0,1-.63-3.64,17.7,17.7,0,0,0,9.75,1.42A32.84,32.84,0,0,1,438.18,150.67Z" style="fill:#c7c7c7"></path><path d="M432.08,150.48c-.92-2.39-1.42-8.81-.93-10.54.84-3,2.91-7.58,3.81-8.19a2.43,2.43,0,0,1,1-.27,88.18,88.18,0,0,0-2.53,11.16c-.09,1.91.74,7,1.88,7.39s1.8.85,4.42-1.1h0a20,20,0,0,1-2.69,2.8C435.84,152.56,433,152.88,432.08,150.48Z" style="opacity:0.1"></path><path d="M441.2,134.66a19.63,19.63,0,0,1,1.49,5.83A8,8,0,0,1,441,144.9a28.2,28.2,0,0,0,1-3.77c0-2.14-.67-4.3-.72-6.47Z" style="fill:#fff;opacity:0.30000000000000004"></path><path d="M443.21,128.28c-1.78-2.09-4.37-2.27-6.71-1.34a4.13,4.13,0,0,0-2.05,5.53,6.51,6.51,0,0,0,6.5,3.24C443.51,135.14,445.38,130.83,443.21,128.28Z" style="fill:#c7c7c7"></path><path d="M441.73,135.41a2.86,2.86,0,0,1-.78.3,6.53,6.53,0,0,1-6.51-3.24,4.28,4.28,0,0,1,1.19-5,5.19,5.19,0,0,0,.7,5.42A6.31,6.31,0,0,0,441.73,135.41Z" style="opacity:0.1"></path><path d="M442.81,122.64a3.45,3.45,0,0,0-3.89-.51c-1.23.48-2.13,1.56-1.88,2.57a3.94,3.94,0,0,0,2.68,2.78,3.85,3.85,0,0,0,4-1.36A3.43,3.43,0,0,0,442.81,122.64Z" style="fill:#c7c7c7"></path><path d="M438.88,117.52a1.53,1.53,0,0,1,1.33,1.47c.13.44.5.81.56,1.28a2.17,2.17,0,0,1-.5,2l-.06,0a5.81,5.81,0,0,1-.14-1.3c0-.58.21-1.29-.07-1.85a4.65,4.65,0,0,1-1.16-1.51l0-.06Z" style="fill:#c7c7c7"></path><path d="M445.7,119.43a5,5,0,0,1-1.74.77,1.09,1.09,0,0,0-.42.48,8.88,8.88,0,0,1-1.27,2.19l-.07,0a2.27,2.27,0,0,1,.13-1.39c.26-.69.95-1,1.49-1.44a1.54,1.54,0,0,1,1.88-.66v.07Z" style="fill:#c7c7c7"></path><path d="M440.53,128.06s7.16,5.53,9.17,11.92,1.53,11.56-1.35,12.94-5.14-7.44-5.9-10.95S440.53,128.06,440.53,128.06Z" style="fill:#ebebeb;opacity:0.7000000000000001"></path><path d="M439.76,127.55s-8.7,2.47-12.93,7.66-5.7,10.18-3.54,12.52,7.53-5,9.54-8S439.76,127.55,439.76,127.55Z" style="fill:#ebebeb;opacity:0.7000000000000001"></path></g><g id="freepik--Table--inject-141"><path d="M51.68,459.06c127.06-.61,269.58-.62,396.64,0-127.06.62-269.58.61-396.64,0Z" style="fill:#263238"></path></g><g id="freepik--jar-2--inject-141"><path d="M455.36,194.23V442.45a16.61,16.61,0,0,1-16.61,16.61H259.35a16.61,16.61,0,0,1-16.6-16.61V194.23a13.26,13.26,0,0,1,3.4-8.86l22.55-25.11v-4.73l-2-3a8.41,8.41,0,0,1,0-9.22l1.95-2.92v-3.16l-1.63-2.42a8.38,8.38,0,0,1,.27-9.76l1.36-1.77V115a3.84,3.84,0,0,1,3.83-3.84h153a3.84,3.84,0,0,1,3.84,3.84v8.3l1.35,1.77a8.37,8.37,0,0,1,.28,9.76l-1.63,2.42v3.16l1.94,2.92a8.39,8.39,0,0,1,0,9.22l-2,3v4.73L452,185.37A13.31,13.31,0,0,1,455.36,194.23Z" style="fill:#ebebeb;opacity:0.8"></path><path d="M427.12,443.62H271a14.34,14.34,0,0,1-14.34-14.34V251.51s36.58-7.3,92.9-7.3c61,0,91.91,7.3,91.91,7.3V429.28A14.34,14.34,0,0,1,427.12,443.62Z" style="fill:#D4AF37"></path><path d="M441.46,251.51c-90,19.16-184.81,0-184.81,0s36.58-7.3,92.9-7.3C410.58,244.21,441.46,251.51,441.46,251.51Z" style="fill:#fff;opacity:0.30000000000000004"></path><path d="M266.27,207.35V424.46c0,3.64,18.84,6.17,20.52,4.48s0-213.06,0-218.64,9.11-47,9.11-47S266.27,199.59,266.27,207.35Z" style="fill:#fff;opacity:0.4"></path><path d="M296.12,207.13V370.89c0,3.64,4.87.08,6.24-1.61s0-153.62,0-159.2.34-41.51.34-41.51S296.12,199.36,296.12,207.13Z" style="fill:#fff;opacity:0.4"></path><path d="M455.35,194.23V442.45a16.6,16.6,0,0,1-16.6,16.61H380.23s37.63-15.44,37.63-26.47v-233c0-6.56-22.19-35.67-22.19-39.94s-2.93-8.48-3-11.44,2.65-7.24,3-12.46-7.28-24.63-15.42-24.63h45.33a3.84,3.84,0,0,1,3.85,3.84v8.3l1.34,1.77a8.38,8.38,0,0,1,.29,9.76l-1.63,2.42v3.16l1.93,2.92a8.39,8.39,0,0,1,0,9.22l-2,3v4.73L452,185.37A13.3,13.3,0,0,1,455.35,194.23Z" style="opacity:0.05"></path><g style="opacity:0.1"><path d="M399.22,324a2.46,2.46,0,1,0,2.45-2.45A2.45,2.45,0,0,0,399.22,324Z"></path><path d="M361.21,310.61a2.46,2.46,0,1,0,2.46-2.45A2.45,2.45,0,0,0,361.21,310.61Z"></path><path d="M337.79,420a2.45,2.45,0,1,0-.45-3.44A2.45,2.45,0,0,0,337.79,420Z"></path><path d="M295.9,273.61a2.46,2.46,0,1,0,2.45-2.45A2.46,2.46,0,0,0,295.9,273.61Z"></path><path d="M395.42,349.41a3.32,3.32,0,1,0,3.32-3.33A3.32,3.32,0,0,0,395.42,349.41Z"></path><path d="M360.77,428.65a3.33,3.33,0,1,0-.61-4.66A3.32,3.32,0,0,0,360.77,428.65Z"></path><path d="M390.48,343.05a1.44,1.44,0,1,0,1.44-1.44A1.44,1.44,0,0,0,390.48,343.05Z"></path><path d="M402.89,382a1.44,1.44,0,1,0,1.44-1.44A1.44,1.44,0,0,0,402.89,382Z"></path><path d="M431.85,303.22a1.44,1.44,0,1,0,1.44-1.44A1.43,1.43,0,0,0,431.85,303.22Z"></path><path d="M309.49,351.71a1.44,1.44,0,1,0,1.44-1.44A1.44,1.44,0,0,0,309.49,351.71Z"></path><path d="M316.29,283.65a1.44,1.44,0,1,0,1.44-1.44A1.44,1.44,0,0,0,316.29,283.65Z"></path><path d="M260.42,379.42a1.44,1.44,0,1,0,1.44-1.44A1.44,1.44,0,0,0,260.42,379.42Z"></path><path d="M407.65,411.29a1.45,1.45,0,1,0,1.44-1.44A1.45,1.45,0,0,0,407.65,411.29Z"></path></g><path d="M464,213.39c-3.1,4-19.77,3-25.71,5s-25.37,10.14-31.13,10.86-39.32,3.6-58.12,3.6-51.95-10.15-57.72-10.88-27.6,2.9-33.55,1-23.78-9.6-24.15-10.44,7.08-18,9.11-23.88,25.54-28.21,25.54-28.9v-3.78c0-.9-3.54-4.36-3.54-7.95s3.54-8.38,3.54-9.24-3.09-3.91-3.09-8,3-7.69,2.91-8-.09-6.37,0-7.28,1.09-4,2.68-4.55,10.79-4,78.27-4,76.66,3.46,78.26,4,2.58,3.64,2.68,4.55.09,7,0,7.28,2.92,3.87,2.92,8-3.1,7.14-3.1,8,3.54,5.65,3.54,9.24-3.54,7.05-3.54,7.95v3.78c0,.69,19.9,18,23.6,22.93C457.3,187.78,464.59,212.66,464,213.39Z" style="fill:#D4AF37"></path><path d="M464,213.39c-3.1,4-19.77,3-25.71,5s-25.37,10.14-31.13,10.86-39.32,3.6-58.12,3.6-51.95-10.15-57.72-10.88-27.6,2.9-33.55,1-23.78-9.6-24.15-10.44,7.08-18,9.11-23.88,25.54-28.21,25.54-28.9v-3.78c0-.9-3.54-4.36-3.54-7.95s3.54-8.38,3.54-9.24-3.09-3.91-3.09-8,3-7.69,2.91-8-.09-6.37,0-7.28,1.09-4,2.68-4.55,10.79-4,78.27-4,76.66,3.46,78.26,4,2.58,3.64,2.68,4.55.09,7,0,7.28,2.92,3.87,2.92,8-3.1,7.14-3.1,8,3.54,5.65,3.54,9.24-3.54,7.05-3.54,7.95v3.78c0,.69,19.9,18,23.6,22.93C457.3,187.78,464.59,212.66,464,213.39Z" style="fill:#fff;opacity:0.6000000000000001"></path><path d="M271.14,116.81c25.29.31,52.77,1.33,77.95,1.43,25.57.06,52.25-1.78,77.87-2.87-25.88,2.72-51.83,4.71-77.88,4.87-25.58-.3-52.4-1.54-77.94-3.43Z" style="fill:#D4AF37"></path><g style="opacity:0.4"><path d="M464,213.39c-3.09,4-19.77,3-25.71,4.94s-25.37,10.15-31.13,10.87-39.32,3.59-58.13,3.59-51.95-10.15-57.72-10.88-27.6,2.91-33.54,1-23.79-9.59-24.15-10.43,4.84-12.84,7.72-20.21h0c-1,2.45-2.64,15.55-1.73,17.19S256,219.61,258.76,219.8c1.53.09,20.57-2.19,22.94-5.29,1.64-2.15,13.39-22.28,14.68-22.28.95,0-1.45,20.28,4.07,24.1,12.93,8.95,38.43,14.26,40.77,14.38,3.46.19,49.52-1.64,53.53-3.46s10.91-23.52,13.82-25.32,11.56,17.41,12.93,17.49,11.29-5.63,16.38-5.55,20-4.45,20.93-5.27.18-9.22-.63-15.44C461.39,202,464.39,212.91,464,213.39Z" style="fill:#D4AF37"></path><path d="M293.23,160.54s-15.53,17-12.62,18.66S293.23,160.54,293.23,160.54Z" style="fill:#D4AF37"></path><path d="M330.12,164.64s-9.46,30.58-4.37,32S330.12,164.64,330.12,164.64Z" style="fill:#D4AF37"></path><path d="M334.49,165.85s-.73,18.93,2.18,19.66S334.49,165.85,334.49,165.85Z" style="fill:#D4AF37"></path><path d="M314.35,158.57s-12.63-15.53-9.71-20.15S314.35,158.57,314.35,158.57Z" style="fill:#D4AF37"></path><path d="M386.19,156.83s1.45-20.58,5.34-21.07S386.19,156.83,386.19,156.83Z" style="fill:#D4AF37"></path><path d="M391.5,156.83s4.38-14.28,6.81-14S391.5,156.83,391.5,156.83Z" style="fill:#D4AF37"></path><path d="M409,164.64s18.69,16.3,16.26,20.89S409,164.64,409,164.64Z" style="fill:#D4AF37"></path></g><path d="M347.11,168.09c-30,0-73.52-4.14-81.89-5.58l.68-3.94c8.28,1.42,51.46,5.52,81.21,5.52a747.56,747.56,0,0,0,84.69-5.35l.52,4A752.7,752.7,0,0,1,347.11,168.09Z" style="fill:#D4AF37"></path><path d="M347.11,161c-30.59,0-71.92-1.53-80.4-3l.68-3.94c8.15,1.4,49.88,2.93,79.72,2.93,43.32,0,84.33-4.19,84.74-4.23l.41,4C431.85,156.74,390.64,161,347.11,161Z" style="fill:#D4AF37"></path><path d="M270,158.1l-4.41-1.5c-1-.35-25.43-8.71-34.57-15.87-5.63-4.42-8.16-12.42-5.88-18.62,1.78-4.85,6-7.51,11.56-7.28,13.22.51,29.53,35.1,31.35,39Zm-34-39.29c-4.48,0-6.37,2.52-7.16,4.68-1.45,4-.33,10.23,4.6,14.09,6.33,5,21.26,10.81,28.83,13.6-6.94-13.86-18.46-32.07-25.78-32.36Z" style="fill:#D4AF37"></path><path d="M226.09,189.21a11.41,11.41,0,0,1-9.15-4.79,19.12,19.12,0,0,1-.66-21.17c7-11.22,45.14-8.19,49.46-7.81l3.54.32-2.11,2.86c-.71,1-17.75,23.9-37.42,30A12.19,12.19,0,0,1,226.09,189.21Zm24.59-30.4c-13.54,0-27.91,1.6-31,6.56a15.2,15.2,0,0,0,.44,16.61,7.44,7.44,0,0,0,8.45,2.83c14.42-4.47,27.87-19.33,33.09-25.66C258.24,158.93,254.49,158.81,250.68,158.81Z" style="fill:#D4AF37"></path><path d="M244.42,244.28c0-1.24-.95-30.35,1.11-45,2.09-15,18.13-39.65,18.81-40.69l3.35,2.19c-.16.25-16.23,25-18.2,39-2,14.36-1.09,44.06-1.08,44.36Z" style="fill:#D4AF37"></path><path d="M232.59,233.09l-4-.59c.13-.84,3.13-20.72,8.54-35.15C241.63,185.46,261,163,261.78,162l3,2.61c-.19.23-19.68,22.91-23.89,34.14C235.65,212.78,232.62,232.89,232.59,233.09Z" style="fill:#D4AF37"></path></g><g id="freepik--Flowers--inject-141"><path d="M338.36,420.91a74.23,74.23,0,0,1,5.53-9c2-2.89,4.21-5.68,6.49-8.37,1.14-1.35,2.34-2.64,3.53-3.95s2.42-2.57,3.69-3.8a84.37,84.37,0,0,1,7.95-7,100.66,100.66,0,0,1,8.74-6.05,87.13,87.13,0,0,1,9.42-4.95,82.27,82.27,0,0,1,10-3.65,34.6,34.6,0,0,1,10.49-1.57v.14a28.33,28.33,0,0,0-5.17.86c-1.7.41-3.37.92-5,1.49a96.48,96.48,0,0,0-9.71,4l-2.36,1.14c-.79.38-1.55.81-2.33,1.21l-1.16.6-1.15.64c-.76.43-1.53.84-2.29,1.28a98.78,98.78,0,0,0-8.77,5.76,84.64,84.64,0,0,0-8,6.8c-1.29,1.2-2.5,2.46-3.75,3.7s-2.42,2.55-3.58,3.87c-2.34,2.61-4.58,5.33-6.67,8.15a75,75,0,0,0-5.75,8.83Z" style="fill:#263238"></path><path d="M344.05,412.18a8.62,8.62,0,0,1,.11-3c.09-.5.2-1,.34-1.49s.29-1,.45-1.46a38.91,38.91,0,0,1,2.52-5.54c.49-.89,1-1.77,1.51-2.65a26.46,26.46,0,0,1,1.74-2.49,30.5,30.5,0,0,1,4.21-4.37l.11.08a30.3,30.3,0,0,1-1.56,2.6c-.55.84-1.08,1.69-1.65,2.51s-1.11,1.65-1.71,2.43-1.16,1.62-1.7,2.45a37.73,37.73,0,0,0-2.83,5.23c-.2.46-.4.91-.56,1.38a13.6,13.6,0,0,0-.45,1.41,8.83,8.83,0,0,0-.39,2.92Z" style="fill:#263238"></path><path d="M350,404.41a52,52,0,0,0,9.94-1.17,63.5,63.5,0,0,0,9.61-2.73,92.57,92.57,0,0,0,9.09-4.07c1.52-.68,2.95-1.53,4.44-2.29.75-.37,1.46-.82,2.19-1.23s1.46-.82,2.21-1.21l.08.11a44.48,44.48,0,0,1-8.28,5.84,50.51,50.51,0,0,1-9.37,3.9,65.37,65.37,0,0,1-9.85,2.36,51.44,51.44,0,0,1-10.07.62Z" style="fill:#263238"></path><path d="M359.39,394.59a25.36,25.36,0,0,1,3.58-7.65,37,37,0,0,1,5.6-6.4c1.09-.92,2.15-1.88,3.32-2.69.59-.4,1.14-.86,1.76-1.21l1.86-1.05a40.87,40.87,0,0,1,3.89-1.74c1.34-.48,2.71-.85,4.08-1.21l0,.13c-1.24.71-2.49,1.33-3.73,2-.6.36-1.21.69-1.81,1a19.94,19.94,0,0,0-1.8,1c-1.17.74-2.39,1.39-3.52,2.19a35.73,35.73,0,0,0-3.38,2.4,36.11,36.11,0,0,0-5.76,6,25.26,25.26,0,0,0-4,7.28Z" style="fill:#263238"></path><path d="M368.15,387.42c2.61-1,5.24-2,7.88-3,1.32-.46,2.65-.92,4-1.34a19.8,19.8,0,0,1,2.08-.54c.71-.14,1.4-.24,2.1-.35,2.78-.4,5.55-.86,8.35-1.06s5.61-.29,8.38-.44l.05.13a26.22,26.22,0,0,1-4.13,1c-1.38.26-2.77.47-4.16.66-2.77.4-5.58.51-8.36.79-.69.07-1.39.14-2.06.24a16.35,16.35,0,0,0-2,.42c-1.35.34-2.69.73-4,1.13q-4,1.17-8,2.45Z" style="fill:#263238"></path><path d="M341.16,416.17c1.48-.41,2.94-.89,4.37-1.44s2.85-1.12,4.23-1.78,2.68-1.45,4.06-2.08,2.74-1.3,4.23-1.84l.08.11a16.19,16.19,0,0,1-3.66,2.95,16.39,16.39,0,0,1-2.09,1.06c-.74.27-1.46.57-2.19.82-1.47.54-2.95,1-4.45,1.42a37.16,37.16,0,0,1-4.56.91Z" style="fill:#263238"></path><path d="M346.9,402.64a46.79,46.79,0,0,1,4.19-4.14,13,13,0,0,1,2.33-1.84,7.48,7.48,0,0,1,2.88-1l.06.13a21,21,0,0,1-2.18,2,28.58,28.58,0,0,1-2.42,1.56c-.81.53-1.61,1.09-2.39,1.66s-1.59,1.13-2.38,1.71Z" style="fill:#263238"></path><path d="M370,400.92c1.14.05,2.28.1,3.42.11s2.28,0,3.4,0,2.25-.24,3.36-.24,2.21,0,3.4,0l.05.13a7.88,7.88,0,0,1-3.33,1.23,13.58,13.58,0,0,1-3.49,0c-1.16-.08-2.31-.22-3.45-.38s-2.26-.39-3.38-.67Z" style="fill:#263238"></path><path d="M359.85,403.56a39,39,0,0,1,4.38-4,13.14,13.14,0,0,1,2.46-1.73,7.52,7.52,0,0,1,3-.78l0,.13a20.17,20.17,0,0,1-2.33,1.84c-.78.57-1.68.94-2.52,1.45s-1.66,1-2.48,1.57-1.63,1.09-2.44,1.66Z" style="fill:#263238"></path><path d="M347,414.56a26.9,26.9,0,0,0,4.2.12c.7,0,1.37-.23,2.05-.18a9.91,9.91,0,0,1,2.14.28l0,.14a4.45,4.45,0,0,1-2.05,1,6.55,6.55,0,0,1-2.21-.09,15.68,15.68,0,0,1-2.15-.41,14.52,14.52,0,0,1-2.05-.69Z" style="fill:#263238"></path><path d="M378.59,383.93c1.21,0,2.41,0,3.61,0l3.6.16a24,24,0,0,1,3.6.27,12.43,12.43,0,0,1,3.48,1.17l0,.13a22.09,22.09,0,0,1-3.63.07,30.91,30.91,0,0,1-3.54-.54l-3.55-.57-3.55-.6Z" style="fill:#263238"></path><path d="M372.14,378.4c.43-.7.91-1.36,1.37-2s1-1.32,1.47-2a10.64,10.64,0,0,1,1.58-1.89,6.25,6.25,0,0,1,2.21-1.26l.09.1a9.72,9.72,0,0,1-1.31,2.12,13.85,13.85,0,0,1-1.75,1.67q-1.76,1.68-3.56,3.34Z" style="fill:#263238"></path><path d="M383.74,378.41a21.89,21.89,0,0,1,2.72-3.06,25.15,25.15,0,0,1,3.24-2.56c.57-.4,1.17-.74,1.76-1.11a9.65,9.65,0,0,1,1.93-.82c.34-.09.67-.19,1-.27s.69-.12,1-.16a9.22,9.22,0,0,1,2.1,0l0,.14c-1.27.61-2.5,1-3.69,1.6s-2.44.94-3.61,1.58a25.4,25.4,0,0,0-3.36,2.14,24.4,24.4,0,0,0-3,2.62Z" style="fill:#263238"></path><path d="M296.05,429.9a74.72,74.72,0,0,1-10.58-.15c-3.52-.27-7-.72-10.51-1.31-1.74-.29-3.47-.66-5.2-1s-3.45-.77-5.15-1.24A86.29,86.29,0,0,1,254.49,423a100.18,100.18,0,0,1-9.66-4.42,89.59,89.59,0,0,1-9.07-5.57,82.88,82.88,0,0,1-8.23-6.72,34.68,34.68,0,0,1-6.71-8.22l.12-.07a28.81,28.81,0,0,0,3.38,4c1.22,1.25,2.52,2.43,3.85,3.56a93.64,93.64,0,0,0,8.38,6.31l2.18,1.45c.73.48,1.49.92,2.23,1.38l1.11.7,1.14.66c.75.43,1.5.88,2.27,1.31a101.4,101.4,0,0,0,9.43,4.6,84.16,84.16,0,0,0,9.93,3.39c1.69.5,3.4.9,5.1,1.33s3.42.79,5.15,1.11c3.44.68,6.92,1.22,10.42,1.57a73.94,73.94,0,0,0,10.52.43Z" style="fill:#263238"></path><path d="M285.63,429.46a8.59,8.59,0,0,1-2.67,1.46c-.48.18-1,.34-1.45.47s-1,.25-1.48.36a38.62,38.62,0,0,1-6.06.67c-1,0-2,0-3,.05a27.88,27.88,0,0,1-3-.22,31.82,31.82,0,0,1-5.92-1.39l0-.14c1-.05,2,0,3,0s2,.07,3,.13,2,.11,3,.23,2,.17,3,.21a38,38,0,0,0,5.94-.24c.49-.06,1-.12,1.47-.22s1-.2,1.45-.33a9.33,9.33,0,0,0,2.71-1.16Z" style="fill:#263238"></path><path d="M275.9,428.31a51.1,51.1,0,0,0-6.08-8,63.72,63.72,0,0,0-7.26-6.87,93.83,93.83,0,0,0-8.14-5.73c-1.37-1-2.82-1.76-4.23-2.65-.71-.46-1.45-.83-2.18-1.25s-1.45-.83-2.17-1.28l0-.13a45.06,45.06,0,0,1,9.25,4.13,49.8,49.8,0,0,1,8.14,6.07,64.53,64.53,0,0,1,7.06,7.26,51.76,51.76,0,0,1,5.68,8.34Z" style="fill:#263238"></path><path d="M262.67,425.26a25.28,25.28,0,0,1-8.4.83,36.77,36.77,0,0,1-8.37-1.55,40.82,40.82,0,0,1-4-1.48c-.65-.3-1.33-.53-2-.89s-1.24-.7-1.85-1.06a40.4,40.4,0,0,1-3.48-2.46c-1.1-.9-2.12-1.89-3.12-2.89l.09-.1c1.23.7,2.41,1.45,3.59,2.19.61.34,1.2.7,1.8,1a19,19,0,0,0,1.81,1c1.23.63,2.42,1.34,3.68,1.91a33.73,33.73,0,0,0,11.85,3.59,25.21,25.21,0,0,0,8.31-.28Z" style="fill:#263238"></path><path d="M252,421.39c-2.21-1.72-4.41-3.47-6.58-5.25-1.07-.9-2.15-1.81-3.19-2.75a18.28,18.28,0,0,1-1.53-1.52c-.48-.53-.93-1.08-1.37-1.62-1.77-2.19-3.58-4.33-5.18-6.64s-3.12-4.67-4.66-7l.09-.1a25.83,25.83,0,0,1,3,3c.93,1.05,1.81,2.14,2.69,3.23,1.76,2.19,3.29,4.54,4.95,6.79.41.56.83,1.12,1.26,1.65a16.45,16.45,0,0,0,1.39,1.52c1,1,2,1.93,3,2.88,2,1.92,4.12,3.8,6.21,5.67Z" style="fill:#263238"></path><path d="M290.54,429.91q-1.67-1.59-3.48-3t-3.68-2.73c-1.26-.86-2.61-1.56-3.86-2.42s-2.52-1.69-3.75-2.7l.06-.13a16.19,16.19,0,0,1,4.4,1.64,17,17,0,0,1,2,1.26c.61.49,1.23,1,1.83,1.46,1.21,1,2.37,2,3.48,3.1a39.16,39.16,0,0,1,3.12,3.45Z" style="fill:#263238"></path><path d="M276,431.89a46.82,46.82,0,0,1-5.7-1.49,12.38,12.38,0,0,1-2.77-1.06,7.49,7.49,0,0,1-2.29-2l.08-.12a21,21,0,0,1,2.81.86c.89.33,1.71.86,2.58,1.28s1.75.83,2.65,1.22,1.78.78,2.68,1.17Z" style="fill:#263238"></path><path d="M262.72,413c-.54-1-1.08-2-1.66-3s-1.14-2-1.76-2.91-1.35-1.81-1.92-2.76-1.14-1.89-1.73-2.93l.1-.1a7.85,7.85,0,0,1,2.75,2.23,13.85,13.85,0,0,1,1.76,3c.52,1,1,2.09,1.43,3.15s.82,2.15,1.16,3.25Z" style="fill:#263238"></path><path d="M270.15,420.29a37.87,37.87,0,0,1-5.71-1.71,12.56,12.56,0,0,1-2.75-1.23,7.56,7.56,0,0,1-2.18-2.15l.09-.11a18.52,18.52,0,0,1,2.77,1.06c.88.37,1.67,1,2.53,1.43s1.73.9,2.61,1.32,1.78.85,2.68,1.25Z" style="fill:#263238"></path><path d="M286.18,425.74a27.29,27.29,0,0,0-2-3.68c-.37-.58-.89-1.05-1.2-1.66a10.1,10.1,0,0,1-.85-2l.1-.09a4.43,4.43,0,0,1,1.88,1.27,6.64,6.64,0,0,1,1.05,1.94,18.77,18.77,0,0,1,.75,2.06,17,17,0,0,1,.45,2.12Z" style="fill:#263238"></path><path d="M243.7,414.2c-.63-1-1.21-2.08-1.8-3.13l-1.71-3.17a23.65,23.65,0,0,1-1.6-3.23,12.24,12.24,0,0,1-.78-3.59l.13,0a21.27,21.27,0,0,1,1.92,3.08,31.91,31.91,0,0,1,1.33,3.32l1.33,3.34,1.3,3.36Z" style="fill:#263238"></path><path d="M242.24,422.57c-.82,0-1.63-.08-2.45-.14s-1.63-.15-2.44-.26a10.53,10.53,0,0,1-2.43-.39,6.43,6.43,0,0,1-2.21-1.25l0-.14a9.8,9.8,0,0,1,2.49.05,13.94,13.94,0,0,1,2.33.65c1.56.43,3.12.89,4.69,1.35Z" style="fill:#263238"></path><path d="M236.33,412.59a22.39,22.39,0,0,1-4-.77,26.11,26.11,0,0,1-3.85-1.48c-.63-.28-1.24-.62-1.85-.95a9.42,9.42,0,0,1-1.69-1.24l-.76-.73c-.22-.27-.45-.53-.66-.81a9.14,9.14,0,0,1-1.08-1.8l.11-.09c1.17.78,2.16,1.63,3.25,2.36s2.06,1.61,3.21,2.29a25.7,25.7,0,0,0,3.55,1.8,25.23,25.23,0,0,0,3.82,1.29Z" style="fill:#263238"></path><path d="M337.48,404.67c5-1.85,16.31-4.09,18.54-3.92s4.25.74,7.6,1.09,10.54-1.33,15.84-1.19,19.44,11.24,21.27,12.42a22.87,22.87,0,0,1,3.3,2.53c.69.59-1.27.81-1.18.56s7.36,4.9,10.3,7.6,4.57,8.38,4.57,8.38a24,24,0,0,0-5.36-2.56c-2.25-.58-4.22-2.51-6.08-1.93s-4.1,2.78-6.34,3-2.43-.79-4.19.36-.85,1.12-3.48,2.48-3.36,2-5.42,1.76a20.47,20.47,0,0,0-5.89.55c.33.05,2.31,2.49,2,2.52s-6.87.92-8.2-.08a20.71,20.71,0,0,0-4.22-2.09c-1.44-.65,1.42,1.68.54,1.79a33.8,33.8,0,0,1-4.05-.33,5.66,5.66,0,0,1-3.11-1.59c-1.06-.93-2.69-.46-2.49,0s1.58,1.81,1.21,1.68-7.47-4.24-9.32-6.53-5.59-2.16-7-5.91-2.82-11.07-3.51-13.81S337.48,404.67,337.48,404.67Z" style="fill:#37474f"></path><path d="M402.85,416.16s.11,0,.27.1C403,416.26,402.83,416.23,402.85,416.16Z" style="fill:#37474f"></path><path d="M413,427.15c-3.08-3.42-7.41-5.32-11.58-7.06-1.34-.55-2.67-1.11-4-1.73h0s0,0,0,0c-.82-.38-1.62-.79-2.41-1.23-2.32-1.31-4.38-3-6.77-4.22a44.89,44.89,0,0,0-8.12-2.59l-5.66-1.54c1.23,0,2.45,0,3.67.05,1.68,0,3.36-.05,5,0a17,17,0,0,1,2.36.24,13.91,13.91,0,0,1,2.38.63c.8.29,1.58.62,2.37.94l2.47,1c1.87.75,3.74,1.5,5.62,2.23,0,0,0,0,0,0l-4.95-2.2c-1.61-.71-3.21-1.46-4.85-2.11a14.81,14.81,0,0,0-2.37-.74,17.11,17.11,0,0,0-2.37-.33c-1.66-.11-3.33-.05-5,0s-3.32.08-5,.15l-2.38-.64a74.14,74.14,0,0,0-8.18-1.8,48.67,48.67,0,0,0-7.82-.47l-1.78,0,2.8-.38c1.88-.24,3.77-.42,5.66-.5a47.92,47.92,0,0,1,5.62.1l.34,0c-1.4,0-2.8,0-4.2,0,0,0,0,0,0,0a63.33,63.33,0,0,1,9.23.62c1.52.25,3,.6,4.57.72a20.54,20.54,0,0,0,4.36-.16c1.65-.22,3.27-.58,4.9-.9a0,0,0,0,0,0-.05,34.32,34.32,0,0,1-8.8.84,45.26,45.26,0,0,1-4.48-.68,32.89,32.89,0,0,0-3.83-.38,6.32,6.32,0,0,0,.75-.06,20.7,20.7,0,0,0,2.78-.64,15.53,15.53,0,0,1,3.11-.51,14.22,14.22,0,0,1,3.06.16s0,0,0,0a16.49,16.49,0,0,0-5.43,0c-.95.15-1.88.41-2.83.55a12.69,12.69,0,0,1-2.89,0,39.46,39.46,0,0,0-5.65-.11c-1.88.12-3.76.34-5.62.62-1.43.22-2.85.49-4.28.76-2.67.09-5.35.23-8,.16a15,15,0,0,0,2.47-.75c2-.73,3.87-1.59,5.81-2.36a9.85,9.85,0,0,1,3.24-.82s0-.05,0-.05a9.65,9.65,0,0,0-2.81.49c-1,.3-1.91.67-2.86,1s-2,.76-3,1.16c-.84.33-1.67.67-2.53.92a8.07,8.07,0,0,1-1.45.28l-.18,0-.19-.06s-.06,0,0,.05l0,0h-.28c-1-.06-1.94-.16-2.91-.31-.64-.09-1.29-.19-1.92-.34,0,0-.06.05,0,.06a33.13,33.13,0,0,0,6.1,1,18.74,18.74,0,0,1,2.49,1.35,21,21,0,0,1,3,2.36,28.27,28.27,0,0,1,4.91,6.14c.67,1.13,1.29,2.3,1.85,3.49.64,1.36,1.17,2.77,1.87,4.11a11.11,11.11,0,0,0,1.3,2,8.94,8.94,0,0,0,1.72,1.53c1.29.92,2.66,1.75,4,2.57,2.76,1.67,5.55,3.26,8.44,4.67l1,.48s0,0,0,0c-2.86-1.46-5.68-3-8.42-4.67q-2.06-1.26-4-2.64a13.68,13.68,0,0,1-1.89-1.5,8.77,8.77,0,0,1-1.42-1.88,44.27,44.27,0,0,1-1.88-4.15,10.34,10.34,0,0,0,2.23,2.2,6.28,6.28,0,0,0,1.8.88c.68.22,1.38.35,2.07.54a10.11,10.11,0,0,1,3.32,1.64c1,.71,1.9,1.53,2.85,2.31a13.22,13.22,0,0,0,3.41,2.21s0,0,0,0a11.71,11.71,0,0,1-3.08-2c-.91-.8-1.79-1.65-2.71-2.45a9.17,9.17,0,0,0-3.06-1.83,28.93,28.93,0,0,1-4-1.16,10,10,0,0,1-3-2.57,37.32,37.32,0,0,0-1.69-3.34,27.4,27.4,0,0,0-4.77-6.29,17.63,17.63,0,0,0-3-2.41,16.92,16.92,0,0,0-2.2-1.13l.48,0s0,0,0,0l1,.08a25.35,25.35,0,0,1,2.61.43,43.39,43.39,0,0,1,5.12,1.48l1.69.6A17.53,17.53,0,0,1,360,412c.78.78,1.52,1.6,2.25,2.42s1.58,1.71,2.41,2.53a63,63,0,0,0,5.39,4.81c.94.75,1.88,1.49,2.86,2.16s2,1.34,3,2c2,1.32,4.09,2.55,6.23,3.68l.79.41s0,0,0,0q-3.19-1.71-6.23-3.72c-2-1.34-3.91-2.84-5.77-4.36s-3.68-3.15-5.42-4.83-3.2-3.27-4.86-4.85a21.6,21.6,0,0,0-3.52-2.81l2.68.94c1.71.57,3.45,1,5.21,1.42s3.55.79,5.27,1.36a16.38,16.38,0,0,1,4.84,2.5c1.55,1.18,2.91,2.59,4.44,3.81a29.55,29.55,0,0,0,4.49,2.84c3.06,1.64,6.33,3,8.88,5.43.31.29.61.6.89.92,0,0,0,0,0,0-2.26-2.61-5.39-4.24-8.35-5.93a49,49,0,0,1-4.43-2.71c-1.4-1-2.65-2.24-3.94-3.39a9.91,9.91,0,0,0,3.79.73c.76,0,1.52.07,2.28.17a13.91,13.91,0,0,1,2.47.6c1.69.57,3.3,1.34,4.92,2.06,1.8.8,3.61,1.58,5.41,2.36,2.05.88,4.08,1.79,6.1,2.71,0,0,0,0,0,0-1.81-.84-3.62-1.67-5.41-2.54s-3.51-1.7-5.27-2.52-3.25-1.6-4.94-2.22a15,15,0,0,0-2.46-.69,15.4,15.4,0,0,0-2.34-.2,12.22,12.22,0,0,1-4.74-.61l-.2-.18a22,22,0,0,0-2.3-1.77,15.32,15.32,0,0,0-2.37-1.25,29.89,29.89,0,0,0-5.14-1.57c-1.76-.41-3.52-.78-5.26-1.27s-3.38-1.06-5.07-1.62a35.86,35.86,0,0,0-10.2-2.25c-.35,0-.7,0-1.05,0l-.58-.23c2.83.18,5.68.1,8.51,0a68.85,68.85,0,0,1,7.6.14,53.66,53.66,0,0,1,8.23,1.51c2.83.7,5.64,1.5,8.46,2.26l4.33,1.18c1.38.37,2.77.73,4.12,1.2a18.3,18.3,0,0,1,3.67,1.78c1.16.72,2.27,1.51,3.42,2.24a34.65,34.65,0,0,0,4.73,2.44,19.08,19.08,0,0,0,6.3,4.28l2.46,1.19a0,0,0,1,0,0-.07c-1.32-.73-2.67-1.42-4-2.18a31.48,31.48,0,0,1-3.51-2.28c-.3-.24-.59-.49-.88-.75l1.12.48c4.25,1.76,8.79,3.19,12.3,6.3a15.13,15.13,0,0,1,1.22,1.18S413,427.17,413,427.15Z" style="fill:#263238"></path><path d="M277.15,423.8c-5.24-.75-16.8-.48-18.95.16s-4,1.64-7.18,2.7-10.59,1-15.73,2.25-16.56,15.16-18.1,16.7a24,24,0,0,0-2.68,3.18c-.54.73,1.42.52,1.28.3s-6.13,6.37-8.42,9.64-2.67,9.17-2.67,9.17a24.32,24.32,0,0,1,4.69-3.66c2.07-1,3.58-3.36,5.52-3.19s4.61,1.83,6.85,1.59,2.2-1.29,4.17-.55,1.07.91,3.93,1.67,3.71,1.24,5.67.56a20.41,20.41,0,0,1,5.87-.73c-.31.12-1.72,2.92-1.43,2.9s6.9-.59,8-1.85a20.38,20.38,0,0,1,3.67-2.95c1.27-.95-1,1.94-.15,1.86a32.47,32.47,0,0,0,3.89-1.19,5.61,5.61,0,0,0,2.7-2.22c.84-1.14,2.52-1,2.42-.58s-1.16,2.11-.82,1.9,6.38-5.74,7.7-8.38,5-3.31,5.53-7.27.37-11.42.45-14.25S277.15,423.8,277.15,423.8Z" style="fill:#37474f"></path><path d="M215.79,449.09s-.1,0-.25.16C215.71,449.21,215.82,449.15,215.79,449.09Z" style="fill:#37474f"></path><path d="M208.22,462c2.26-4,6.08-6.79,9.78-9.38,1.19-.83,2.37-1.67,3.51-2.55h0c.71-.56,1.4-1.13,2.08-1.73,2-1.77,3.62-3.9,5.7-5.57a44.36,44.36,0,0,1,7.37-4.28q2.61-1.35,5.2-2.72c-1.19.29-2.38.57-3.58.83-1.63.37-3.28.68-4.89,1.12a19.3,19.3,0,0,0-2.26.75,14.62,14.62,0,0,0-2.19,1.13c-.72.45-1.41.94-2.11,1.42l-2.2,1.5c-1.67,1.13-3.33,2.26-5,3.38,0,0,0,0,0,0l4.35-3.2c1.43-1.05,2.83-2.13,4.29-3.11a15.36,15.36,0,0,1,2.15-1.24,17.83,17.83,0,0,1,2.25-.83c1.59-.47,3.23-.76,4.86-1.09s3.25-.64,4.89-.92l2.18-1.14a75.8,75.8,0,0,1,7.6-3.52,48.32,48.32,0,0,1,7.54-2.14l1.75-.35-2.82.24c-1.89.17-3.77.39-5.64.73a46.59,46.59,0,0,0-5.46,1.3l-.33.1c1.36-.32,2.73-.61,4.1-.89,0,0,0,0,0,0a65.51,65.51,0,0,0-8.89,2.59c-1.43.57-2.82,1.24-4.29,1.69a20.34,20.34,0,0,1-4.3.78c-1.66.14-3.32.14-5,.18a0,0,0,0,1,0-.05,35.07,35.07,0,0,0,8.78-1.07c1.45-.43,2.82-1.07,4.23-1.64a32.41,32.41,0,0,1,3.65-1.19,6,6,0,0,1-.74.1,22.75,22.75,0,0,1-2.86,0,14.54,14.54,0,0,0-6.1,1s0,0,0,0a16.41,16.41,0,0,1,5.3-1.2c1-.06,1.93,0,2.89-.08a13,13,0,0,0,2.82-.6,38.29,38.29,0,0,1,5.5-1.32c1.86-.29,3.73-.48,5.61-.6,1.45-.1,2.9-.14,4.35-.19,2.63-.49,5.27-.93,7.86-1.57a14.76,14.76,0,0,1-2.57-.2c-2.07-.29-4.12-.72-6.18-1.06a10.13,10.13,0,0,0-3.34-.1s0,0,0,0a9.34,9.34,0,0,1,2.84-.13c1,.09,2,.24,3,.38s2.11.32,3.16.49c.89.14,1.78.3,2.67.35a8,8,0,0,0,1.47,0l.19,0,.17-.1s.06,0,0,.06h0l.28,0c.93-.27,1.86-.58,2.77-.93.61-.23,1.22-.47,1.81-.75,0,0,.06,0,0,.06a32.8,32.8,0,0,1-5.75,2.25,18.89,18.89,0,0,0-2.14,1.86,21.19,21.19,0,0,0-2.47,3,27.9,27.9,0,0,0-3.46,7.06c-.42,1.24-.77,2.51-1.07,3.8-.33,1.47-.54,3-.94,4.41a11.47,11.47,0,0,1-.84,2.2,9.57,9.57,0,0,1-1.35,1.87c-1.07,1.17-2.22,2.27-3.37,3.37-2.33,2.22-4.71,4.37-7.23,6.37-.3.24-.59.47-.89.69a0,0,0,0,1,0,0c2.48-2,4.9-4.15,7.22-6.38q1.74-1.67,3.37-3.44a12.94,12.94,0,0,0,1.52-1.87,8.46,8.46,0,0,0,1-2.14,40.21,40.21,0,0,0,.95-4.46,11.07,11.07,0,0,1-1.7,2.63,6.75,6.75,0,0,1-1.57,1.25c-.62.35-1.27.63-1.91,1a10.3,10.3,0,0,0-2.89,2.32c-.81.91-1.52,1.91-2.28,2.87a13.33,13.33,0,0,1-2.86,2.9s0,0,0,0a11.55,11.55,0,0,0,2.57-2.65c.72-1,1.39-2,2.12-3a9.16,9.16,0,0,1,2.59-2.45,29.26,29.26,0,0,0,3.65-2,10.18,10.18,0,0,0,2.36-3.15,34.48,34.48,0,0,1,.93-3.63,27.77,27.77,0,0,1,3.3-7.17,17.59,17.59,0,0,1,2.44-3,16.86,16.86,0,0,1,1.91-1.58l-.46.13s0,0,0,0q-.5.13-1,.3c-.84.28-1.65.62-2.46,1a42.41,42.41,0,0,0-4.68,2.55l-1.52.94a18,18,0,0,0-2.81,3.51c-.59.93-1.13,1.89-1.68,2.85s-1.17,2-1.8,3a65.57,65.57,0,0,1-4.24,5.86c-.75.93-1.51,1.85-2.32,2.72s-1.67,1.74-2.51,2.6c-1.69,1.73-3.45,3.38-5.29,4.93l-.69.58s0,0,0,0c1.83-1.57,3.6-3.23,5.28-5s3.2-3.62,4.7-5.51,2.91-3.86,4.26-5.87,2.41-3.89,3.69-5.79a21.74,21.74,0,0,1,2.84-3.5c-.8.5-1.6,1-2.42,1.49-1.54.93-3.15,1.74-4.78,2.52s-3.3,1.53-4.86,2.46a16.43,16.43,0,0,0-4.18,3.48c-1.27,1.49-2.29,3.16-3.52,4.68a29.6,29.6,0,0,1-3.77,3.74c-2.64,2.26-5.54,4.29-7.51,7.21-.24.35-.46.72-.67,1.09,0,0,0,0,0,0,1.65-3,4.35-5.3,6.88-7.59a48.9,48.9,0,0,0,3.74-3.6c1.15-1.31,2.1-2.76,3.12-4.16a10,10,0,0,1-3.55,1.53c-.73.2-1.47.39-2.18.65a14.71,14.71,0,0,0-2.29,1.12c-1.52.92-2.93,2-4.36,3.07q-2.39,1.76-4.78,3.48c-1.8,1.29-3.59,2.62-5.37,3.95,0,0,0,0,0,0,1.59-1.2,3.18-2.41,4.74-3.64s3.06-2.41,4.6-3.6,2.83-2.26,4.35-3.23a15.19,15.19,0,0,1,2.25-1.2,14.66,14.66,0,0,1,2.25-.7,12.23,12.23,0,0,0,4.49-1.62l.16-.21a20.93,20.93,0,0,1,1.86-2.23,15.38,15.38,0,0,1,2-1.73,29.9,29.9,0,0,1,4.68-2.64c1.63-.78,3.27-1.52,4.86-2.38s3.08-1.76,4.6-2.66a35.94,35.94,0,0,1,9.49-4.4l1-.22.52-.34c-2.73.78-5.53,1.32-8.31,1.86a66.75,66.75,0,0,0-7.39,1.77,54.88,54.88,0,0,0-7.71,3.24c-2.62,1.3-5.19,2.68-7.78,4l-4,2.08c-1.27.66-2.55,1.31-3.77,2.06a18.18,18.18,0,0,0-3.2,2.53c-1,.95-1.89,2-2.85,2.92a35.05,35.05,0,0,1-4.1,3.4,18.91,18.91,0,0,1-5.24,5.53l-2.13,1.7s-.11,0-.06-.06c1.13-1,2.3-2,3.41-3a31.7,31.7,0,0,0,2.93-3c.25-.3.48-.6.7-.92l-1,.71c-3.77,2.64-7.89,5-10.66,8.8a16.34,16.34,0,0,0-.93,1.41S208.2,462,208.22,462Z" style="fill:#263238"></path><path d="M326.14,392c-1.27-.44-2.53-.87-3.81-1.29,3.26-19.77,8.67-30.73,15.34-28.41S336.87,374.74,326.14,392Z" style="fill:#ebebeb"></path><path d="M322.86,390.75l-3.92.59c-8.49-18.92-9.34-31-2.44-32S322,370.63,322.86,390.75Z" style="fill:#ebebeb"></path><path d="M319.44,391.19l-3,2.3c-17.63-12.93-28.75-20.86-24.05-25S307.35,373.73,319.44,391.19Z" style="fill:#ebebeb"></path><path d="M316.82,393.13c-.41,1.13-.81,2.25-1.2,3.38-21.9-3.42-34.29-8.3-32.89-14C284.06,377,296.91,383.23,316.82,393.13Z" style="fill:#ebebeb"></path><path d="M315.7,396c.28,1.17.56,2.35.83,3.53-20.3,6.88-32,8.64-33.87,3C280.86,397.17,293.58,396.33,315.7,396Z" style="fill:#ebebeb"></path><path d="M316.34,399.12c.88.91,1.75,1.83,2.61,2.74C305.34,417.17,295,426.8,290.9,422.63S297.83,409.41,316.34,399.12Z" style="fill:#ebebeb"></path><path d="M318.55,401.55c1.24.41,2.47.83,3.7,1.26-3.51,19.73-8.39,32.48-13.78,30.63S308.35,419,318.55,401.55Z" style="fill:#ebebeb"></path><path d="M321.74,402.71c1.27-.2,2.54-.38,3.82-.56,7.53,19.15,6.1,30.5.5,31.31S322.27,422.83,321.74,402.71Z" style="fill:#ebebeb"></path><path d="M325.07,402.29l3-2.23c16.89,13.59,23.5,23,18.74,26.21C341.86,429.59,336.31,419.92,325.07,402.29Z" style="fill:#ebebeb"></path><path d="M327.7,400.41l1.31-3.33c21.93,4.36,34.26,10,31.63,15C358,417.28,346.87,411,327.7,400.41Z" style="fill:#ebebeb"></path><path d="M328.92,397.54c-.25-1.18-.49-2.37-.74-3.55,21.06-6.14,33.62-7.91,34.25-2.15C363.15,397.77,351.14,398.2,328.92,397.54Z" style="fill:#ebebeb"></path><path d="M328.36,394.44c-.87-.94-1.75-1.88-2.63-2.81,14.17-15,25.1-22.32,29.35-17.47S347.52,384.91,328.36,394.44Z" style="fill:#ebebeb"></path><path d="M325.31,391.47l-3.95-.79c-.05-20.11,3-31.78,10-30.38S333,372.91,325.31,391.47Z" style="fill:#fff"></path><path d="M321.89,390.71l-3.75,1.1C306.78,374,301,361.22,307.42,359.14S317.82,370.75,321.89,390.71Z" style="fill:#fff"></path><path d="M318.6,391.59c-.85.89-1.69,1.78-2.53,2.68-19.38-10.56-29.58-19.85-25.73-24.58S303.88,375.8,318.6,391.59Z" style="fill:#fff"></path><path d="M316.34,393.87c-.22,1.17-.43,2.34-.64,3.51-22.05-.53-35.07-.65-34.63-6.48C281.48,385.24,295.21,386.63,316.34,393.87Z" style="fill:#fff"></path><path d="M315.7,396.91c.46,1.13.92,2.26,1.37,3.4-18.94,9.49-31.22,15.77-33.8,10.44C280.74,405.6,294,400.09,315.7,396.91Z" style="fill:#fff"></path><path d="M316.82,399.88l3,2.4c-11.06,17-18.18,29.64-22.76,26S300.22,412.54,316.82,399.88Z" style="fill:#fff"></path><path d="M319.37,402c1.28.25,2.55.5,3.83.77,1.43,19.72.38,33.77-5.2,32.59S312.05,420.73,319.37,402Z" style="fill:#fff"></path><path d="M322.68,402.75l3.69-1.05c10.44,18.07,14.08,30.73,8.55,32.18S326.35,422.7,322.68,402.75Z" style="fill:#fff"></path><path d="M325.91,401.91c.85-.88,1.71-1.74,2.57-2.61,18.82,11.32,30.08,19.13,25.76,22.92S339.73,418,325.91,401.91Z" style="fill:#fff"></path><path d="M328.21,399.69c.25-1.16.5-2.33.76-3.49,22.3,1.47,35,2.63,33.19,8C360.32,409.76,348.76,407.69,328.21,399.69Z" style="fill:#fff"></path><path d="M329,396.68c-.43-1.15-.87-2.3-1.31-3.45,19.67-8.88,30.49-14.81,32.19-9.12C361.59,390,350.89,394.42,329,396.68Z" style="fill:#fff"></path><path d="M327.89,393.66c-1-.82-2-1.64-3-2.46,11.45-16.84,20.7-25.63,25.8-21.34S345.21,381.65,327.89,393.66Z" style="fill:#fff"></path><path d="M311.37,393.2a12.28,12.28,0,0,0,7.68,9.27c5.45,2.11,12.41.59,13.46-.63,1.34-1.57,3.64-13-5.93-16.87S310.92,389.82,311.37,393.2Z" style="fill:#D4AF37"></path><g style="opacity:0.15"><path d="M331.85,397.59a.5.5,0,0,0,.47.55.51.51,0,0,0,.55-.47.51.51,0,0,0-.47-.55A.51.51,0,0,0,331.85,397.59Z"></path><path d="M331.16,401.35a.52.52,0,0,0,1,.08.53.53,0,0,0-.47-.56A.52.52,0,0,0,331.16,401.35Z"></path><path d="M326,401.85a.5.5,0,0,0,.72,0,.51.51,0,1,0-.76-.69A.51.51,0,0,0,326,401.85Z"></path><path d="M324.16,402.88a.51.51,0,1,0,.69-.76.51.51,0,0,0-.69.76Z"></path><path d="M329.19,402.48a.52.52,0,1,0,0-.73A.52.52,0,0,0,329.19,402.48Z"></path><path d="M316.39,400a.51.51,0,1,0,.55-.47A.51.51,0,0,0,316.39,400Z"></path><path d="M332.25,399.45a.31.31,0,0,0,.61,0,.3.3,0,0,0-.28-.32A.31.31,0,0,0,332.25,399.45Z"></path><path d="M332.91,398.06a.3.3,0,0,0,.28.32.3.3,0,0,0,.33-.27.32.32,0,0,0-.28-.33A.31.31,0,0,0,332.91,398.06Z"></path><path d="M328.12,401.62a.29.29,0,0,0,.27.32.3.3,0,0,0,.33-.27.31.31,0,0,0-.28-.33A.3.3,0,0,0,328.12,401.62Z"></path><path d="M330.18,401a.3.3,0,0,0,.28.33.3.3,0,0,0,.32-.28.3.3,0,0,0-.6-.05Z"></path><path d="M329,400.31a.31.31,0,0,0,.61.05.31.31,0,0,0-.61-.05Z"></path><path d="M326.77,402.56a.3.3,0,0,0,.27.33.31.31,0,0,0,.33-.28.3.3,0,0,0-.6-.05Z"></path><path d="M321.53,402.45a.3.3,0,0,0,.6,0,.29.29,0,0,0-.27-.32A.3.3,0,0,0,321.53,402.45Z"></path><path d="M319,401.75a.3.3,0,0,0,.28.33.3.3,0,0,0,0-.6A.29.29,0,0,0,319,401.75Z"></path><path d="M331.45,400.4a.3.3,0,0,0,.28.32.29.29,0,0,0,.32-.27.3.3,0,0,0-.27-.33A.3.3,0,0,0,331.45,400.4Z"></path><path d="M331.76,398.63a.3.3,0,0,0,.28.32.29.29,0,0,0,.32-.27.3.3,0,0,0-.27-.33A.31.31,0,0,0,331.76,398.63Z"></path><path d="M332.82,396.2a.3.3,0,0,0,.27.33.31.31,0,0,0,.05-.61A.3.3,0,0,0,332.82,396.2Z"></path><path d="M323.6,401.34a.31.31,0,1,0,.61.05.31.31,0,0,0-.61-.05Z"></path><path d="M330.12,399.49a.51.51,0,0,0,.48.55.5.5,0,0,0,.55-.47.51.51,0,0,0-.47-.55A.52.52,0,0,0,330.12,399.49Z"></path><path d="M322.2,401.25a.51.51,0,0,0,.72,0,.5.5,0,0,0,0-.72.51.51,0,1,0-.69.76Z"></path><path d="M328,400.11a.51.51,0,0,0,.73,0,.52.52,0,0,0-.77-.69A.51.51,0,0,0,328,400.11Z"></path><path d="M314.64,397.84a.51.51,0,0,0,.47.55.51.51,0,1,0,.08-1A.5.5,0,0,0,314.64,397.84Z"></path><path d="M331.05,396.84a.32.32,0,0,0,.28.33.31.31,0,0,0,.33-.28.3.3,0,0,0-.28-.32A.3.3,0,0,0,331.05,396.84Z"></path><path d="M331.94,394.87a.29.29,0,0,0,.27.32.3.3,0,0,0,.33-.27.3.3,0,0,0-.28-.33A.3.3,0,0,0,331.94,394.87Z"></path><path d="M327.35,399a.31.31,0,0,0,.61,0,.3.3,0,0,0-.28-.32A.31.31,0,0,0,327.35,399Z"></path><path d="M329,398.36a.31.31,0,0,0,.28.33.3.3,0,0,0,.32-.28.31.31,0,0,0-.28-.33A.3.3,0,0,0,329,398.36Z"></path><path d="M326.15,397.06a.3.3,0,1,0,.32-.28A.3.3,0,0,0,326.15,397.06Z"></path><path d="M324.82,399.87a.31.31,0,0,0,.61,0,.3.3,0,0,0-.28-.32A.31.31,0,0,0,324.82,399.87Z"></path><path d="M319.79,400.74a.3.3,0,0,0,.28.32.3.3,0,1,0-.28-.32Z"></path><path d="M317.89,399.41a.3.3,0,0,0,.28.33.3.3,0,0,0,0-.6A.29.29,0,0,0,317.89,399.41Z"></path><path d="M330.29,398.24a.3.3,0,0,0,.28.33.31.31,0,0,0,.33-.28.31.31,0,0,0-.61-.05Z"></path><path d="M330.51,395.5a.31.31,0,0,0,.61.05.3.3,0,0,0-.28-.32A.3.3,0,0,0,330.51,395.5Z"></path><path d="M332.26,393.12a.3.3,0,0,0,.6,0,.29.29,0,0,0-.27-.32A.3.3,0,0,0,332.26,393.12Z"></path><path d="M331.46,391.83a.29.29,0,0,0,.27.32.3.3,0,0,0,.33-.27.31.31,0,0,0-.28-.33A.3.3,0,0,0,331.46,391.83Z"></path><path d="M321.35,399.59a.3.3,0,0,0,.6.05.3.3,0,0,0-.28-.33A.3.3,0,0,0,321.35,399.59Z"></path></g><path d="M355.37,442.23a58.36,58.36,0,0,1,8.36.49c2.78.34,5.54.82,8.27,1.41,1.37.29,2.72.64,4.08,1s2.7.73,4,1.16a67.2,67.2,0,0,1,7.89,2.91,81.47,81.47,0,0,1,7.5,3.84,69.87,69.87,0,0,1,7,4.72,64.32,64.32,0,0,1,6.28,5.61,27.35,27.35,0,0,1,5,6.74l-.1.05a21.31,21.31,0,0,0-2.53-3.29,40.64,40.64,0,0,0-2.92-3,75.29,75.29,0,0,0-6.41-5.29l-1.68-1.22c-.56-.41-1.14-.78-1.71-1.17l-.86-.59-.87-.57c-.58-.37-1.16-.75-1.75-1.11a78,78,0,0,0-7.3-4,66.8,66.8,0,0,0-7.74-3c-1.32-.45-2.65-.82-4-1.23s-2.69-.74-4-1c-2.7-.66-5.44-1.21-8.19-1.61a59.35,59.35,0,0,0-8.31-.71Z" style="fill:#263238"></path><path d="M363.6,442.94a7,7,0,0,1,2.16-1.06,11.91,11.91,0,0,1,1.17-.32c.39-.1.78-.16,1.18-.23a29.83,29.83,0,0,1,4.81-.32c.81,0,1.61,0,2.41.07a21.51,21.51,0,0,1,2.4.28,23.66,23.66,0,0,1,4.63,1.31l0,.1a21.08,21.08,0,0,1-2.4-.12c-.79-.06-1.58-.12-2.37-.21s-1.56-.15-2.34-.28-1.56-.2-2.34-.27a29.63,29.63,0,0,0-4.71,0A11.63,11.63,0,0,0,367,442a11.24,11.24,0,0,0-1.16.2,7.29,7.29,0,0,0-2.18.83Z" style="fill:#263238"></path><path d="M371.26,444.2a40,40,0,0,0,4.53,6.5,49.29,49.29,0,0,0,5.5,5.69,74.7,74.7,0,0,0,6.24,4.83c1.05.8,2.17,1.48,3.26,2.24.54.38,1.11.71,1.67,1.06s1.12.71,1.68,1.09l-.05.1a35.69,35.69,0,0,1-7.18-3.59,40,40,0,0,1-6.22-5.09,51.38,51.38,0,0,1-5.33-6,40,40,0,0,1-4.2-6.8Z" style="fill:#263238"></path><path d="M381.61,447.07a20.26,20.26,0,0,1,6.68-.37,29.71,29.71,0,0,1,6.57,1.52c1,.42,2.11.8,3.11,1.32.5.26,1,.47,1.51.77s1,.6,1.43.91a31.58,31.58,0,0,1,2.67,2.06c.83.76,1.61,1.58,2.36,2.39l-.07.09c-.95-.6-1.86-1.24-2.76-1.87-.47-.28-.93-.59-1.4-.88a15.39,15.39,0,0,0-1.39-.87c-.95-.54-1.86-1.15-2.84-1.64a29.77,29.77,0,0,0-2.94-1.46,28.17,28.17,0,0,0-6.32-1.79,19.9,19.9,0,0,0-6.58-.08Z" style="fill:#263238"></path><path d="M389.9,450.5c1.69,1.45,3.36,2.9,5,4.39.82.75,1.63,1.5,2.43,2.29a15.44,15.44,0,0,1,1.16,1.25c.36.44.69.89,1,1.33,1.33,1.8,2.69,3.56,3.87,5.43s2.3,3.81,3.44,5.7l-.07.08a21.08,21.08,0,0,1-2.25-2.5c-.7-.87-1.37-1.76-2-2.66-1.32-1.79-2.45-3.71-3.68-5.54-.31-.46-.62-.92-.94-1.35a13.51,13.51,0,0,0-1-1.25c-.75-.81-1.52-1.6-2.3-2.39-1.55-1.58-3.13-3.15-4.72-4.7Z" style="fill:#263238"></path><path d="M359.73,442.41c.84.88,1.72,1.73,2.64,2.52s1.85,1.57,2.82,2.28,2,1.33,3,2.06,1.94,1.42,2.87,2.27l0,.09a12.76,12.76,0,0,1-3.42-1.45,11.54,11.54,0,0,1-1.52-1.07c-.47-.41-1-.8-1.4-1.22-.92-.81-1.81-1.67-2.65-2.57a30.15,30.15,0,0,1-2.34-2.84Z" style="fill:#263238"></path><path d="M371.32,441.36a37.62,37.62,0,0,1,4.46,1.38,10,10,0,0,1,2.15.94,5.82,5.82,0,0,1,1.74,1.65l-.06.09a15.38,15.38,0,0,1-2.2-.78,21.91,21.91,0,0,1-2-1.11c-.67-.36-1.35-.71-2.05-1s-1.38-.68-2.08-1Z" style="fill:#263238"></path><path d="M381.15,456.81q.57,1.23,1.2,2.43c.41.8.83,1.59,1.29,2.36s1,1.48,1.42,2.25.84,1.54,1.27,2.38l-.08.08a6.26,6.26,0,0,1-2.1-1.86,11.47,11.47,0,0,1-1.29-2.45c-.37-.84-.7-1.69-1-2.55s-.58-1.72-.81-2.61Z" style="fill:#263238"></path><path d="M375.53,450.74a32.12,32.12,0,0,1,4.45,1.55,9.88,9.88,0,0,1,2.13,1.07,6,6,0,0,1,1.65,1.78l-.07.09a16.35,16.35,0,0,1-2.16-.94c-.68-.33-1.28-.82-1.94-1.22s-1.34-.78-2-1.14-1.37-.73-2.07-1.08Z" style="fill:#263238"></path><path d="M363,445.87a21.76,21.76,0,0,0,1.48,3c.28.47.67.87.9,1.36a7.85,7.85,0,0,1,.6,1.6l-.08.07a3.39,3.39,0,0,1-1.44-1.07,5,5,0,0,1-.76-1.58,10.88,10.88,0,0,1-.52-1.65,12.18,12.18,0,0,1-.29-1.69Z" style="fill:#263238"></path><path d="M396.24,456.49c.46.83.88,1.68,1.31,2.53l1.24,2.57a18,18,0,0,1,1.16,2.62,9.37,9.37,0,0,1,.48,2.86l-.1,0a16.71,16.71,0,0,1-1.4-2.5,24.31,24.31,0,0,1-.95-2.68l-.93-2.69-.91-2.7Z" style="fill:#263238"></path><path d="M397.69,449.91c.64,0,1.28.13,1.93.2s1.28.18,1.92.29a8.22,8.22,0,0,1,1.91.4,4.82,4.82,0,0,1,1.7,1.07l0,.1a7.87,7.87,0,0,1-2-.12,12.11,12.11,0,0,1-1.82-.6L397.66,450Z" style="fill:#263238"></path><path d="M402,458a18.15,18.15,0,0,1,3.16.75,22.15,22.15,0,0,1,3,1.31c.49.25.95.54,1.43.82a7.17,7.17,0,0,1,1.29,1c.19.2.39.4.57.6s.34.44.5.67a6.88,6.88,0,0,1,.79,1.46l-.09.06c-.9-.65-1.65-1.36-2.49-2s-1.57-1.35-2.46-1.93a20.37,20.37,0,0,0-2.74-1.55,21.08,21.08,0,0,0-3-1.15Z" style="fill:#263238"></path><path d="M352.09,447.66s6.92-10.59,9.71-14.12a20.79,20.79,0,0,1,6.59-5.32l.13,1.58s5.7-2,7.52-2.51-.77,1.51-.77,1.51,5.5-1.54,9.78-1,11,7,13.89,8.66,5.91,3.84,8.32,4.4A80.23,80.23,0,0,0,418,442.79c2.55.08,9.45-.5,12.92,1.74s3.12,7.13,4.27,9,4,6.85,3.63,6.83-15.38-4.22-18.51-5.72-9.37-7.49-9.37-7.49a14.66,14.66,0,0,1-4.54,4.6,18,18,0,0,1-5.35,2.13s1.13,1.4,1.63,1.29-6.58,2.18-9.13,2.2-6.56-2.13-7.27-2.52a6.73,6.73,0,0,0-2.17-.5l2.53,1.7a49.86,49.86,0,0,1-5.52-1c-2.36-.61-15.3-6.17-18.94-7.31S352.09,447.66,352.09,447.66Z" style="fill:#455a64"></path><path d="M414.64,445c.38.11.78.18,1.16.29l1.1.3c.75.22,1.49.45,2.23.71.34.12.67.26,1,.39a10.6,10.6,0,0,0,1.78-.07l.91-.13.17-.09a9,9,0,0,1,1.66-.64,14,14,0,0,1,3.59-.44c.69,0,1.38,0,2.07.05.06,0,.05.08,0,.08a38.45,38.45,0,0,0-3.87.22,11.71,11.71,0,0,0-3.15.77,6.22,6.22,0,0,1,1.43,0,7.12,7.12,0,0,1,2.33.82c.74.38,1.46.8,2.19,1.2a10.21,10.21,0,0,0,2.68,1s0,0,0,0a20.46,20.46,0,0,1-4.59-1.86,11.32,11.32,0,0,0-2.35-.76,7.42,7.42,0,0,0-1.34-.13c-.37,0-.75,0-1.13.07a1,1,0,0,1-.94.06c-.35,0-.7,0-1.05,0a22.5,22.5,0,0,1,2.81,1.43,23.2,23.2,0,0,1,3.27,2.5,12,12,0,0,1,3.4,1,11.71,11.71,0,0,1,1.7,1c.52.37,1,.76,1.56,1.11a5.87,5.87,0,0,0,2.05.89s0,0,0,0a8.42,8.42,0,0,1-3.32-1.58,16.16,16.16,0,0,0-3.61-1.84,13.88,13.88,0,0,0-1.67-.49l.4.34q1.88,1.62,3.76,3.21c.71.59,1.45,1.14,2.13,1.76a26.71,26.71,0,0,0,2.19,1.79s0,.07,0,.05c-.67-.48-1.35-.94-2-1.41-.34-.24-.7-.45-1-.7l-1-.75c-1.3-1-2.58-2-3.83-3.07s-2.4-2.1-3.7-3a21.3,21.3,0,0,0-4.07-2.2c-.78-.33-1.57-.63-2.37-.92a6.13,6.13,0,0,1,.82.79,11.19,11.19,0,0,1,.81,1c.52.71,1,1.45,1.46,2.18a15.75,15.75,0,0,0,1.58,2.14,11.21,11.21,0,0,0,2.31,1.87c1.05.68,2.12,1.32,3.17,2a0,0,0,1,1,0,0c-1-.54-1.94-1.1-2.92-1.65a12.85,12.85,0,0,1-2.52-1.74,20.4,20.4,0,0,1-3-4.31c-.26-.42-.54-.84-.83-1.24s-.65-.76-1-1.14l-1.12-.4c-.42-.14-.83-.32-1.25-.45C414.59,445,414.61,445,414.64,445Z" style="fill:#263238"></path><path d="M414.25,445.19a.64.64,0,0,1,.52.36c.18.26.34.53.52.79.35.51.73,1,1.1,1.5a21.26,21.26,0,0,0,2.54,2.74,16.08,16.08,0,0,0,1.65,1.31s0,0,0,0a19,19,0,0,1-2.78-2.21,15.52,15.52,0,0,1-2.36-2.76c-.18-.27-.35-.55-.51-.83l-.24-.43c-.09-.18-.19-.42-.42-.44C414.21,445.24,414.22,445.19,414.25,445.19Z" style="fill:#263238"></path><path d="M353.19,446.82c.73-.49,1.47-1,2.18-1.49l1-.72a.08.08,0,0,1-.09-.12c1-1,2-2,2.93-3.12a38.22,38.22,0,0,0,2.57-3.39,26.49,26.49,0,0,1,2.39-3.45,12.86,12.86,0,0,1,3.47-2.3q2.38-1.23,4.76-2.5a0,0,0,0,1,0,0c-1.39.78-2.76,1.58-4.14,2.36a15.71,15.71,0,0,0-3.55,2.37A20.26,20.26,0,0,0,362.3,438a28.64,28.64,0,0,1-2.56,3.36,25.3,25.3,0,0,1-2.84,2.83l.56-.44c1.41-1.09,2.77-2.22,4.13-3.37a24.69,24.69,0,0,1,4-2.87,26.69,26.69,0,0,1,4.29-1.85l1.47-.45c2-1.2,4.14-2.29,6.23-3.39,1-.55,2.07-1.12,3.14-1.6a8.74,8.74,0,0,1,3.22-.77,24.41,24.41,0,0,1,3.72.27s0,.05,0,0a20.21,20.21,0,0,0-3.39-.15,8.91,8.91,0,0,0-3.2.87l-.58.28a18.57,18.57,0,0,1,3.87-.09,15.5,15.5,0,0,1,2,.43,9.08,9.08,0,0,0,2.08.22,18.09,18.09,0,0,1,2.33.1s0,.05,0,.05c-1.36-.18-2.73.12-4.09-.05-.69-.08-1.35-.29-2-.39s-1.39-.15-2.09-.2-1.45,0-2.17,0c-.8.4-1.58.85-2.37,1.26l-3.18,1.68-2.09,1.07c2.11-.53,4.24-.91,6.38-1.26a18.87,18.87,0,0,1,5.35-.39,17.18,17.18,0,0,1,2.64.63l.65.21h.15a5.34,5.34,0,0,1,.53.09,3.78,3.78,0,0,0,.95,0c.64-.09,1.27-.3,1.91-.39a9.1,9.1,0,0,1,4.08.7s0,.05,0,0a13.89,13.89,0,0,0-2.11-.54,5.2,5.2,0,0,0-2,.09c-.61.15-1.21.37-1.83.46l-.18,0,.58.18c3.59,1.13,7.18,2.28,10.74,3.49l1.32.43s0,.05,0,0c-1.78-.53-3.59-1-5.38-1.52l-5.35-1.59c-1.77-.53-3.53-1.13-5.32-1.59a9.94,9.94,0,0,0-2.71-.36c-.44,0-.88,0-1.33.09a9.51,9.51,0,0,1,3.72,1.5,17.67,17.67,0,0,0,2.77,1.5,29.52,29.52,0,0,0,3.18.91,17.94,17.94,0,0,1,5.62,2.58,25.93,25.93,0,0,0,2.61,1.82,9.87,9.87,0,0,0,3,1c1.21.22,2.43.36,3.65.52s2.57.36,3.85.52c0,0,0,.05,0,0-2.25-.25-4.5-.42-6.75-.68a14.47,14.47,0,0,1-3-.61,9.87,9.87,0,0,1-2.69-1.55,19.53,19.53,0,0,0-2.61-1.71,18.52,18.52,0,0,0-2.85-1.25c-1-.36-2.06-.58-3.09-.89a13.1,13.1,0,0,1-2.86-1.28c-1.8-1.08-3.79-2.52-6-2.19h0a3.15,3.15,0,0,0-.42.09s0,0,0,0a69.21,69.21,0,0,0-8.78,1.86c-.87.26-1.74.57-2.58.91a11.2,11.2,0,0,1,3.39.56,24.32,24.32,0,0,0,2.92.7,21.62,21.62,0,0,0,3.12.23,11.32,11.32,0,0,1,3.07.31,8.21,8.21,0,0,1,2.36,1.24,14.24,14.24,0,0,0,2.26,1.41,12.63,12.63,0,0,0,2.9.75c2.4.41,4.79.87,7.19,1.26,0,0,0,.05,0,0-2.12-.3-4.24-.53-6.36-.8a21.6,21.6,0,0,1-3-.51,8.25,8.25,0,0,1-2.48-1.2,17.28,17.28,0,0,0-2.22-1.45,7.21,7.21,0,0,0-2.83-.59c-1,0-2,0-3.05-.15a16.75,16.75,0,0,1-3.06-.61,13.4,13.4,0,0,0-4.69-1c-.42.18-.83.36-1.24.57a21.28,21.28,0,0,0-4,2.61c-1,.77-1.89,1.55-2.85,2.31,1.82-1.1,4.29-.82,6.27-.42a24,24,0,0,1,3.83,1.12,18.74,18.74,0,0,0,4.1.08,18,18,0,0,1,5.34.25,27.85,27.85,0,0,1,2.68.86c.94.33,1.87.68,2.79,1,1.85.68,3.7,1.35,5.53,2.06,1,.4,2,.88,3,1.27l3.15,1.19s0,0,0,0l-2.83-1c-.92-.33-1.86-.59-2.79-.9-1.88-.62-3.73-1.32-5.59-2l-2.75-1c-.9-.33-1.79-.69-2.71-1a11,11,0,0,0-2.72-.58,23.6,23.6,0,0,0-2.66,0,22,22,0,0,1-4.22-.1c1.06.42,2.11.88,3.14,1.37,2.39,1.14,4.72,2.4,7.13,3.5a31.45,31.45,0,0,0,3.75,1.43,35.41,35.41,0,0,1,4.15,1.38c2.33,1.06,4.31,2.83,6.78,3.57a6.23,6.23,0,0,0,1,.22s0,0,0,0c-2.52-.37-4.58-2-6.78-3.14a18.86,18.86,0,0,0-3.92-1.46c-1.31-.37-2.61-.74-3.89-1.22a78.25,78.25,0,0,1-7.14-3.31,41.68,41.68,0,0,0-7.14-3,18,18,0,0,0-3.77-.69,7.27,7.27,0,0,0-3.54.54,6.23,6.23,0,0,0-.8.44s0,0,0,0l-.58.45c-1.41,1-2.88,2-4.35,2.94l-1,.65S353.15,446.85,353.19,446.82Z" style="fill:#263238"></path><path d="M410.93,447.12s6.25,6,9.38,7.49,18.12,5.69,18.51,5.72-2.49-5-3.63-6.83-.8-6.72-4.27-9c-3-1.94-8.6-1.77-11.69-1.74h0a28.69,28.69,0,0,0-4.8,1.2A9.48,9.48,0,0,0,410.93,447.12Z" style="opacity:0.2"></path><path d="M355.68,439.21,352,438c3.19-17.95,7.63-27.27,13.87-25.62S365.85,423.54,355.68,439.21Z" style="fill:#ebebeb"></path><path d="M352.54,438.06l-3.77.45c-8-17.37-8.4-28.12-2.3-28.7S351.77,419.7,352.54,438.06Z" style="fill:#ebebeb"></path><path d="M349.25,438.39l-2.87,2c-17.24-11.9-25.09-18.13-20.55-21.76C330.14,415.35,337.49,422.59,349.25,438.39Z" style="fill:#ebebeb"></path><path d="M346.7,440.09l-1.2,3c-21.58-3.67-34-5.36-31.9-11C315.51,426.72,327.32,430.73,346.7,440.09Z" style="fill:#ebebeb"></path><path d="M345.58,442.7l.78,3.25c-20.07,5.42-31.5,7.81-32.57,2.5S323.87,442.23,345.58,442.7Z" style="fill:#ebebeb"></path><path d="M346.18,445.53c.85.86,1.69,1.72,2.53,2.6-13.44,13.5-18.18,22.2-22.48,18.71S327.93,454.2,346.18,445.53Z" style="fill:#ebebeb"></path><path d="M348.32,447.83c1.21.42,2.41.85,3.6,1.28-3.52,18.25-4.74,27.09-10.39,24.8C335.75,471.87,338.12,463.54,348.32,447.83Z" style="fill:#ebebeb"></path><path d="M351.43,449l3.7-.37c7.17,18.22,2.91,27.22-2.43,26.88C347.12,475.46,351.83,467.68,351.43,449Z" style="fill:#ebebeb"></path><path d="M354.66,448.74l2.86-2c16.25,13,19.28,22,15.26,24.95C368.52,474.86,365.57,465.44,354.66,448.74Z" style="fill:#ebebeb"></path><path d="M357.19,447.07c.42-1,.83-2.05,1.25-3.08,21,4.54,28.92,12.13,26.46,18.08C382.29,468.26,375.67,457.54,357.19,447.07Z" style="fill:#ebebeb"></path><path d="M358.35,444.43l-.72-3.32c20-5.19,31.82-5.92,32.16.13C390.05,447.45,379.53,445.64,358.35,444.43Z" style="fill:#ebebeb"></path><path d="M357.8,441.54c-.83-.89-1.67-1.76-2.51-2.64,13.42-13.46,23.83-18.72,27.87-14.88S375.94,433.13,357.8,441.54Z" style="fill:#ebebeb"></path><path d="M354.82,438.83,351,438c.13-18.39,2.64-28.32,9-27.21S362.21,421.85,354.82,438.83Z" style="fill:#fff"></path><path d="M351.55,438.08l-3.62.92c-10.89-16.25-10.53-27.38-4.79-28.77C348.75,409,347.63,419.94,351.55,438.08Z" style="fill:#fff"></path><path d="M348.38,438.81l-2.49,2.38c-19-9.85-25.17-16.9-21.19-21.3C328.42,415.84,334.1,424.41,348.38,438.81Z" style="fill:#fff"></path><path d="M346.16,440.84c-.22,1.06-.45,2.12-.68,3.19-21.75-1.16-32.56-2.8-31.2-8.67C315.45,429.7,325.56,433.76,346.16,440.84Z" style="fill:#fff"></path><path d="M345.49,443.59c.44,1.05.87,2.1,1.3,3.16-18.68,7.83-27.21,13.3-29.29,8.55S324.23,445.64,345.49,443.59Z" style="fill:#fff"></path><path d="M346.55,446.35l2.9,2.3c-6.76,9.66-13.53,25.11-18.41,22C326.11,467.65,330.07,457.35,346.55,446.35Z" style="fill:#fff"></path><path d="M349,448.39l3.73.85c-.52,18.69-.06,26.72-5.55,26.61C341,475.8,341.55,465.43,349,448.39Z" style="fill:#fff"></path><path d="M352.25,449.19l3.57-.85c10,17.12,13.39,27.32,8.48,27.73C359.22,476.55,355.71,467.73,352.25,449.19Z" style="fill:#fff"></path><path d="M355.37,448.52l2.48-2.36c18,11,22.28,21.27,19.46,23.65C373,473.47,368.73,463.89,355.37,448.52Z" style="fill:#fff"></path><path d="M357.58,446.52c.25-1.09.49-2.17.73-3.25,21.27,1.9,29.35,8.61,27.56,14.82C383.91,464.61,377.3,454.71,357.58,446.52Z" style="fill:#fff"></path><path d="M358.29,443.71c-.4-1.08-.82-2.15-1.24-3.22,18.66-7.72,29.68-8.61,31.11-3.19C389.44,443,379.15,442.28,358.29,443.71Z" style="fill:#fff"></path><path d="M357.29,440.89l-2.9-2.31C365.3,423.36,372.08,415.86,377,419S373.67,430.11,357.29,440.89Z" style="fill:#fff"></path><path d="M341,440.11a12.73,12.73,0,0,0,7.67,9.84c5.58,2.35,12.84,1,14-.24,1.44-1.58,4.17-13.37-5.62-17.66S340.64,436.59,341,440.11Z" style="fill:#D4AF37"></path><g style="opacity:0.15"><path d="M362.09,445.29a.51.51,0,0,0,.47.58.53.53,0,0,0,.59-.47.54.54,0,0,0-.48-.59A.53.53,0,0,0,362.09,445.29Z"></path><path d="M361.26,449.16a.54.54,0,0,0,.47.59.53.53,0,0,0,.59-.47.52.52,0,0,0-.47-.59A.54.54,0,0,0,361.26,449.16Z"></path><path d="M355.86,449.53a.55.55,0,0,0,.76,0,.53.53,0,0,0,0-.75.53.53,0,0,0-.75,0A.54.54,0,0,0,355.86,449.53Z"></path><path d="M354,450.54a.55.55,0,0,0,.76,0,.53.53,0,0,0-.77-.74A.54.54,0,0,0,354,450.54Z"></path><path d="M359.18,450.27a.54.54,0,0,0,.76,0,.53.53,0,0,0,0-.75.53.53,0,0,0-.75,0A.55.55,0,0,0,359.18,450.27Z"></path><path d="M346,447.32a.54.54,0,0,0,.48.59.53.53,0,0,0,.58-.47.52.52,0,0,0-.47-.59A.54.54,0,0,0,346,447.32Z"></path><path d="M362.45,447.22a.32.32,0,0,0,.28.35.31.31,0,1,0,.07-.62A.31.31,0,0,0,362.45,447.22Z"></path><path d="M363.18,445.81a.31.31,0,1,0,.34-.28A.31.31,0,0,0,363.18,445.81Z"></path><path d="M358.1,449.35a.31.31,0,0,0,.62.07.31.31,0,0,0-.27-.35A.32.32,0,0,0,358.1,449.35Z"></path><path d="M360.26,448.73a.31.31,0,0,0,.27.35.32.32,0,0,0,.35-.28.31.31,0,0,0-.28-.34A.3.3,0,0,0,360.26,448.73Z"></path><path d="M359.08,448a.3.3,0,0,0,.28.34.3.3,0,0,0,.34-.27.31.31,0,1,0-.62-.07Z"></path><path d="M356.67,450.28a.32.32,0,0,0,.28.35.31.31,0,0,0,.34-.28A.3.3,0,0,0,357,450,.31.31,0,0,0,356.67,450.28Z"></path><path d="M351.25,450a.31.31,0,1,0,.62.07.3.3,0,0,0-.28-.34A.3.3,0,0,0,351.25,450Z"></path><path d="M348.61,449.21a.3.3,0,0,0,.27.34.31.31,0,1,0,.07-.62A.3.3,0,0,0,348.61,449.21Z"></path><path d="M361.59,448.18a.32.32,0,0,0,.28.35.31.31,0,0,0,.34-.28.3.3,0,0,0-.27-.34A.31.31,0,0,0,361.59,448.18Z"></path><path d="M362,446.36a.31.31,0,0,0,.27.35.32.32,0,1,0,.07-.63A.31.31,0,0,0,362,446.36Z"></path><path d="M363.14,443.88a.3.3,0,0,0,.27.34.31.31,0,1,0-.27-.34Z"></path><path d="M353.43,448.92a.32.32,0,0,0,.28.35.31.31,0,0,0,.07-.62A.31.31,0,0,0,353.43,448.92Z"></path><path d="M360.24,447.2a.53.53,0,1,0,.59-.47A.54.54,0,0,0,360.24,447.2Z"></path><path d="M352,448.78a.53.53,0,0,0,.75,0,.54.54,0,0,0,0-.76.55.55,0,0,0-.76,0A.53.53,0,0,0,352,448.78Z"></path><path d="M358,447.78a.54.54,0,0,0,.76,0,.53.53,0,1,0-.76,0Z"></path><path d="M344.25,445a.53.53,0,0,0,.47.59.53.53,0,1,0,.12-1.06A.53.53,0,0,0,344.25,445Z"></path><path d="M361.29,444.49a.3.3,0,0,0,.28.34.3.3,0,0,0,.34-.27.31.31,0,1,0-.62-.07Z"></path><path d="M362.27,442.47a.3.3,0,0,0,.27.34.31.31,0,0,0,.35-.27.32.32,0,0,0-.28-.35A.31.31,0,0,0,362.27,442.47Z"></path><path d="M357.39,446.58a.31.31,0,0,0,.28.34.31.31,0,0,0,.07-.62A.31.31,0,0,0,357.39,446.58Z"></path><path d="M359.09,446a.32.32,0,0,0,.63.07.33.33,0,0,0-.28-.35A.32.32,0,0,0,359.09,446Z"></path><path d="M356.2,444.56a.31.31,0,0,0,.62.07.31.31,0,1,0-.62-.07Z"></path><path d="M354.74,447.43a.31.31,0,1,0,.62.07.31.31,0,0,0-.27-.35A.32.32,0,0,0,354.74,447.43Z"></path><path d="M349.5,448.18a.31.31,0,0,0,.28.34.31.31,0,0,0,.07-.62A.31.31,0,0,0,349.5,448.18Z"></path><path d="M347.57,446.75a.31.31,0,0,0,.62.07.31.31,0,1,0-.62-.07Z"></path><path d="M360.46,445.92a.3.3,0,0,0,.28.34.3.3,0,0,0,.34-.27.31.31,0,1,0-.62-.07Z"></path><path d="M360.77,443.08a.32.32,0,0,0,.28.35.31.31,0,0,0,.34-.28.3.3,0,0,0-.27-.34A.31.31,0,0,0,360.77,443.08Z"></path><path d="M362.66,440.67a.3.3,0,0,0,.27.34.31.31,0,1,0,.07-.62A.3.3,0,0,0,362.66,440.67Z"></path><path d="M361.86,439.31a.31.31,0,0,0,.28.34.31.31,0,0,0,.07-.62A.31.31,0,0,0,361.86,439.31Z"></path><path d="M351.15,447a.31.31,0,0,0,.27.35.32.32,0,0,0,.35-.28.31.31,0,0,0-.62-.07Z"></path></g><path d="M285.91,434.33,282.22,436c-11-14.83-14.62-25.15-8.64-27.68C279.46,405.53,281.88,416.47,285.91,434.33Z" style="fill:#ebebeb"></path><path d="M282.68,435.69l-2.52,2.87c-19-6.87-27.69-16.87-23.38-20.68C261,413.88,268.39,423.39,282.68,435.69Z" style="fill:#ebebeb"></path><path d="M280.43,438.15l-.66,3.37c-22,3.11-33,2.07-32.23-3.84C248.34,432,259.74,434.91,280.43,438.15Z" style="fill:#ebebeb"></path><path d="M279.77,441.08c.46,1,.91,2,1.37,3-19.14,11.82-30,19-32.69,13S258.07,447.31,279.77,441.08Z" style="fill:#ebebeb"></path><path d="M280.88,443.68l3,1.74c-11.16,17.4-18.12,27.17-22.92,24.12S264,457.85,280.88,443.68Z" style="fill:#ebebeb"></path><path d="M283.45,445.25l3.86.05c-.06,18.62,2.87,27.89-3,28.47S276.1,463.77,283.45,445.25Z" style="fill:#ebebeb"></path><path d="M286.79,445.36l3.69-1.63c11,14.8,16.77,21.8,10.76,24.23C295.31,470.62,290.83,463.24,286.79,445.36Z" style="fill:#ebebeb"></path><path d="M290,444c.84-1,1.68-1.91,2.51-2.87,19,6.88,22.67,16.07,18.37,19.9C306.64,465.05,304.31,456.3,290,444Z" style="fill:#ebebeb"></path><path d="M292.27,441.54l.66-3.37c21.95-3.07,34.4-.67,33.62,5.11S313,444.86,292.27,441.54Z" style="fill:#ebebeb"></path><path d="M292.92,438.61c-.45-1-.9-2-1.36-3,19.14-11.82,30.86-15.76,33.54-9.77S314.63,432.38,292.92,438.61Z" style="fill:#ebebeb"></path><path d="M291.82,436l-3-1.74c11.15-17.42,19.43-28.06,24.25-25S308.65,421.82,291.82,436Z" style="fill:#ebebeb"></path><path d="M289.25,434.44l-3.87-.05c.08-18.58,4-29.34,9.84-30S296.63,416,289.25,434.44Z" style="fill:#ebebeb"></path><path d="M285,434.57l-3.46,2c-13.63-13-19.23-23-13.5-25.83C273.66,407.72,277.86,417.79,285,434.57Z" style="fill:#fff"></path><path d="M281.93,436.28c-.69,1-1.37,2.06-2.05,3.1-20.37-4.07-31.1-9.26-27.7-13.69S265.44,426.35,281.93,436.28Z" style="fill:#fff"></path><path d="M280.08,438.94c0,1.12-.07,2.23-.1,3.35-21.77,5.71-32.49,8.6-32.8,2.35S258.51,438.35,280.08,438.94Z" style="fill:#fff"></path><path d="M279.91,441.86c.63.9,1.25,1.8,1.88,2.69-17.4,13.73-27.11,23.17-30.5,17.75S259,450.51,279.91,441.86Z" style="fill:#fff"></path><path d="M281.47,444.24l3.34,1.3c-8.3,18.18-10.72,28-15.86,26.13C263.76,469.67,266.85,460,281.47,444.24Z" style="fill:#fff"></path><path d="M284.33,445.43l3.92-.43c2.12,11.28,6.23,24.58.15,25.79C282.41,472.19,280.07,464.34,284.33,445.43Z" style="fill:#fff"></path><path d="M287.73,445.12l3.46-2c13.59,12.86,20.05,18.1,15.8,22C302.28,469.41,294.83,461.89,287.73,445.12Z" style="fill:#fff"></path><path d="M290.77,443.41l2.06-3.1c20.36,4.07,30.68,7.72,27.26,12.12S307.26,453.35,290.77,443.41Z" style="fill:#fff"></path><path d="M292.62,440.75c0-1.12.07-2.23.1-3.35,21.75-5.74,32.83-4.38,32.49,0C324.74,443.39,314.18,441.34,292.62,440.75Z" style="fill:#fff"></path><path d="M292.79,437.83c-.62-.9-1.25-1.8-1.88-2.69,17.4-13.73,28.52-18.18,31.91-12.77S313.73,429.18,292.79,437.83Z" style="fill:#fff"></path><path d="M291.23,435.45l-3.34-1.3c8.3-18.18,15.83-27.71,21-25.88C314.05,410.27,305.85,419.73,291.23,435.45Z" style="fill:#fff"></path><path d="M288.37,434.25l-3.92.44c-3.12-18-3.59-27.77,2.44-29.09S292.66,415.41,288.37,434.25Z" style="fill:#fff"></path><path d="M274.52,446.8a13.62,13.62,0,0,0,13.33.74c5.83-2.84,9.84-9.64,9.64-11.42-.26-2.27-7.84-12.78-18.2-7.91S271.42,444.62,274.52,446.8Z" style="fill:#D4AF37"></path><g style="opacity:0.15"><path d="M293.53,433.46a.58.58,0,0,0,.81,0,.57.57,0,1,0-.81,0Z"></path><path d="M296.07,436.85a.58.58,0,0,0,.81,0,.57.57,0,0,0-.77-.84A.58.58,0,0,0,296.07,436.85Z"></path><path d="M292.57,441.46a.59.59,0,0,0,.52-.62.58.58,0,0,0-.62-.52.57.57,0,0,0-.52.62A.58.58,0,0,0,292.57,441.46Z"></path><path d="M292,443.7a.57.57,0,0,0,.52-.62.58.58,0,0,0-.62-.52.59.59,0,0,0-.52.62A.58.58,0,0,0,292,443.7Z"></path><path d="M295.5,439.3a.57.57,0,1,0-.61-.52A.56.56,0,0,0,295.5,439.3Z"></path><path d="M283.84,447.86a.57.57,0,0,0,.8,0,.57.57,0,1,0-.77-.84A.57.57,0,0,0,283.84,447.86Z"></path><path d="M295.35,434.52a.34.34,0,0,0,.48,0,.34.34,0,1,0-.48,0Z"></path><path d="M294.72,432.94a.33.33,0,1,0,0-.47A.33.33,0,0,0,294.72,432.94Z"></path><path d="M294,439.53a.34.34,0,0,0,.47,0,.33.33,0,1,0-.47,0Z"></path><path d="M295,437.36a.34.34,0,1,0,0-.48A.35.35,0,0,0,295,437.36Z"></path><path d="M293.62,437.8a.33.33,0,1,0,0-.47A.32.32,0,0,0,293.62,437.8Z"></path><path d="M293.75,441.34a.32.32,0,0,0,.47,0,.33.33,0,0,0,0-.47.33.33,0,0,0-.49.45Z"></path><path d="M289.7,445.51a.33.33,0,1,0,0-.47A.33.33,0,0,0,289.7,445.51Z"></path><path d="M287.2,447.08a.32.32,0,0,0,.47,0,.33.33,0,0,0,0-.47.33.33,0,1,0-.49.45Z"></path><path d="M295.52,435.89a.33.33,0,1,0,.49-.45.34.34,0,0,0-.47,0A.32.32,0,0,0,295.52,435.89Z"></path><path d="M294.31,434.31a.34.34,0,1,0,0-.48A.35.35,0,0,0,294.31,434.31Z"></path><path d="M293.14,431.62a.34.34,0,0,0,.47,0,.34.34,0,0,0,0-.48.34.34,0,0,0-.47,0A.34.34,0,0,0,293.14,431.62Z"></path><path d="M290.37,443a.33.33,0,1,0,0-.47A.32.32,0,0,0,290.37,443Z"></path><path d="M293.78,436.29a.57.57,0,1,0,0-.81A.58.58,0,0,0,293.78,436.29Z"></path><path d="M289.23,444.07a.58.58,0,0,0,.52-.62.57.57,0,0,0-.62-.52.57.57,0,0,0-.52.62A.59.59,0,0,0,289.23,444.07Z"></path><path d="M292.66,438.51a.57.57,0,1,0-.1-1.13.57.57,0,1,0,.1,1.13Z"></path><path d="M280.75,447.64a.57.57,0,1,0,0-.8A.56.56,0,0,0,280.75,447.64Z"></path><path d="M292.33,433.54a.34.34,0,0,0,.47,0,.34.34,0,0,0,0-.48.34.34,0,0,0-.47,0A.34.34,0,0,0,292.33,433.54Z"></path><path d="M291.39,431.33a.34.34,0,0,0,.47,0,.34.34,0,0,0,0-.48.34.34,0,0,0-.47,0A.34.34,0,0,0,291.39,431.33Z"></path><path d="M291.26,438.15a.34.34,0,1,0,0-.48A.35.35,0,0,0,291.26,438.15Z"></path><path d="M292,436.37a.33.33,0,0,0,.47,0,.33.33,0,1,0-.47,0Z"></path><path d="M288.8,437.69a.34.34,0,0,0,.47,0,.34.34,0,0,0,0-.48.34.34,0,1,0-.49.46Z"></path><path d="M290.09,440.89a.34.34,0,0,0,.47,0,.34.34,0,0,0,0-.48.34.34,0,0,0-.47,0A.34.34,0,0,0,290.09,440.89Z"></path><path d="M287,445.63a.33.33,0,1,0,.49-.45.33.33,0,0,0-.47,0A.32.32,0,0,0,287,445.63Z"></path><path d="M284.48,446.19a.34.34,0,1,0,0-.48A.35.35,0,0,0,284.48,446.19Z"></path><path d="M292.9,435.21a.32.32,0,0,0,.47,0,.33.33,0,0,0,0-.47.33.33,0,1,0-.49.45Z"></path><path d="M290.83,433a.33.33,0,0,0,.49-.45.33.33,0,1,0-.49.45Z"></path><path d="M290.21,429.74a.33.33,0,1,0,0-.47A.32.32,0,0,0,290.21,429.74Z"></path><path d="M288.55,429.42a.34.34,0,0,0,.48,0,.34.34,0,1,0-.48,0Z"></path><path d="M287.24,443.5a.33.33,0,1,0,0-.47A.32.32,0,0,0,287.24,443.5Z"></path></g></g><g id="freepik--jar-1--inject-141"><path d="M214.14,459.06H117.35c-29.79-24.53-62.7-83.58-55.19-124.62,5.7-31.1,37.12-46.26,37.12-46.26v-3l-1-.95a6.09,6.09,0,0,1,0-8.6l1-1v-4.22l-1-1a6.09,6.09,0,0,1,0-8.6l1-1v-5.72s14.84-5.75,66.39-5.75c49.25,0,66.54,5.75,66.54,5.75V260l1,1a6.09,6.09,0,0,1,0,8.6l-1,1v4.22l1,1a6.09,6.09,0,0,1,0,8.6l-1,.95v3s31.42,15.16,37.12,46.26C276.84,375.48,243.93,434.53,214.14,459.06Z" style="fill:#ebebeb;opacity:0.8"></path><path d="M208.71,449.86H122.78c-25.23-20.77-53-69.46-49.69-105.53,18.34-1.94,62.44-6.29,92.23-6.76,28.72-.45,72.58,3.33,92.92,5.26C262.47,379,234.28,428.8,208.71,449.86Z" style="fill:#D4AF37"></path><path d="M258.24,342.83s-49.56,8.47-92.5,8.47-92.65-7-92.65-7c18.34-1.94,62.44-6.29,92.23-6.76C194,337.12,237.9,340.9,258.24,342.83Z" style="fill:#fff;opacity:0.30000000000000004"></path><g style="opacity:0.1"><path d="M213.67,392.14a2.22,2.22,0,1,0,2.21-2.22A2.21,2.21,0,0,0,213.67,392.14Z"></path><path d="M179.38,380a2.22,2.22,0,1,0,2.21-2.22A2.21,2.21,0,0,0,179.38,380Z"></path><path d="M131.35,442.56a2.22,2.22,0,1,0-.4-3.11A2.22,2.22,0,0,0,131.35,442.56Z"></path><path d="M93.12,357.9a2.22,2.22,0,1,0,2.22-2.21A2.22,2.22,0,0,0,93.12,357.9Z"></path><path d="M216.8,409.29a1.3,1.3,0,1,0,1.3-1.3A1.3,1.3,0,0,0,216.8,409.29Z"></path><path d="M193.88,434.75a1.3,1.3,0,1,0,1.3-1.3A1.3,1.3,0,0,0,193.88,434.75Z"></path><path d="M243.11,373.35a1.3,1.3,0,1,0,1.3-1.3A1.3,1.3,0,0,0,243.11,373.35Z"></path><path d="M132.7,417.11a1.3,1.3,0,1,0,1.3-1.3A1.31,1.31,0,0,0,132.7,417.11Z"></path><path d="M111.52,367a1.3,1.3,0,1,0,1.3-1.3A1.3,1.3,0,0,0,111.52,367Z"></path></g><path d="M229.21,255.22c-20.69,2.89-41.61,3.77-62.48,3.71s-42-1.05-62.89-2.89c-.15-.2-.34-.29-.43-.6a.92.92,0,0,1,.36-1.05c1.91-.89,4.09-.86,6.14-1.21a369.22,369.22,0,0,1,42.31-2.36c-14.08.77-28.14,2-42.11,3.89a35.12,35.12,0,0,0-5.33,1s0,0,0,0l.08-.07a.78.78,0,0,0,0-1.06c38.65,2.23,83.7,4.22,124.39.61Z" style="fill:#c7c7c7"></path><path d="M101.25,260.67c37.27,2.15,74.69,3.43,112,1.22,5.33-.24,10.64-.8,16-1.22-42.43,5.21-85.47,3.76-128,0Z" style="fill:#fff"></path><path d="M101.25,270.3c37.27,2.15,74.69,3.42,112,1.22,5.33-.24,10.64-.8,16-1.22-42.43,5.2-85.47,3.76-128,0Z" style="fill:#c7c7c7"></path><path d="M101.25,275c37.27,2.15,74.69,3.42,112,1.22,5.33-.24,10.64-.8,16-1.22-42.43,5.2-85.47,3.75-128,0Z" style="fill:#fff"></path><path d="M101.25,285.72c37.27,2.15,74.69,3.43,112,1.22,5.33-.24,10.64-.8,16-1.22-42.43,5.21-85.47,3.76-128,0Z" style="fill:#c7c7c7"></path><path d="M115.73,290.56c33.26,2.42,66.83,3.85,100,0-33.06,5.2-66.89,3.75-100,0Z" style="fill:#c7c7c7"></path><path d="M107.05,295.24S78.8,317.57,78.8,351.3s19.54,64.51,41,90.35c1.72,2.07,10-12,9.86-14.29s-19.28-43.36-8.32-96.29C127.32,302.18,107.05,295.24,107.05,295.24Z" style="fill:#fff;opacity:0.4"></path><path d="M214.14,459.06H199.43S241,421.44,239.94,349.34c-.44-29.76-42.77-56.52-42.77-56.52v-4.75s3.77-2.55,3.77-6.16-4.11-4.38-4.11-4.38v-4.82s3-3,3-5.42-3.32-4.06-3.32-4.06l-.08-5.44s21.23.28,35.73-2.57V260l1,1a6.09,6.09,0,0,1,0,8.6l-1,1v4.22l1,1a6.09,6.09,0,0,1,0,8.6l-1,.95v3s31.42,15.16,37.12,46.26C276.84,375.48,243.93,434.53,214.14,459.06Z" style="opacity:0.05"></path><path d="M127.09,306.68c20.77,1.4,41.43.92,62.18.16,3-.06,6-.25,9-.16-21.23,7.29-50.18,8.49-71.19,0Z" style="fill:#fff;opacity:0.4"></path></g><g id="freepik--honey-stick--inject-141"><path d="M114.32,253.37l156-24.47a3.24,3.24,0,0,1,3.68,2.76l1,7.15a3.25,3.25,0,0,1-2.75,3.68L115.72,263.05Z" style="fill:#D4AF37"></path><path d="M114.32,253.37l156-24.47a3.24,3.24,0,0,1,3.68,2.76l1,7.15a3.25,3.25,0,0,1-2.75,3.68L115.72,263.05Z" style="opacity:0.30000000000000004"></path><polygon points="114.32 253.37 116.96 252.99 119.07 262.56 115.72 263.05 114.32 253.37" style="opacity:0.1"></polygon><path d="M47.66,252a102.27,102.27,0,0,1,31.79-10c14.9-2.15,33.33.61,33.33.61l4.48,31.12a123.93,123.93,0,0,1-31.88,9.43,117.12,117.12,0,0,1-33.24-.05Z" style="fill:#D4AF37"></path><g style="opacity:0.2"><path d="M47.66,252a102.27,102.27,0,0,1,31.79-10c14.9-2.15,33.33.61,33.33.61l4.48,31.12a123.93,123.93,0,0,1-31.88,9.43,117.12,117.12,0,0,1-33.24-.05Z" style="fill:#fff"></path></g><path d="M103.74,278.92l-5.41-37.56,1.2.07,7.39,36.44C105.91,278.21,104.85,278.57,103.74,278.92Z" style="opacity:0.1"></path><path d="M61.7,284.14l-5.19-36.07c.36-.15.75-.28,1.14-.43l7.42,36.65C63.89,284.25,62.76,284.2,61.7,284.14Z" style="opacity:0.1"></path><path d="M90,282.43l-5.89-40.89,1.27-.1,8,40.31C92.24,282,91.12,282.21,90,282.43Z" style="opacity:0.1"></path><path d="M76,284.14l-5.8-40.31c.41-.1.81-.2,1.24-.29l8,40.35C78.22,284,77.08,284.09,76,284.14Z" style="opacity:0.1"></path><rect x="105.73" y="239.4" width="9.33" height="38.8" transform="translate(256.56 499.21) rotate(171.8)" style="fill:#D4AF37"></rect><rect x="105.73" y="239.4" width="9.33" height="38.8" transform="translate(256.56 499.21) rotate(171.8)" style="opacity:0.30000000000000004"></rect><rect x="91.77" y="233.68" width="9.33" height="54.48" transform="translate(229.09 505.42) rotate(171.8)" style="fill:#D4AF37"></rect><rect x="91.77" y="233.68" width="9.33" height="54.48" transform="translate(229.09 505.42) rotate(171.8)" style="opacity:0.30000000000000004"></rect><rect x="77.79" y="234.47" width="9.33" height="56.86" transform="matrix(-0.99, 0.14, -0.14, -0.99, 201.56, 511.35)" style="fill:#D4AF37"></rect><rect x="77.79" y="234.47" width="9.33" height="56.86" transform="matrix(-0.99, 0.14, -0.14, -0.99, 201.56, 511.35)" style="opacity:0.30000000000000004"></rect><rect x="63.83" y="237.71" width="9.33" height="54.48" transform="translate(174.06 517.42) rotate(171.8)" style="fill:#D4AF37"></rect><rect x="63.83" y="237.71" width="9.33" height="54.48" transform="translate(174.06 517.42) rotate(171.8)" style="opacity:0.30000000000000004"></rect><rect x="49.84" y="247.45" width="9.33" height="38.8" transform="translate(146.49 523.2) rotate(171.8)" style="fill:#D4AF37"></rect><rect x="49.84" y="247.45" width="9.33" height="38.8" transform="translate(146.49 523.2) rotate(171.8)" style="opacity:0.30000000000000004"></rect><path d="M48.52,258C53,253,59.34,270.34,70.16,272.78c6.13,1.38,10.73-2,19.92-1.89,7,.11,8.25,8,18.26,6.33,1.43-.24,1.92,7.57-2.35,11.84s-17.09,6-22.19,10.61c-7.5,6.76,1.59,19.95-.25,25.26-1.27,3.69-6.16,3.94-7-.29-.71-3.67,1.76-17.13-.62-16.39C70,310.12,64.38,341.19,68.1,355.1S79.35,385.23,78.67,394c-1.15,14.7-8,28.48-17.88,28.48-4.29,0-11.26-5-11.9-9.18-.85-5.54,5.47-11,5-15.52-.87-7.86-16.86-20.53-16.2-38s16-40.92,17.41-50.45-.38-17.08-2.74-21.68S42.42,265,48.52,258Z" style="fill:#D4AF37;opacity:0.7000000000000001"></path><path d="M48.36,263.84c-.7,14.11,8.1,23.29,9.2,33.64,1,9.23-4.11,20-3.7,21s7.31-12.16,7.64-22.46-8.57-21.81-10.28-26.49S48.45,262,48.36,263.84Z" style="fill:#fff;opacity:0.5"></path><path d="M80.69,333.32c5.28,0,5.37,8.29,0,8.29S76.24,333.32,80.69,333.32Z" style="fill:#D4AF37;opacity:0.7000000000000001"></path><path d="M40.83,366.26c2.2,13.62,15.5,21.3,15.87,31.65.23,6.46,1.06-2.74.26-6.68s-10.69-16.44-12-23.54c-1.21-6.46-1.61-14.57-2.77-13.69S39.87,360.32,40.83,366.26Z" style="fill:#fff;opacity:0.5"></path><path d="M47,413.35l1.21,1.33A4.09,4.09,0,0,1,47,413.35Z" style="fill:#D4AF37"></path><path d="M78.67,394c-1.15,14.7-8,28.49-17.88,28.49-3.35,0-8.33-3.07-10.66-6.39a50.5,50.5,0,0,0,7.56,3.79C67.55,424,75,406.34,75.44,397.78S69.08,374.26,64.6,362s1.86-33.16,4.62-38.94c-2.3,10.51-3.25,24.1-1.11,32.06C71.83,369,79.35,385.22,78.67,394Z" style="fill:#D4AF37;opacity:0.5"></path></g><g id="freepik--Bees--inject-141"><path d="M274.3,79.32a7.33,7.33,0,0,1,3,1.38,5.28,5.28,0,0,0,1.35,1,6.23,6.23,0,0,0,2,.47c-1,1.91-2.33,4.42-3.4,6.31l-.1,0a10.16,10.16,0,0,1,2.57-6.19l.23.59c-.58-.27-1-.63-1.49-.89-1-.52-2.16-.63-3-1.37a6.12,6.12,0,0,1-1.24-1.15l.05-.09Z" style="fill:#263238"></path><path d="M276.47,78.12a7.24,7.24,0,0,1,3.15,1,5.85,5.85,0,0,0,1.46.77,6,6,0,0,0,2.1.21c-.74,2-1.75,4.68-2.57,6.69h-.1a10.17,10.17,0,0,1,1.76-6.47l.3.56c-.6-.19-1.06-.5-1.59-.68-1-.4-2.22-.36-3.17-1a6.2,6.2,0,0,1-1.38-1l0-.09Z" style="fill:#263238"></path><path d="M262.57,87.5a7.38,7.38,0,0,1,2.67,2,5.38,5.38,0,0,0,1.13,1.2,6,6,0,0,0,1.91.87c-1.34,1.67-3.16,3.87-4.58,5.51l-.09,0a10.2,10.2,0,0,1,3.75-5.56l.1.63a11.18,11.18,0,0,0-2.7-2.06,6.3,6.3,0,0,1-2.26-2.43l.07-.07Z" style="fill:#263238"></path><path d="M264.93,86.75a7.39,7.39,0,0,1,2.89,1.59,5.31,5.31,0,0,0,1.28,1,6.24,6.24,0,0,0,2,.62c-1.13,1.83-2.65,4.24-3.85,6l-.09,0a10.22,10.22,0,0,1,3-6l.18.61A11,11,0,0,0,267.42,89a6.41,6.41,0,0,1-2.55-2.13l.06-.08Z" style="fill:#263238"></path><path d="M256.11,88.52A7.3,7.3,0,0,1,258,91.2a5.44,5.44,0,0,0,.71,1.5,6.09,6.09,0,0,0,1.55,1.41c-1.8,1.18-4.21,2.7-6.07,3.82l-.07-.07a10.12,10.12,0,0,1,5.29-4.11l-.1.62a11.11,11.11,0,0,0-1.93-2.79,6.33,6.33,0,0,1-1.4-3l.09,0Z" style="fill:#263238"></path><path d="M258.59,88.54A7.3,7.3,0,0,1,260.84,91a5.75,5.75,0,0,0,.89,1.4,6.25,6.25,0,0,0,1.72,1.21c-1.64,1.39-3.83,3.21-5.53,4.55l-.09,0a10.16,10.16,0,0,1,4.73-4.76l0,.63a11,11,0,0,0-2.27-2.52,6.37,6.37,0,0,1-1.76-2.81l.08-.06Z" style="fill:#263238"></path><path d="M277.17,72.38s-7.35-10.66-16.32-14-16.41-3.07-18.6.93,10.23,7.92,15.19,9.28S277.17,72.38,277.17,72.38Z" style="fill:#ebebeb;opacity:0.7000000000000001"></path><path d="M273.16,71s-10.35-8.69-20.3-9.58-17.36,1.46-18.45,6.09,12.49,5.13,17.85,5.12S273.16,71,273.16,71Z" style="fill:#ebebeb;opacity:0.7000000000000001"></path><path d="M269.62,71.72c-2.42-.57-9.12.22-13.06,1.7-5.13,1.93-10.33,14.2-10.71,16.37s1,6.19,4.81,5.93,12.83-3.62,14.85-5.37c3.51-3,8.43-8.73,8.69-10.32S270.92,72,269.62,71.72Z" style="fill:#D4AF37"></path><path d="M268.42,87.56c1.1-1.12,2.19-2.34,3.11-3.46a23.3,23.3,0,0,1-6.83-12.42,44.09,44.09,0,0,0-4.59.72A28,28,0,0,0,268.42,87.56Z" style="fill:#263238"></path><path d="M252.2,77.21a32,32,0,0,0,9.06,15.4h0a18.17,18.17,0,0,0,4.24-2.27.39.39,0,0,0,.1-.08,27.71,27.71,0,0,1-9.4-16.69A12,12,0,0,0,252.2,77.21Z" style="fill:#263238"></path><path d="M246.57,87.58a29.79,29.79,0,0,0,5.43,8,40.47,40.47,0,0,0,5.33-1.44c-4.52-3.57-6.9-8.79-8.07-12.3A50.31,50.31,0,0,0,246.57,87.58Z" style="fill:#263238"></path><path d="M250.66,95.73c3.82-.26,12.83-3.63,14.85-5.39,3.51-3,8.43-8.72,8.69-10.32a3.62,3.62,0,0,0-.26-1.51c-3.57,3.18-11.42,9.36-13.51,10.46-2.54,1.32-9.91,3.4-11.19,2.11S247,89.19,248,84.4v0a29.44,29.44,0,0,0-2.1,5.41C245.48,92,246.84,96,250.66,95.73Z" style="opacity:0.1"></path><path d="M266.33,73.41a29.25,29.25,0,0,0-8.83,1.67c-2.21,1-3.7,3.11-4.88,5.13a41,41,0,0,1,4.5-3.69c2.9-1.34,6.24-1.81,9.21-3.11Z" style="fill:#fff;opacity:0.30000000000000004"></path><path d="M273.42,67.27c4-.82,7.22,1.35,9.11,4.61s0,7-2.68,8.38-8.16.84-10.63-2.19S268.52,68.26,273.42,67.27Z" style="fill:#263238"></path><path d="M268.58,77a4.34,4.34,0,0,0,.64,1.08c2.47,3,7.95,3.62,10.63,2.19a6.39,6.39,0,0,0,3.26-7A7.78,7.78,0,0,1,277.29,79C276.18,79.23,271.93,80.14,268.58,77Z" style="opacity:0.1"></path><path d="M285.55,66c2.7.43,4.06,2.89,4.73,4.74s.61,3.66-.77,4.37-4.26.44-6.38-.88-3-4.53-2.43-5.87A5.15,5.15,0,0,1,285.55,66Z" style="fill:#263238"></path><path d="M291,61.15a8.22,8.22,0,0,1-2.43,1.48c-.88.92-.85,2.34-1.48,3.4a4.58,4.58,0,0,1-.48.89h-.09a3.39,3.39,0,0,1,.38-3c.33-.62,1-1,1.45-1.49a2.34,2.34,0,0,1,2.63-1.35l0,.1Z" style="fill:#263238"></path><path d="M294.2,64.8a8.24,8.24,0,0,1-2.85,0c-.92.16-1.57,1.06-2.29,1.55a10.24,10.24,0,0,1-1.66,1l-.08-.06a3.34,3.34,0,0,1,1.95-2.34,10.82,10.82,0,0,1,2-.49,2.33,2.33,0,0,1,2.94.27l0,.09Z" style="fill:#263238"></path><path d="M95.24,227.52s9.15-9.16,18.58-10.84,16.69-.05,18.12,4.28-11.49,5.94-16.62,6.38S95.24,227.52,95.24,227.52Z" style="fill:#ebebeb;opacity:0.7000000000000001"></path><path d="M102.62,228.07c2.33-.87,9.08-.93,13.17.05,5.33,1.27,12,12.8,12.67,14.9s-.2,6.27-4,6.49-13.18-2-15.41-3.47c-3.86-2.57-9.45-7.61-9.91-9.16S101.37,228.54,102.62,228.07Z" style="fill:#D4AF37"></path><path d="M105.79,243.64c-1.24-1-2.47-2-3.52-3a23.37,23.37,0,0,0,5.23-13.17,40.36,40.36,0,0,1,4.64.14A28.11,28.11,0,0,1,105.79,243.64Z" style="fill:#263238"></path><path d="M120.59,231.34a32.06,32.06,0,0,1-7.07,16.41h0A18.7,18.7,0,0,1,109,246l-.11-.07a27.78,27.78,0,0,0,7.25-17.74A12.13,12.13,0,0,1,120.59,231.34Z" style="fill:#263238"></path><path d="M127.47,240.92a29.92,29.92,0,0,1-4.39,8.59,39.89,39.89,0,0,1-5.47-.77c4-4.1,5.75-9.58,6.47-13.2A49.26,49.26,0,0,1,127.47,240.92Z" style="fill:#263238"></path><path d="M124.43,249.52c-3.83.22-13.18-2-15.41-3.49-3.86-2.56-9.45-7.6-9.91-9.15a3.59,3.59,0,0,1,.07-1.53c3.94,2.7,12.5,7.85,14.71,8.68,2.68,1,10.26,2.14,11.37.7s2-2.16.44-6.79v0a29.78,29.78,0,0,1,2.76,5.11C129.1,245.13,128.25,249.29,124.43,249.52Z" style="opacity:0.1"></path><path d="M106.1,229.34a29.71,29.71,0,0,1,9,.54c2.31.72,4.06,2.63,5.47,4.49a39.32,39.32,0,0,0-4.92-3.1c-3.05-1-6.41-1-9.52-1.93Z" style="fill:#fff;opacity:0.30000000000000004"></path><path d="M98.46,227.22s12.55-5,22.28-2.71,16,6.84,15.59,11.58-13.46.95-18.55-.75S98.46,227.22,98.46,227.22Z" style="fill:#ebebeb;opacity:0.7000000000000001"></path><path d="M98.29,224.13c-4.09-.31-7,2.24-8.47,5.71s.88,6.9,3.72,8,8.19-.19,10.27-3.5S103.28,224.5,98.29,224.13Z" style="fill:#263238"></path><path d="M104.31,233.17a4.09,4.09,0,0,1-.5,1.15c-2.07,3.32-7.43,4.59-10.27,3.51a6.38,6.38,0,0,1-4.11-6.56,7.74,7.74,0,0,0,6.49,4.94C97.05,236.34,101.38,236.71,104.31,233.17Z" style="opacity:0.1"></path><path d="M86.1,224.42c-2.62.77-3.67,3.38-4.09,5.3s-.15,3.7,1.31,4.24,4.27-.1,6.21-1.67,2.44-4.88,1.68-6.13A5.17,5.17,0,0,0,86.1,224.42Z" style="fill:#263238"></path><path d="M80.14,220.15a2.32,2.32,0,0,1,2.78,1c.49.47,1.22.72,1.62,1.29a3.38,3.38,0,0,1,.76,3l-.09,0a10.07,10.07,0,0,1-1.06-1.63c-.45-.76-.66-1.84-1.42-2.39a8.2,8.2,0,0,1-2.59-1.16v-.1Z" style="fill:#263238"></path><path d="M77.32,224.19a2.36,2.36,0,0,1,2.89-.64,11.71,11.71,0,0,1,2.06.23,3.37,3.37,0,0,1,2.23,2.09l-.07.07a10.19,10.19,0,0,1-1.77-.81c-.78-.4-1.54-1.2-2.48-1.25a8.31,8.31,0,0,1-2.81.4l-.05-.09Z" style="fill:#263238"></path><path d="M96,358.21c1.06,2.1,1.79,8.43,1.29,12.37-.66,5.14-10.81,12.59-12.72,13.41s-5.91.44-6.5-3.13.54-12.58,1.71-14.82c2-3.89,6.19-9.64,7.6-10.24S95.39,357.08,96,358.21Z" style="fill:#D4AF37"></path><path d="M81.65,362.76c.8-1.26,1.68-2.52,2.51-3.62a22.13,22.13,0,0,0,12.9,3.59,38.85,38.85,0,0,1,.34,4.37A26.54,26.54,0,0,1,81.65,362.76Z" style="fill:#263238"></path><path d="M94.7,375.42a30.35,30.35,0,0,1-16.13-5h0A17.41,17.41,0,0,1,79.73,366l.06-.11a26.17,26.17,0,0,0,17.39,5A11.32,11.32,0,0,1,94.7,375.42Z" style="fill:#263238"></path><path d="M86.39,382.85a28.44,28.44,0,0,1-8.5-3.26,38.28,38.28,0,0,1,.16-5.21c4.26,3.38,9.59,4.43,13.06,4.74A46,46,0,0,1,86.39,382.85Z" style="fill:#263238"></path><path d="M78,380.86c-.6-3.57.54-12.58,1.71-14.82,2-3.89,6.18-9.65,7.6-10.24a3.41,3.41,0,0,1,1.44-.08c-2.14,4-6.11,12.53-6.66,14.69-.68,2.62-1,9.85.48,10.74s2.24,1.69,6.43-.26h0A27.55,27.55,0,0,1,84.52,384C82.61,384.8,78.61,384.43,78,380.86Z" style="opacity:0.1"></path><path d="M95.12,361.6a27.76,27.76,0,0,1,.39,8.48c-.44,2.25-2.05,4.08-3.66,5.6a37.59,37.59,0,0,0,2.42-4.94c.59-3,.31-6.12.85-9.14Z" style="fill:#fff;opacity:0.30000000000000004"></path><path d="M99.71,353.36c-1.86-3.39-5.38-4.38-8.88-3.76s-5,4.25-4.41,7S90.79,363,94.48,363,102,357.5,99.71,353.36Z" style="fill:#263238"></path><path d="M95.65,362.79a4,4,0,0,1-1.17.19c-3.7.07-7.46-3.52-8.07-6.33A6,6,0,0,1,89.49,350a7.35,7.35,0,0,0-.58,7.69C89.4,358.66,91.33,362.29,95.65,362.79Z" style="opacity:0.1"></path><path d="M100.77,345.45a4.87,4.87,0,0,0-5.23-1.8c-1.84.31-3.38,1.54-3.33,3a5.55,5.55,0,0,0,2.91,4.6c2.07,1.13,5.14.39,6-.72A4.89,4.89,0,0,0,100.77,345.45Z" style="fill:#263238"></path><path d="M96.8,337.27a2.16,2.16,0,0,1,1.42,2.41,11.52,11.52,0,0,1,.41,1.92,3.12,3.12,0,0,1-1.25,2.61l-.09,0a8.48,8.48,0,0,1,.19-1.83c.12-.81.65-1.72.42-2.58a6.85,6.85,0,0,1-1.17-2.41l.07-.07Z" style="fill:#263238"></path><path d="M105.68,341.85a6.92,6.92,0,0,1-2.63.57,1.61,1.61,0,0,0-.71.53,12.38,12.38,0,0,1-2.38,2.67l-.09-.05a3.19,3.19,0,0,1,.57-1.88,5.36,5.36,0,0,1,2.48-1.57,2.15,2.15,0,0,1,2.77-.37v.1Z" style="fill:#263238"></path><path d="M96.07,352.3s8.32,9.67,9.28,19.07-1.19,16.41-5.55,17.49-5-11.74-5-16.81S96.07,352.3,96.07,352.3Z" style="fill:#ebebeb;opacity:0.7000000000000001"></path><path d="M95.16,351.37s-12.72.94-20,6.9-10.78,12.43-8.47,16.28,11.83-4.76,15.46-8.3S95.16,351.37,95.16,351.37Z" style="fill:#ebebeb;opacity:0.7000000000000001"></path><path d="M436,284.72c2.35,0,8.31,2.29,11.58,4.55,4.26,2.94,6.21,15.39,6.06,17.46s-2.32,5.45-5.77,4.33-10.92-6.26-12.38-8.33c-2.52-3.58-5.71-9.93-5.6-11.45S434.74,284.7,436,284.72Z" style="fill:#D4AF37"></path><path d="M433.47,299.51c-.75-1.28-1.47-2.65-2.06-3.89a22.06,22.06,0,0,0,9.11-9.81,40.11,40.11,0,0,1,4,1.72A26.49,26.49,0,0,1,433.47,299.51Z" style="fill:#263238"></path><path d="M450.71,293.75a30.28,30.28,0,0,1-11.84,12h0a17.72,17.72,0,0,1-3.37-3l-.07-.11a26.2,26.2,0,0,0,12.45-13.13A11.2,11.2,0,0,1,450.71,293.75Z" style="fill:#263238"></path><path d="M453.49,304.54a28.52,28.52,0,0,1-6.8,6.06,38,38,0,0,1-4.56-2.55c5-2.23,8.34-6.47,10.22-9.41A47.51,47.51,0,0,1,453.49,304.54Z" style="fill:#263238"></path><path d="M447.87,311.07c-3.45-1.12-10.92-6.27-12.38-8.34-2.52-3.58-5.72-9.93-5.6-11.45a3.53,3.53,0,0,1,.6-1.33c2.54,3.73,8.32,11.19,10,12.68,2,1.8,8.3,5.39,9.77,4.5s2.52-1.21,2.71-5.82c0,0,0,0,0,0a27.65,27.65,0,0,1,.69,5.44C453.48,308.8,451.31,312.18,447.87,311.07Z" style="opacity:0.1"></path><path d="M438.63,287a27.41,27.41,0,0,1,7.71,3.55c1.79,1.42,2.68,3.69,3.29,5.82a37.21,37.21,0,0,0-3.28-4.42c-2.35-1.89-5.29-3.09-7.72-5Z" style="fill:#fff;opacity:0.30000000000000004"></path><path d="M433.42,279.16c-3.87.09-6.36,2.76-7.42,6.16s1.47,6.4,4.23,7.16,7.69-.94,9.33-4.25S438.14,279,433.42,279.16Z" style="fill:#263238"></path><path d="M439.92,287.1a3.93,3.93,0,0,1-.36,1.13c-1.64,3.31-6.56,5-9.33,4.25a6,6,0,0,1-4.48-5.78,7.33,7.33,0,0,0,6.57,4C433.39,290.75,437.5,290.7,439.92,287.1Z" style="opacity:0.1"></path><path d="M426.89,274.58a4.87,4.87,0,0,0-4,3.82c-.57,1.77-.18,3.71,1.14,4.33a5.52,5.52,0,0,0,5.42-.46c2-1.32,2.72-4.39,2.11-5.62A4.87,4.87,0,0,0,426.89,274.58Z" style="fill:#263238"></path><path d="M417.79,274.35a2.14,2.14,0,0,1,2.8-.15,10.38,10.38,0,0,1,1.89.52,3.06,3.06,0,0,1,1.74,2.3l-.08.06a11.91,11.91,0,0,1-2.83-2.17,1.66,1.66,0,0,0-1.71-.29,6.26,6.26,0,0,1-1.77-.18l0-.09Z" style="fill:#263238"></path><path d="M426,268.57a6.86,6.86,0,0,1-.71,2.59,1.68,1.68,0,0,0,.15.88,12.31,12.31,0,0,1,1.27,3.34l-.08.06a3.14,3.14,0,0,1-1.41-1.38,5.27,5.27,0,0,1-.25-2.92,2.14,2.14,0,0,1,.95-2.63l.08.06Z" style="fill:#263238"></path><path d="M430.81,281.9s12.41-2.94,21.19.53,14,8.59,13,13-12.72-1-17.24-3.25S430.81,281.9,430.81,281.9Z" style="fill:#ebebeb;opacity:0.7000000000000001"></path><path d="M429.56,282.28s-5,11.73-3.09,21,6.09,15.28,10.57,15,1.21-12.7-.27-17.54S429.56,282.28,429.56,282.28Z" style="fill:#ebebeb;opacity:0.7000000000000001"></path></g></svg>
