<svg xmlns="http://www.w3.org/2000/svg" viewBox="0 0 500 500"><g id="freepik--background-complete--inject-7"><g><g><g><path d="M443.92039,313.0759h-180.7461c-3.2324,0-5.86229-2.6298-5.86229-5.8623V43.9402c0-3.2324,2.62989-5.8618,5.86229-5.8618h180.7461c3.2324,0,5.8623,2.6294,5.8623,5.8618V307.2136c0,3.2325-2.6299,5.8623-5.8623,5.8623ZM263.17429,38.3284c-3.0947,0-5.61229,2.5176-5.61229,5.6118V307.2136c0,3.0948,2.51759,5.6123,5.61229,5.6123h180.7461c3.0947,0,5.6123-2.5175,5.6123-5.6123V43.9402c0-3.0942-2.5176-5.6118-5.6123-5.6118h-180.7461Z" style="fill:#e0e0e0;"></path><path d="M235.49269,313.0759H54.7461c-3.2324,0-5.8618-2.6298-5.8618-5.8623V43.9402c0-3.2324,2.6294-5.8618,5.8618-5.8618H235.49269c3.2324,0,5.86231,2.6294,5.86231,5.8618V307.2136c0,3.2325-2.62991,5.8623-5.86231,5.8623ZM54.7461,38.3284c-3.0942,0-5.6118,2.5176-5.6118,5.6118V307.2136c0,3.0948,2.5176,5.6123,5.6118,5.6123H235.49269c3.0947,0,5.61231-2.5175,5.61231-5.6123V43.9402c0-3.0942-2.51761-5.6118-5.61231-5.6118H54.7461Z" style="fill:#e0e0e0;"></path></g><rect x="0" y="374.1453" width="500" height=".25" style="fill:#e0e0e0;"></rect></g><rect x="51.6724" y="388.4098" width="16.06" height=".25" style="fill:#e0e0e0;"></rect><rect x="170.3524" y="385.6998" width="53.53" height=".25" style="fill:#e0e0e0;"></rect><rect x="68.7324" y="397.6998" width="36.25" height=".25" style="fill:#e0e0e0;"></rect><rect x="378.35239" y="385.5698" width="43.19" height=".25" style="fill:#e0e0e0;"></rect><rect x="430.45239" y="385.5698" width="6.33" height=".25" style="fill:#e0e0e0;"></rect><rect x="316.21239" y="391.7998" width="53.89" height=".25" style="fill:#e0e0e0;"></rect></g><g><g><g><g><path d="M187.8674,178.9552c.0803,.5161-5.6958-2.2818-13.5281,4.3969-7.8323,6.6787-8.2771,19.7904,1.9823,30.534,11.1629,11.6899,24.9474,13.6143,39.9269,3.1651,14.9794-10.4492,11.98451-23.8728,11.5059-27.1613-1.2722-8.7407-10.2018-24.6835-22.46039-24.2676-13.4877,.4575-18.0388,9.395-17.4266,13.3329Z" style="fill:#f0f0f0;"></path><path d="M193.9221,174.923c-.2627,2.6193-1.343,5.2319-3.4982,6.7433-1.452,1.0182-3.1897,1.5385-4.9133,1.9562-1.6447,.3985-3.3084,.7185-4.9837,.9586,0,0,5.2308-3.4408,7.3492-4.3112,2.1185-.8704,2.3307-4.1753,3.6624-5.3166,1.3316-1.1414,2.5431-1.6213,2.3836-.0303Z" style="fill:#e6e6e6;"></path><path d="M174.6446,189.6113c-3.1975,3.4375-3.9358,7.3217-2.752,11.8648,1.1839,4.5431,5.0695,10.2002,11.3673,13.2799-2.7484-3.9702-5.2758-12.2474-4.1699-16.9477,1.1059-4.7003,4.2759-8.8758,8.5062-11.2041-7.3752,2.2252-9.2941,1.7914-12.9516,3.0071Z" style="fill:#f5f5f5;"></path><path d="M205.294,165.6223c-2.07331,.0703-3.93461,.3416-5.59921,.7638,.3168,.0059,.6341-.0065,.9328-.0218,7.1115-.3664,14.1622,3.3426,18.3905,9.0724,4.2284,5.7296,5.7181,13.2566,4.6121,20.2912-1.7288,10.9956-11.2937,22.7997-21.8254,26.4022-6.0832,2.0809-13.26279,.4912-17.558-1.8669,9.508,5.5471,20.3957,4.884,32.0017-3.212,14.9794-10.4492,11.98451-23.8728,11.5059-27.1613-1.2722-8.7407-10.2018-24.6835-22.46039-24.2676Z" style="fill:#e6e6e6;"></path><path d="M204.99539,169.5556c-2.8569-1.3893-6.6451-.4498-8.5217,2.1136l.1206,.6052c.1446,1.6388,.289,3.2776,.4336,4.9164,.0332,.3772,.0777,.782,.3266,1.0673,.4531,.5196,1.2875,.3643,1.9355,.1289,2.37629-.8634,4.56969-2.2268,6.39589-3.9754,.63311-.6062,1.2565-1.3347,1.3016-2.2101,.0603-1.1693-.9391-2.1337-1.9921-2.6459Z" style="fill:#fafafa;"></path></g><path d="M167.6086,114.4732c.5239-5.2227,1.5831-9.9382,1.8106-9.9963s5.3435,1.6251,4.9272,1.893c-.4164,.2679-3.6554,5.6195-4.2331,11.5844-.5777,5.9648-.408,18.6226,.6007,25.1358,.9237,5.965,2.9447,13.0315,9.0072,24.2014,6.0626,11.1698,12.1401,13.0543,12.1401,13.0543,0,0-1.5112,2.3994-3.8777,2.555,0,0-4.5197-3.7992-7.8895-9.4025-3.3698-5.6032-8.4854-16.6416-10.5114-25.0291-1.9119-7.9155-2.4323-19.3357-2.3985-23.9497,.0339-4.6141,.4244-10.0463,.4244-10.0463" style="fill:#e6e6e6;"></path></g><g><path d="M168.3801,123.6848s19.6412-13.2936,35.0005-3.9957c15.3593,9.2978,26.2135,22.9984,28.25141,30.7763,0,0-.70221-.3172-4.13051-1.9103-2.9859-1.3875-27.5806-5.3983-36.4953-8.0274-9.6046-2.8327-20.6966-9.4376-22.6261-16.8429Z" style="fill:#e6e6e6;"></path><path d="M171.4458,123.6146c18.92093,.85401,45.19217,8.59442,57.87876,23.28339,.84387,1.14296,1.61215,2.33516,2.30745,3.5674-1.6312-2.29427-3.28935-4.6414-5.55977-6.27937-14.92201-12.19824-35.7131-18.2912-54.62643-20.57142h0Z" style="fill:#fff; opacity:.3;"></path><path d="M197.0058,128.57359c3.27148,5.02349,6.369,10.00729,9.30756,15.23377-4.05325-4.40485-7.26777-9.60207-9.30756-15.23377h0Z" style="fill:#fff; opacity:.3;"></path><path d="M209.214,133.086c2.68683-1.93788,6.32729-2.13876,9.45108-1.31289-3.23782,.58025-6.22197,.67248-9.45108,1.31289h0Z" style="fill:#fff; opacity:.3;"></path><path d="M181.2146,124.8605c2.72492-1.67623,5.52799-3.18294,8.43445-4.51422,2.92274-1.20826,5.91711-2.75559,9.1552-2.75842-1.56453,.29426-2.96713,1.0701-4.4216,1.68287-4.22493,1.90527-8.75226,4.16402-13.16806,5.58977h0Z" style="fill:#fff; opacity:.3;"></path></g></g><g><g><g><path d="M131.1753,185.488c-.3356,.5449-3.4953-6.6565-16.1078-6.6588-12.6125-.0023-23.4538,11.8673-22.4331,30.0411,1.1105,19.7746,12.4306,32.5302,34.7042,34.701,22.2736,2.1707,30.1563-12.7247,32.3252-16.1711,5.7647-9.1599,10.1182-31.1232-1.6404-40.4837-12.9375-10.2991-24.2874-5.5863-26.8481-1.4285Z" style="fill:#f0f0f0;"></path><path d="M140.026,186.5439c-2.3277,2.2328-5.4123,3.8093-8.6234,3.5044-2.1633-.2054-4.197-1.1022-6.136-2.0835-1.8501-.9363-3.6555-1.961-5.4082-3.0693,0,0,7.6125,.9519,10.2795,1.8251,2.6671,.8732,5.493-2.0389,7.642-2.044s3.66,.5109,2.2461,1.8673Z" style="fill:#e6e6e6;"></path><path d="M110.3747,184.907c-5.7144,.6619-9.4914,3.6957-12.0005,8.8723-2.5091,5.1766-3.3854,13.5403,.0366,21.4193,.595-5.8866,4.821-15.6127,9.5897-19.1151,4.7686-3.5023,11.0443-4.874,16.8393-3.6804-8.6448-3.7905-10.0888-5.7208-14.4651-7.4961Z" style="fill:#f5f5f5;"></path><path d="M158.0234,186.9165c-1.9887-1.5832-3.9396-2.8104-5.8271-3.7405,.2906,.2574,.5962,.4982,.8869,.7214,6.9209,5.3137,10.5443,14.3781,9.9297,23.082-.6145,8.7038-5.2113,16.9053-11.8363,22.5837-10.3555,8.8757-28.6589,12.2736-41.3416,7.2571-7.3258-2.8976-12.7547-10.0888-14.8836-15.7027,4.4525,12.732,15.1297,20.7719,32.3872,22.4538,22.2736,2.1707,30.1563-12.7248,32.3252-16.1711,5.7647-9.1599,10.1182-31.1232-1.6404-40.4837Z" style="fill:#e6e6e6;"></path><path d="M154.6171,190.3458c-1.5584-3.567-5.8371-5.7036-9.6249-4.8062l-.3688,.6601c-1.1684,1.6427-2.337,3.2853-3.5054,4.928-.269,.3781-.5494,.7908-.5443,1.2547,.0092,.8447,.9106,1.3635,1.7019,1.6593,2.9019,1.0848,6.0308,1.558,9.1237,1.3802,1.0723-.0617,2.2328-.2451,2.9709-1.0253,.9861-1.0422,.8213-2.736,.2469-4.0508Z" style="fill:#fafafa;"></path></g><path d="M163.5663,109.2658c4.6415-4.4521,9.3787-8.0058,9.637-7.879,.2583,.1268,3.6891,5.7642,3.0879,5.6828-.6012-.0813-7.8763,2.332-13.1582,7.4332-5.2818,5.1012-15.1893,17.0362-19.4284,23.9101-3.8822,6.2952-7.6176,14.4899-10.8483,29.7239-3.2307,15.2339,.9363,21.8236,.9363,21.8236,0,0-3.3168,1.0351-5.6466-.7018,0,0-1.1923-7.1358,.1221-15.0391,1.3143-7.9032,5.3233-22.2615,10.1045-31.6917,4.5121-8.8995,13.1085-19.9596,16.8091-24.234,3.7008-4.2744,8.3846-9.028,8.3846-9.028" style="fill:#e6e6e6;"></path></g><path d="M159.812,114.8681s-23.6404-16.9019-42.747-5.9963c-19.1065,10.9057-32.8333,27.3461-35.5745,36.8092,0,0,.8701-.3664,5.1196-2.2099,3.7012-1.6056,33.9541-5.7442,44.9566-8.6841,11.854-3.1674,25.6488-10.9088,28.2453-19.9189Z" style="fill:#e6e6e6;"></path><path d="M156.05901,114.6856c-23.25404,1.90763-54.43923,10.1923-71.37409,26.91024-1.12877,1.30469-2.18719,2.67618-3.19441,4.08516,.9023-1.47955,1.889-2.90916,2.96486-4.27531,15.96144-17.43755,48.4983-26.15962,71.60365-26.72009h0Z" style="fill:#fff; opacity:.3;"></path><path d="M124.594,119.9554c-2.81359,6.76328-6.89936,13.00218-11.88048,18.36729,3.88785-6.21514,7.85117-12.24362,11.88048-18.36729h0Z" style="fill:#fff; opacity:.3;"></path><path d="M109.4978,125.0984c-3.87249-1.03195-7.59416-1.25064-11.53541-1.9055,3.86293-.75393,8.23908-.40957,11.53541,1.9055h0Z" style="fill:#fff; opacity:.3;"></path><path d="M144.0538,115.9043c-5.29704-1.99806-10.8-4.91013-15.91924-7.34231-1.76832-.78143-3.48237-1.75486-5.39775-2.11975,3.94871,.19228,7.54062,2.19545,11.07836,3.76802,3.51573,1.71706,6.9121,3.6329,10.23863,5.69404h0Z" style="fill:#fff; opacity:.3;"></path></g></g><polygon points="302.354 110.2955 308.87029 113.9593 302.26969 117.4695 298.60519 123.9862 295.09519 117.385 288.57889 113.7208 295.17989 110.211 298.844 103.6943 302.354 110.2955" style="fill:#ebebeb;"></polygon><polygon points="208.52539 86.4615 212.904 88.9233 208.46869 91.282 206.00639 95.6608 203.64789 91.2252 199.26929 88.763 203.70479 86.4047 206.16679 82.0258 208.52539 86.4615" style="fill:#ebebeb;"></polygon><polygon points="426.16779 160.8363 431.75979 163.9804 426.09539 166.9927 422.95069 172.585 419.93859 166.9202 414.34659 163.7757 420.01129 160.7638 423.15559 155.1714 426.16779 160.8363" style="fill:#ebebeb;"></polygon><polygon points="70.847 218.7662 76.439 221.9103 70.7746 224.9226 67.6299 230.5149 64.6178 224.8501 59.0258 221.7056 64.6905 218.6937 67.8348 213.1013 70.847 218.7662" style="fill:#ebebeb;"></polygon><polygon points="284.00119 148.6748 287.29279 150.5255 283.95859 152.2986 282.10749 155.5904 280.33449 152.2559 277.04289 150.405 280.37729 148.6321 282.22809 145.3403 284.00119 148.6748" style="fill:#ebebeb;"></polygon><polygon points="189.4957 251.958 192.7873 253.8087 189.4531 255.5818 187.602 258.8735 185.829 255.5391 182.5374 253.6882 185.8718 251.9153 187.7226 248.6235 189.4957 251.958" style="fill:#ebebeb;"></polygon><polygon points="174.1479 67.7198 176.3618 68.9646 174.1192 70.1572 172.8742 72.3713 171.6816 70.1285 169.4677 68.8836 171.7104 67.6911 172.9553 65.477 174.1479 67.7198" style="fill:#ebebeb;"></polygon><polygon points="384.02039 186.2213 386.84509 187.8095 383.98379 189.3311 382.39539 192.1559 380.87379 189.2944 378.04919 187.7061 380.91059 186.1847 382.49889 183.3598 384.02039 186.2213" style="fill:#ebebeb;"></polygon><polygon points="420.22849 78.8255 423.05319 80.4136 420.192 81.9353 418.60349 84.7601 417.082 81.8986 414.25729 80.3102 417.11869 78.7888 418.707 75.9639 420.22849 78.8255" style="fill:#ebebeb;"></polygon><polygon points="425.98239 219.5587 430.16309 221.9093 425.92829 224.1614 423.57719 228.3424 421.32529 224.1072 417.14449 221.7563 421.37959 219.5045 423.73039 215.3235 425.98239 219.5587" style="fill:#ebebeb;"></polygon><polygon points="91.3365 262.6563 94.1612 264.2445 91.2999 265.7661 89.7114 268.591 88.1899 265.7295 85.3652 264.1411 88.2267 262.6197 89.8149 259.7948 91.3365 262.6563" style="fill:#ebebeb;"></polygon><polygon points="257.98539 202.6635 260.81009 204.2517 257.94889 205.7733 256.36039 208.5981 254.83889 205.7367 252.01419 204.1483 254.87559 202.6269 256.46389 199.802 257.98539 202.6635" style="fill:#ebebeb;"></polygon><polygon points="81.4905 98.3512 84.3152 99.9394 81.4539 101.461 79.8654 104.2858 78.3439 101.4244 75.5192 99.836 78.3806 98.3146 79.9689 95.4897 81.4905 98.3512" style="fill:#ebebeb;"></polygon><g><g><g><path d="M351.93109,127.8801c-.1866,.4099-3.0232-4.3419-11.83-3.2394-8.8068,1.1024-15.3377,10.3392-13.0342,22.9396,2.5064,13.7102,11.52711,21.6259,27.2696,21.1919,15.7424-.434,19.94251-11.5247,21.1552-14.1209,3.2234-6.9005,4.3406-22.6173-4.6891-28.1239-9.935-6.0588-17.4474-1.7746-18.8715,1.3527Z" style="fill:#f0f0f0;"></path><path d="M358.20349,127.8426c-1.4299,1.7628-3.4457,3.1336-5.71449,3.2018-1.52851,.046-3.027-.4022-4.46681-.9176-1.3738-.4919-2.7241-1.0494-4.0449-1.6698,0,0,5.39871-.0017,7.3374,.3746,1.9387,.3762,3.6569-1.9045,5.157-2.0962,1.5001-.1916,2.60031,.0364,1.7318,1.1072Z" style="fill:#e6e6e6;"></path><path d="M337.35639,129.2952c-3.9321,.9624-6.3038,3.4113-7.6027,7.2455-1.2988,3.8342-1.1786,9.7507,1.9005,14.9527-.0998-4.1624,1.9996-11.3235,5.0227-14.1864,3.02311-2.863,7.285-4.37,11.4358-4.0439-6.368-1.89-7.5452-3.1114-10.7563-3.9679Z" style="fill:#f5f5f5;"></path><path d="M370.80259,126.5274c-1.5271-.9313-2.9968-1.6175-4.3961-2.1017,.2254,.1543,.4599,.2957,.6824,.4261,5.2976,3.1044,8.621,9.1164,8.9538,15.2476s-2.1589,12.2602-6.28769,16.805c-6.45381,7.1039-18.93661,11.0786-28.23131,8.6861-5.3688-1.382-9.7889-5.928-11.7668-9.6615,4.2234,8.5003,12.3824,13.1795,24.5796,12.8432,15.7424-.434,19.94251-11.5247,21.1552-14.1209,3.2234-6.9005,4.3406-22.6173-4.6891-28.1239Z" style="fill:#e6e6e6;"></path><path d="M368.72439,129.2201c-1.40039-2.3543-4.575-3.4716-7.1412-2.5134l-.1997,.4932c-.6721,1.2493-1.3442,2.4985-2.0163,3.7478-.1547,.2875-.3144,.6002-.27019,.9237,.08029,.589,.75509,.8723,1.33349,1.0096,2.1213,.5034,4.3474,.5599,6.4914,.1651,.7434-.137,1.5376-.3666,1.9847-.976,.5973-.814,.334-1.9823-.1822-2.85Z" style="fill:#fafafa;"></path></g><path d="M367.87579,71.8231c2.85121-3.5149,5.8478-6.4109,6.0393-6.345,.1914,.0659,3.0804,3.7019,2.6536,3.6977-.4269-.0042-5.2955,2.3177-8.537,6.342-3.2415,4.0242-9.1146,13.225-11.4728,18.3957-2.1597,4.7354-4.0506,10.7843-4.97289,21.7041-.92231,10.9198,2.56409,15.1562,2.56409,15.1562,0,0-2.2253,1.0131-4.00409,.0043,0,0-1.45711-4.8782-1.23121-10.5116s1.7683-16.0099,4.28121-23.0131c2.37159-6.6089,7.40579-15.084,9.61559-18.3926,2.2098-3.3085,5.0642-7.0377,5.0642-7.0377" style="fill:#e6e6e6;"></path></g><g><path d="M364.06859,78.8259s20.4487-.2755,27.1116,13.6988,7.9944,28.9872,5.7789,35.5566c0,0-.3557-.5611-2.0714-3.3328-1.4942-2.414-17.3159-16.9532-22.4939-23.07-5.5787-6.5902-10.4424-16.603-8.3252-22.8526Z" style="fill:#e6e6e6;"></path><path d="M366.31079,80.2273c13.35053,9.59593,28.52516,27.47145,30.69583,44.18888,.06125,1.22466,.04382,2.44804-.04755,3.66511-.10513-2.42622-.19931-4.90044-1.06677-7.14688-5.12518-16.00495-16.97914-29.89967-29.58151-40.70712h0Z" style="fill:#fff; opacity:.3;"></path><path d="M382.37878,95.9069c.07176,5.1797-.05574,10.22324-.50902,15.385-.92943-5.08749-.78249-10.37361,.50902-15.385h0Z" style="fill:#fff; opacity:.3;"></path><path d="M389.0379,104.9407c2.87014-.21884,5.63337,1.37966,7.43161,3.53042-2.66585-1.03852-4.82126-2.36749-7.43161-3.53042h0Z" style="fill:#fff; opacity:.3;"></path><path d="M372.7594,85.752c2.76332,.02938,5.4978,.25869,8.22604,.67436,2.68059,.5157,5.5798,.83557,7.89259,2.41683-1.0962-.46538-2.81891-.61403-3.99381-.82905-3.95217-.60871-8.27911-1.11901-12.12483-2.26213h0Z" style="fill:#fff; opacity:.3;"></path></g></g></g><g id="freepik--Shadow--inject-7"><path d="M424.56339,425.4139c0,24.4276-77.4265,44.2303-172.937,44.2303s-172.93709-19.8027-172.93709-44.2303,77.4266-44.2311,172.93709-44.2311,172.937,19.8028,172.937,44.2311Z" style="fill:#f5f5f5;"></path></g><g id="freepik--Pie_Slice--inject-7"><g><g><ellipse cx="248.69587" cy="375.59798" rx="220.20757" ry="59.87862" style="fill:#28ABE3;"></ellipse><ellipse cx="248.69587" cy="375.59798" rx="220.20757" ry="59.87862" style="fill:#fff; opacity:.7;"></ellipse><path d="M248.69589,415.6504c-87.1725,0-158.15169-18.842-160.88479-42.3655-.0543,.4674-.0913,.936-.0913,1.4071,0,24.1748,72.0714,43.7724,160.97609,43.7724s160.97611-19.5976,160.97611-43.7724c0-.4711-.037-.9397-.09131-1.4071-2.7332,23.5235-73.7124,42.3655-160.8848,42.3655Z" style="opacity:.2;"></path><path d="M248.69589,330.9195c87.1724,0,158.1516,18.8421,160.8848,42.3654,.05431-.4674,.09131-.936,.09131-1.407,0-24.1748-72.07151-43.7725-160.97611-43.7725s-160.97609,19.5977-160.97609,43.7725c0,.471,.037,.9396,.0913,1.407,2.7331-23.5233,73.7123-42.3654,160.88479-42.3654Z" style="fill:#fff; opacity:.3;"></path></g><path d="M130.9042,395.7184s75.1509,15.1329,138.8416,11.8412c63.6907-3.2916,102.6028-12.7915,102.6028-12.7915l-241.44439,.9503Z" style="opacity:.2;"></path><g><path d="M130.9042,395.7184c2.253,.0768,172.3071,6.9457,241.44439-.9503,8.9786-1.0254,16.3556-7.5419,18.4792-16.3258l14.5276-60.0915-299.66949,4.7904s-1.2879,7.4117,.9275,15.9413c1.9575,7.537,9.5579,36.133,12.0756,43.9073,2.4556,7.5828,7.4169,12.5649,12.2152,12.7286Z" style="fill:#ffb573;"></path><path d="M380.26919,334.7932l-263.14669,43.8907,2.7957,7.4382h0s225.46139,.6158,239.27519-1.8688c11.8054-2.1233,12.7054-7.0359,15.9942-13.7414,3.2888-6.7057,5.0816-35.7187,5.0816-35.7187Z" style="opacity:.2;"></path><path d="M110.3306,316.3673l198.15879-116.9508h27.7365l35.171,22.0176s12.8675,30.4489,14.2972,31.0943,7.7204,28.3819,7.7204,29.2398c0,.8578-1.4297,32.8834-1.4297,32.8834l-3.6744,4.1081-281.69699,6.7578s-3.7124-4.7653,3.7172-9.1502Z" style="fill:#ffb573;"></path><g><path d="M110.3306,316.3673c-.5302,.3129-.9977,.6277-1.4199,.9426,.6684-.4293,1.3367-.8585,2.005-1.2879l-.5851,.3453Z" style="fill:#fff; opacity:.2;"></path><path d="M353.40319,288.6813c9.6437-17.2118,25.3671-26.8008,15.11681-35.9966-10.25031-9.1958-28.29681-12.5471-45.548-19.7433-17.25121-7.1963-13.54481-18.1155-24.95241-24.2576-.9942-.5353-3.3413-.1766-6.7914,.92l-95.08119,56.1156,.3833,.1327c-11.3921,6.8249-22.3801,16.9705-31.4871,26.6359-2.4365,2.5859-4.9433,5.7937-4.3491,9.2967,.8924,5.2611,7.5845,6.8079,12.9017,7.2601,27.359,2.3266,54.5441,6.6604,81.2798,12.916l124.0103-2.9749c-4.9417-7.2164-34.2413-14.6726-25.4827-30.3046Z" style="fill:#fff; opacity:.2;"></path><g style="opacity:.1;"><path d="M368.94539,222.8786c-13.4771-11.8715-30.4035-18.7225-47.8767-23.4621h-12.5793l-2.8568,1.6861c3.4695,5.8286,10.9298,8.0971,17.6741,9.5348,7.0571,1.5044,14.9001,3.2123,19.01831,9.1375,1.39179,2.0025,2.29339,4.4246,4.20769,5.9355,3.2835,2.5915,8.5789,1.7363,11.4107,4.815,1.5992,1.7385,1.9367,4.2663,3.0152,6.3679,1.4847,2.893,4.2803,4.8295,6.8057,6.8781,5.0436,4.091,9.3706,9.0633,12.7259,14.6236,2.368,3.9239,4.2935,8.6523,2.85481,13.0036-1.44061,4.357-5.88731,7.1591-7.47371,11.4651-3.4628,9.3987,8.2213,19.0818,5.614,28.7529-.42529,1.5773-1.226,3.0631-1.3886,4.6887-.08969,.8965,.1116,1.8725,.5681,2.6379l4.9476-.1188c.309-.319,.5929-.6638,.84661-1.0051,2.665-3.5856,4.53779-7.6786,5.916-11.9423,.42329-9.549,1.03959-23.5456,1.03959-24.1089,0-.8578-6.2908-28.5942-7.72059-29.2397-1.00171-.4523-7.61421-15.526-11.48581-24.5156-1.6693-1.7926-3.4203-3.5113-5.2628-5.1342Z"></path></g><g style="opacity:.3;"><path d="M160.6941,301.7847c-.5942-3.503,1.9126-6.7108,4.3491-9.2967,9.107-9.6654,20.095-19.811,31.4871-26.6359l-.3833-.1327-85.2313,50.3026c-.6683,.4294-1.3366,.8586-2.005,1.2879-5.4928,4.0981-2.2974,8.2076-2.2974,8.2076l148.2623-3.5567c-26.7357-6.2556-53.9208-10.5894-81.2798-12.916-5.3172-.4522-12.0093-1.999-12.9017-7.2601Z" style="fill:#fff;"></path></g></g><path d="M106.6134,339.0825s271.08219-6.8628,273.65579-4.2893c2.5735,2.5736-5.1471,39.8901-14.1546,42.8926-9.0074,3.0025-247.42559,5.304-247.42559,5.304l-4.4258-12.1656c-.6022-1.6553-1.1025-3.3459-1.4983-5.0623l-6.1515-26.6794Z" style="fill:#28ABE3;"></path><path d="M268.467,275.2176s22.59969-34.4133,72.42179-22.5329c0,0-26.7087,35.8872-72.42179,22.5329Z" style="fill:#28ABE3;"></path><path d="M271.638,291.9777l-1.59061-1.8907s18.7121-4.5826,33.9874,2.8005c15.27521,7.383,18.5848,16.039,18.5848,16.039l-2.7003,.001-48.28129-16.9498Z" style="fill:#d58745;"></path><path d="M268.467,292.1673s13.868,21.5725,48.28119,16.9498c0,0-9.2453-22.0861-48.28119-16.9498Z" style="fill:#28ABE3;"></path><path d="M247.117,272.428l-2.21431,2.7896s-.2701-16.4197,10.3964-29.2832c10.6665-12.8636,26.8688-16.3373,26.8688-16.3373l-2.5058,3.3443-32.54509,39.4866Z" style="fill:#d58745;"></path><path d="M247.117,272.428s25.02939-5.5874,32.54509-39.4866c0,0-23.9192,1.0708-32.54509,39.4866Z" style="fill:#28ABE3;"></path><path d="M382.12369,374.2696c0,1.1109-.9006,2.0115-2.0116,2.0115s-2.0116-.9006-2.0116-2.0115c0-1.111,.9006-2.0116,2.0116-2.0116s2.0116,.9006,2.0116,2.0116Z" style="fill:#d58745;"></path><path d="M307.34559,200.8462s-1.16859-10.907,7.264-13.9139c2.8355-1.0111,5.9386-.2318,8.3413,1.582,1.2068,.911,3.3146,1.752,6.9842,1.752,8.0064,0,15.155-4.0032,24.0193,6.5767,8.8642,10.5799,3.4313,11.7237,12.2955,15.4409,8.8643,3.7173,16.0129,2.2876,17.7285,9.7221,1.7157,7.4345,0,9.4361,7.14861,13.7253,7.14859,4.2891,10.57989,8.2923,9.72209,19.1582-.8579,10.8658-1.4297,11.1518,2.2875,15.7269,3.7173,4.5751,11.7237,11.4377,6.8627,18.5863-4.8611,7.1486-7.1486,9.4361-7.1486,13.7253s2.5047,15.4228,2.5047,15.4228l-22.2293,.5333s7.429-33.3987-1.1493-63.1368c-8.5783-29.7381-50.0401-50.8979-74.6312-54.9011Z" style="fill:#d58745;"></path><g><path d="M202.15419,343.0626c-.2523,.3459-1.9841-4.6228-10.39719-5.283-8.4132-.6601-16.2648,6.6915-16.533,18.8679-.2918,13.2488,6.5933,22.3488,21.3378,24.9599,14.7446,2.6111,20.7806-6.9135,22.4074-9.0991,4.3236-5.8092,8.3746-20.2328,1.0197-27.0909-8.0923-7.5457-15.9095-4.9947-17.8347-2.3548Z" style="opacity:.2;"></path><g style="opacity:.3;"><path d="M208.003,344.229c-1.66931,1.368-3.80921,2.2585-5.93531,1.8875-1.4323-.2501-2.7421-.9545-3.9842-1.7103-1.1854-.7212-2.3362-1.499-3.4474-2.3298,0,0,5.0282,1.0324,6.7617,1.7542s3.7706-1.0733,5.2044-.9644c1.43381,.1088,2.41481,.532,1.40081,1.3628Z"></path></g><g style="opacity:.1;"><path d="M188.3092,341.5888c-3.8464,.1432-6.5243,1.9697-8.4684,5.2917-1.9441,3.3222-2.9653,8.8555-1.094,14.29,.7043-3.8957,4.0311-10.163,7.3951-12.2503,3.3639-2.0872,7.6217-2.6745,11.425-1.5757-5.5687-2.9799-6.4311-4.343-9.2577-5.7557Z" style="fill:#fff;"></path></g><g style="opacity:.1;"><path d="M217.53759,347.5271c-.8532-2.4607-3.5959-4.1094-6.1694-3.7086l-.2805,.4211c-.8652,1.0347-1.7304,2.0694-2.5956,3.1042-.1992,.2382-.4078,.4988-.4287,.8085-.0379,.564,.5363,.9572,1.0487,1.1957,1.8791,.8752,3.9415,1.3543,6.014,1.3971,.7185,.0149,1.5022-.0469,2.0353-.5288,.7122-.6436,.6907-1.7821,.3762-2.6892Z" style="fill:#fff;"></path></g><path d="M190.6321,344.5832c-.1039-.4366-.3538-.8303-.6781-1.1404-2.2688-2.1692-4.0563-.6269-6.2078,.8187-2.0112,1.3514-4.1082,4.8543-3.3913,5.5643,.7169,.71,4.4627-2.6464,8.7458-3.6751,1.409-.3384,1.7111-.8123,1.5314-1.5675Z" style="fill:#fff; opacity:.1;"></path></g><g><path d="M282.89489,369.1637c.3734-.1437-.7858,4.6342,5.4834,9.4166,6.2691,4.7825,16.1583,2.9916,22.5405-6.4301,6.9443-10.2515,6.1523-20.8841-4.0977-30.407-10.2499-9.5229-19.8154-5.1061-22.20009-4.2151-6.33821,2.3683-16.82861,11.6366-14.53161,20.7476,2.5274,10.0245,9.9562,11.9843,12.8055,10.888Z" style="opacity:.2;"></path><g style="opacity:.3;"><path d="M278.89519,365.2836c2.0037-.2276,4.1347,.1579,5.6154,1.5268,.9976,.9223,1.6687,2.139,2.2606,3.3619,.56481,1.1669,1.0739,2.3607,1.525,3.5761,0,0-3.4235-3.359-4.4183-4.8042-.99489-1.4451-3.5037-1.0687-4.574-1.8809-1.0702-.8121-1.6258-1.6415-.4087-1.7797Z"></path></g><g style="opacity:.1;"><path d="M293.01519,377.3379c3.09181,1.8372,6.1195,1.7608,9.3293,.1386,3.2098-1.6223,6.816-5.4479,8.1016-10.6621-2.5273,2.7009-8.3153,5.934-12.0137,5.8674-3.6983-.0667-7.3381-1.7638-9.7665-4.5541,2.8606,5.1616,2.8467,6.6686,4.3493,9.2102Z" style="fill:#fff;"></path></g><g style="opacity:.1;"><path d="M273.08279,357.8621c-.5775,2.364,.7397,5.0483,2.9628,6.0381l.4336-.1884c1.2036-.3737,2.4072-.7473,3.6109-1.121,.277-.086,.5728-.1848,.7462-.4174,.3156-.4234,.0642-1.023-.2171-1.47-1.0314-1.6394-2.4074-3.0608-4.0125-4.1449-.5564-.3758-1.2028-.7246-1.8655-.6165-.8853,.1442-1.4455,1.0488-1.6584,1.9201Z" style="fill:#fff;"></path></g><path d="M292.70959,373.8101c-.1397,.3953-.1431,.8311-.0457,1.2389,.6814,2.8526,2.8662,2.548,5.2876,2.5038,2.2637-.0414,5.6851-1.7281,5.4823-2.6487-.20279-.9207-4.8443-.1847-8.7276-1.5482-1.2775-.4485-1.7549-.2296-1.9966,.4542Z" style="fill:#fff; opacity:.1;"></path></g><g><g><g style="opacity:.3;"><path d="M349.46149,377.8454c-1.8694-.2033-3.7291-.9905-4.7958-2.539-.7186-1.0433-1.0799-2.2877-1.368-3.5213-.2749-1.1772-.4935-2.3676-.655-3.5656,0,0,2.4266,3.7569,3.0356,5.2753,.6091,1.5184,2.9686,1.6898,3.7759,2.6478s1.14281,1.8263,.0073,1.7028Z"></path></g><g style="opacity:.1;"><path d="M339.08479,363.9876c-2.4364-2.3045-5.2065-2.8551-8.4587-2.0366-3.2523,.8185-7.3164,3.5602-9.5538,8.0404,2.8523-1.9395,8.7799-3.6954,12.1308-2.8774,3.3508,.8181,6.3145,3.1074,7.9522,6.143-1.54529-5.2814-1.224-6.6495-2.0705-9.2694Z" style="fill:#fff;"></path></g><path d="M338.64029,367.2595c.2081-.331,.3005-.7267,.2954-1.1177-.03569-2.7346-2.08569-2.9049-4.2976-3.3606-2.0678-.426-5.5257,.4078-5.5298,1.2869-.004,.8791,4.3692,1.1601,7.62271,3.1957,1.07029,.6697,1.54939,.5683,1.90929-.0043Z" style="fill:#fff; opacity:.1;"></path></g><g><g style="opacity:.3;"><path d="M337.39609,352.1926c2.079-.5792,4.3963-.5319,6.1926,.6646,1.2101,.806,2.125,1.9785,2.9572,3.1708,.79411,1.1377,1.5339,2.3134,2.21611,3.5216,0,0-4.18581-2.9713-5.48141-4.3305-1.29559-1.3591-3.8834-.5372-5.1517-1.2147-1.2684-.6774-1.9957-1.46-.7328-1.8118Z"></path></g><g style="opacity:.1;"><path d="M354.35589,362.5455c3.578,1.419,6.7648,.8266,9.8828-1.4303,3.118-2.257,6.2826-6.9095,6.7601-12.6373-2.2146,3.2815-7.785,7.6766-11.70479,8.2313-3.91981,.5545-8.05331-.6238-11.09121-3.1622,3.8955,4.9714,4.1355,6.5664,6.1531,8.9985Z" style="fill:#fff;"></path></g><g style="opacity:.1;"><path d="M329.99909,345.3318c-.2108,2.5959,1.63491,5.2101,4.1517,5.8804l.4264-.2723c1.20881-.5984,2.4177-1.1966,3.6265-1.795,.27831-.1377,.5742-.2922,.7181-.5672,.262-.5009-.105-1.0921-.47779-1.5169-1.36711-1.5583-3.06161-2.8279-4.94111-3.7023-.6515-.3031-1.3936-.5624-2.0758-.3363-.9112,.3021-1.3503,1.3527-1.428,2.3096Z" style="fill:#fff;"></path></g><path d="M353.43669,358.8689c-.0809,.4414-.0108,.9025,.161,1.317,1.20231,2.8996,3.4597,2.2084,6.01131,1.7524,2.38539-.4263,5.71609-2.7871,5.34619-3.7258-.37-.9387-5.1508,.6235-9.48519-.1611-1.426-.2581-1.89351,.0539-2.03331,.8175Z" style="fill:#fff; opacity:.1;"></path></g><g><path d="M128.3745,346.1273c3.9517,12.6491,13.381,19.076,28.1878,16.845s17.4875-13.1839,18.3317-15.7742c.8135-2.4964,1.228-6.055,.9941-9.7743-19.407,.4448-36.3888,.851-48.6837,1.1501-.0133,2.3669,.3411,4.8997,1.1701,7.5534Z" style="opacity:.1;"></path><path d="M243.37769,357.0564c13.9941,5.3278,21.708-2.897,23.7155-4.7391,3.5463-3.2542,7.6827-10.2685,8.3175-16.9899-16.0281,.2982-32.67369,.6343-48.9932,.98,.4454,9.2598,5.902,16.5388,16.9602,20.749Z" style="opacity:.1;"></path><path d="M346.95169,373.7021c-.369,.0542,1.6639-4.055-3.0599-9.6895-4.7239-5.6346-14.087-6.0306-21.8226,1.2335-4.6679,4.3835-7.1848,9.3627-7.2521,14.7628,16.573-.4084,30.4861-.8477,39.6668-1.311-2.1621-3.8638-5.6416-5.2736-7.5322-4.9958Z" style="opacity:.1;"></path><path d="M263.36059,373.6248c-6.7143-11.4253-17.3542-15.5491-31.2708-10.0221-12.2321,4.858-13.8127,14.1548-14.1761,18.178,15.9282-.2298,32.4198-.4877,48.36831-.7704-.50861-2.3987-1.45331-4.8873-2.92141-7.3855Z" style="opacity:.2;"></path><path d="M114.2632,370.8242l4.4258,12.1656s1.5581-.0151,4.4132-.0442c5.4378-6.0751,6.9186-14.2863,3.5199-24.4672-5.0195-15.0367-17.3343-15.0056-19.0722-15.4162l-.0146,.0189,5.2296,22.6809c.3958,1.7164,.8961,3.407,1.4983,5.0622Z" style="opacity:.2;"></path><path d="M160.0533,365.7126c-14.7709-2.4582-20.7079,7.1284-22.3118,9.3308-1.3722,1.884-2.7044,4.662-3.6359,7.7868,11.1433-.1202,27.5422-.3052,46.5618-.5462-2.3704-8.7582-9.1244-14.6594-20.6141-16.5714Z" style="opacity:.2;"></path><path d="M372.40009,354.0371c3.2714-7.0069,3.713-13.7005,1.0612-19.7204-8.71229-.1896-25.1632-.0987-45.8002,.1654-1.7442,3.8499-2.3773,8.0156-.7556,11.7926,4.3652,10.167,12.54751,10.9827,15.3734,9.3425,.3703-.2149-.0472,5.0304,7.3865,9.0249,7.4337,3.9948,17.5822,.4306,22.7347-10.605Z" style="opacity:.2;"></path></g></g><g style="opacity:.1;"><path d="M161.3026,370.4547c.0534-.4162,.0744-.7112-.1704-1.0876-.5588-.8595-2.2748-1.3943-6.4245-.6365-2.0685,.3093-4.1503,.6712-6.0829,1.4707-1.9326,.7997-3.7265,2.0786-4.7976,3.8749-.3668,.6151-.6499,1.3487-.4559,2.0383,.1815,.6447,.7586,1.1204,1.3904,1.3427,.6319,.2222,1.3174,.2282,1.9868,.2042,4.1304-.1486,8.1796-1.3524,11.8989-3.1548,1.1472-.5561,2.3606-1.2756,2.7714-2.4822,.1747-.5137-.1851-1.0316-.1162-1.5697Z" style="fill:#fff;"></path></g><g style="opacity:.1;"><path d="M256.47559,368.9466c-2.9771-2.2886-4.6868-4.2777-10.3433-4.9234-1.3224-.151-2.6756-.1732-3.9955-.0094-4.78379,.5936-9.2413,2.6878-12.20979,5.6782-.95611,.9632,.02829,2.3586,1.579,2.2278,7.49689-.6323,15.07389-.6846,22.58379-.1538,.68021,.0482,1.3777,.1,2.0363-.0411,.6585-.1411,1.2803-.521,1.4126-1.0446,.166-.6564-.4529-1.2645-1.0631-1.7337Z" style="fill:#fff;"></path></g><path d="M325.76439,353.1296c0,1.5422-1.2502,2.7924-2.79239,2.7924-1.54231,0-2.79251-1.2502-2.79251-2.7924s1.2502-2.7925,2.79251-2.7925c1.54219,0,2.79239,1.2503,2.79239,2.7925Z" style="opacity:.2;"></path><path d="M277.94609,378.3904c0,1.5422-1.2502,2.7924-2.7925,2.7924-1.5422,0-2.7924-1.2502-2.7924-2.7924s1.2502-2.7924,2.7924-2.7924c1.5423,0,2.7925,1.2502,2.7925,2.7924Z" style="opacity:.2;"></path><path d="M320.22749,347.2993c0,.9126-.7397,1.6523-1.6522,1.6523-.9126,0-1.65229-.7397-1.65229-1.6523,0-.9125,.73969-1.6523,1.65229-1.6523,.9125,0,1.6522,.7398,1.6522,1.6523Z" style="opacity:.2;"></path><circle cx="231.20219" cy="355.922" r="1.6523" style="opacity:.2;"></circle><path d="M380.26919,334.7932c-.1875-.1874-1.8079-.3244-4.6347-.4181-1.5863,6.2981-6.23,19.8989-18.342,30.2188-16.2871,13.8772-192.0582,15.0755-192.0582,15.0755l-48.1117-.9855,.0004,.0015,1.566,4.3043s238.41819-2.3014,247.42559-5.3039c9.0075-3.0025,16.7282-40.319,14.1546-42.8926Z" style="opacity:.2;"></path><path d="M110.9933,342.3654s5.9578,25.2022,12.6928,26.0024c6.735,.8003,133.4856-20.845,127.228-25.3056s-139.9208-.6968-139.9208-.6968Z" style="fill:#fff; opacity:.2;"></path><g><g><g style="opacity:.3;"><path d="M289.71919,269.315c2.0037-.2276,4.1347,.1579,5.6155,1.5268,.9975,.9223,1.6686,2.139,2.2605,3.3619,.56481,1.1668,.1295,1.4158,.5806,2.6311,0,0-2.4791-2.4141-3.4739-3.8592-.9948-1.4452-3.5037-1.0687-4.57389-1.8809-1.07031-.8122-1.62581-1.6415-.40881-1.7797Z"></path></g><g style="opacity:.1;"><path d="M283.90689,261.8935c-.5775,2.364,.7396,5.0482,2.9628,6.038l.4336-.1883c1.2036-.3737,2.4072-.7473,3.6108-1.121,.277-.086,.5728-.1848,.7462-.4174,.3156-.4234,.0642-1.0231-.2171-1.47-1.0314-1.6394-2.4074-3.0608-4.0124-4.1449-.5564-.3758-1.2029-.7246-1.8656-.6165-.8853,.1442-1.4455,1.0487-1.6583,1.9201Z" style="fill:#fff;"></path></g></g><g><path d="M321.64879,250.1989c-18.4581-.2411-31.8616,6.1812-40.59579,12.5794,2.64209,9.5989,9.86369,11.495,12.66589,10.4167,.2445-.0941-.1552,1.9264,1.29,4.6716,12.8939-1.3001,23.3173-6.3191,30.9499-11.542,.9768-5.476-.38679-10.9235-4.31-16.1257Z" style="opacity:.2;"></path><g style="opacity:.3;"><path d="M340.88879,252.6847c-4.0903-.9754-7.9933-1.6332-11.7192-2.0292-.4037,3.8833,.5413,7.913,2.7337,11.149,5.8871-4.9596,8.9855-9.1198,8.9855-9.1198Z"></path></g><g style="opacity:.3;"><path d="M279.23739,273.6733c-.2455-1.9563-1.2135-3.7655-2.4545-5.2977-.3414-.4214-.7062-.8216-1.0827-1.2108-4.8715,4.4609-7.23319,8.0527-7.23319,8.0527,3.34979,.9786,6.59459,1.686,9.73729,2.1693,.9314-.892,1.19871-2.393,1.0331-3.7135Z"></path></g></g></g><g style="opacity:.3;"><path d="M276.34069,243.7643c-1.157-1.0091-2.5722-1.7494-4.0131-2.3135-2.4701-.9669-5.0959-1.478-7.7411-1.5785-4.8438,4.0412-9.9556,10.4419-13.8703,20.5653,.3036,.5712,.6304,1.1305,.9892,1.6715,1.4767,2.2269,3.4642,4.1304,5.7451,5.5156,6.2084-4.0522,13.8461-11.2873,18.8902-23.8604Z"></path></g><g><g style="opacity:.3;"><path d="M292.68659,292.5084c-6.3925-1.3844-14.3512-1.8292-24.21959-.5307,0,0,5.29329,8.2147,17.43039,13.4191,3.6055-3.3871,6.075-7.9896,6.7892-12.8884Z"></path></g><g style="opacity:.3;"><path d="M316.74819,308.9275s-3.3156-7.8998-14.329-13.1515c-3.2978,3.4761-5.46219,8.031-6.0857,12.7827,5.7921,1.1052,12.5627,1.4235,20.4147,.3688Z"></path></g></g><path d="M268.467,275.2176l-2.412-.4327s15.49359-20.4762,36.25769-25.122c20.7641-4.6459,41.0407,.5273,41.0407,.5273l-2.4646,2.4945s-27.14279-4.2578-41.744,.9569c-14.6012,5.2147-30.67779,21.576-30.67779,21.576Z" style="fill:#d58745;"></path><path d="M240.58819,286.2099c0,1.7635-1.4296,3.1932-3.19319,3.1932s-3.19311-1.4297-3.19311-3.1932c0-1.7636,1.4296-3.1932,3.19311-3.1932s3.19319,1.4296,3.19319,3.1932Z" style="fill:#fff; opacity:.2;"></path><circle cx="331.11379" cy="286.2099" r="3.1932" style="fill:#fff; opacity:.2;"></circle><circle cx="230.47579" cy="275.1311" r="2.034" style="fill:#fff; opacity:.2;"></circle><circle cx="177.2491" cy="302.4788" r="2.034" style="fill:#fff; opacity:.2;"></circle><path d="M343.18929,273.1835c0,1.1234-.9106,2.0341-2.034,2.0341-1.12329,0-2.034-.9107-2.034-2.0341,0-1.1233,.91071-2.034,2.034-2.034,1.1234,0,2.034,.9107,2.034,2.034Z" style="fill:#fff; opacity:.2;"></path><path d="M391.02559,331.4574c0,1.6114-1.3063,2.9178-2.9177,2.9178s-2.9178-1.3064-2.9178-2.9178,1.3064-2.9177,2.9178-2.9177,2.9177,1.3063,2.9177,2.9177Z" style="fill:#d58745;"></path><path d="M394.22889,337.1773c0,.8057-.6531,1.4589-1.45889,1.4589-.80571,0-1.45881-.6532-1.45881-1.4589s.6531-1.4589,1.45881-1.4589c.80579,0,1.45889,.6532,1.45889,1.4589Z" style="fill:#d58745;"></path><path d="M158.7414,361.3464c0,1.4104-1.1434,2.5538-2.5537,2.5538-1.4104,0-2.5538-1.1434-2.5538-2.5538s1.1434-2.5537,2.5538-2.5537c1.4103,0,2.5537,1.1433,2.5537,2.5537Z" style="opacity:.2;"></path><path d="M382.44709,318.9692s3.1774-6.7437,10.32291-7.4757c7.14559-.732,12.58539,6.8573,12.58539,6.8573l-22.9083,.6184Z" style="fill:#ffb573;"></path></g></g></g></svg>
